<svg xmlns="http://www.w3.org/2000/svg" xmlns:xlink="http://www.w3.org/1999/xlink" width="541.987" height="398.397" viewBox="0 0 541.987 398.397">
  <defs>
    <linearGradient id="linear-gradient" x1="0.501" y1="1" x2="0.501" gradientUnits="objectBoundingBox">
      <stop offset="0" stop-color="gray" stop-opacity="0.251"/>
      <stop offset="0.54" stop-color="gray" stop-opacity="0.122"/>
      <stop offset="1" stop-color="gray" stop-opacity="0.102"/>
    </linearGradient>
  </defs>
  <g id="about-us" transform="translate(0 0.003)">
    <path id="Path_786" data-name="Path 786" d="M396.973,104.084c-31.992-1.112-62.461-11.438-91.555-22.738S247.5,57.526,216.26,51.54c-20.064-3.851-43.034-4.394-59.218,6.367-15.571,10.38-20.6,28.25-23.307,44.843-2.037,12.491-3.233,25.63,2.343,37.32,3.875,8.117,10.746,14.938,15.5,22.738,16.544,27.048,4.849,60.4-13.074,86.815-8.4,12.387-18.166,24.221-24.656,37.4s-9.491,28.3-3.811,41.749c5.625,13.346,19.036,23.351,33.563,30.4,29.505,14.305,64.26,18.4,98.174,20.721,75.051,5.136,150.5,2.911,225.745.687,27.849-.825,55.817-1.661,83.212-5.966,15.215-2.392,30.919-6.189,41.962-15.323,14.023-11.631,17.5-31.329,8.1-45.911-15.758-24.463-59.317-30.543-70.345-56.8-6.06-14.449.163-30.548,8.977-43.949,18.9-28.754,50.582-53.973,52.248-86.84,1.147-22.57-14.083-45.175-37.631-55.857-24.681-11.2-58.912-9.787-77.112,8.744C458.173,97.723,425.223,105.063,396.973,104.084Z" transform="translate(-79.718 -49.02)" fill="#6c63ff" opacity="0.1"/>
    <g id="Group_198" data-name="Group 198" transform="translate(204.499 55.43)" opacity="0.9">
      <rect id="Rectangle_125" data-name="Rectangle 125" width="4.38" height="36.094" rx="2.19" transform="translate(145.633 67.542)" fill="#3a3768"/>
      <rect id="Rectangle_126" data-name="Rectangle 126" width="2.457" height="11.883" rx="1.228" transform="translate(0.089 39.268)" fill="#3a3768"/>
      <rect id="Rectangle_127" data-name="Rectangle 127" width="2.768" height="20.682" rx="1.384" transform="translate(0 61.022)" fill="#3a3768"/>
      <rect id="Rectangle_128" data-name="Rectangle 128" width="2.635" height="20.86" rx="1.317" transform="translate(0.044 88.941)" fill="#3a3768"/>
      <rect id="Rectangle_129" data-name="Rectangle 129" width="146.512" height="297.765" rx="38.99" transform="translate(1.483)" fill="#3a3768"/>
      <rect id="Rectangle_130" data-name="Rectangle 130" width="20.459" height="4.152" rx="2.076" transform="translate(60.602 8.888)" fill="#e6e8ec"/>
      <circle id="Ellipse_128" data-name="Ellipse 128" cx="2.358" cy="2.358" r="2.358" transform="translate(84.156 8.611)" fill="#e6e8ec"/>
    </g>
    <ellipse id="Ellipse_129" data-name="Ellipse 129" cx="98.846" cy="10.074" rx="98.846" ry="10.074" transform="translate(18.818 349.973)" fill="#6c63ff" opacity="0.1"/>
    <ellipse id="Ellipse_130" data-name="Ellipse 130" cx="46.307" cy="4.721" rx="46.307" ry="4.721" transform="translate(291.146 388.954)" fill="#6c63ff" opacity="0.1"/>
    <ellipse id="Ellipse_131" data-name="Ellipse 131" cx="46.307" cy="4.721" rx="46.307" ry="4.721" transform="translate(449.374 365.168)" fill="#6c63ff" opacity="0.1"/>
    <path id="Path_787" data-name="Path 787" d="M603.55,176.84H586.793v2.022a9.58,9.58,0,0,1-9.58,9.58H523.739a9.58,9.58,0,0,1-9.58-9.58V176.84H498.421a11.631,11.631,0,0,0-11.631,11.636V447.458a11.631,11.631,0,0,0,11.631,11.636H603.55a11.636,11.636,0,0,0,11.636-11.636V188.476A11.636,11.636,0,0,0,603.55,176.84Z" transform="translate(-271.757 -113.659)" fill="#6c63ff"/>
    <path id="Path_788" data-name="Path 788" d="M829.52,134.675s-41.621-2.511-36.712,26.653c0,0-.989,5.156,3.7,7.494,0,0,.074-2.16,4.266-1.428a19,19,0,0,0,4.523.217,9.392,9.392,0,0,0,5.531-2.279h0s11.7-4.834,16.248-23.954c0,0,3.366-4.172,3.233-5.245l-7.024,3s2.4,5.067.494,9.278c0,0-.227-9.1-1.577-8.9-.277.04-3.653,1.755-3.653,1.755s4.132,8.823.989,15.239c0,0,1.182-10.875-2.3-14.6l-4.943,2.887s4.824,9.115,1.557,16.554c0,0,.835-11.409-2.6-15.852l-4.478,3.495s4.533,8.982,1.77,15.15c0,0-.366-13.277-2.743-14.281,0,0-3.92,3.46-4.518,4.874,0,0,3.1,6.525,1.181,9.965,0,0-1.181-8.848-2.15-8.9,0,0-3.9,5.862-4.31,9.886,0,0,.168-5.976,3.361-10.44a11.761,11.761,0,0,0-5.976,3.094s.608-4.142,6.92-4.508c0,0,3.228-4.449,4.093-4.716,0,0-6.3-.529-10.123,1.167,0,0,3.361-3.91,11.28-2.13l4.419-3.613s-8.294-1.132-11.814.119c0,0,4.053-3.46,13.01-.939l4.814-2.877s-7.073-1.527-11.29-.989c0,0,4.449-2.4,12.7.2l3.46-1.547s-5.185-1.018-6.7-1.181-1.6-.578-1.6-.578a17.968,17.968,0,0,1,9.8,1.117S829.644,135.134,829.52,134.675Z" transform="translate(-426.305 -92.309)" fill="#6c63ff"/>
    <path id="Path_789" data-name="Path 789" d="M763.976,108.465s-18.784-1.132-16.589,12.046a3.215,3.215,0,0,0,1.671,3.386s.035-.989,1.928-.648a8.654,8.654,0,0,0,2.042.1,4.262,4.262,0,0,0,2.5-1.028h0s5.284-2.185,7.34-10.825c0,0,1.523-1.883,1.483-2.368l-3.173,1.354a5.687,5.687,0,0,1,.227,4.192s-.1-4.108-.712-4.014c-.124,0-1.646.8-1.646.8s1.864,3.984.455,6.886c0,0,.534-4.913-1.038-6.6l-2.235,1.3s2.18,4.118.7,7.479c0,0,.381-5.156-1.171-7.162l-2.027,1.582s2.051,4.058.8,6.846c0,0-.163-6-1.236-6.456a12.215,12.215,0,0,0-2.042,2.2s1.4,2.966.529,4.5c0,0-.534-4-.989-4.019a13.3,13.3,0,0,0-1.948,4.449,9.618,9.618,0,0,1,1.517-4.716,5.293,5.293,0,0,0-2.7,1.4s.272-1.873,3.134-2.037a12.339,12.339,0,0,1,1.849-2.135,11.59,11.59,0,0,0-4.572.529s1.518-1.765,5.1-.989l1.977-1.631s-3.747-.494-5.338.054c0,0,1.834-1.562,5.877-.425l2.175-1.3a19.759,19.759,0,0,0-5.1-.44s2.007-1.083,5.734.089l1.557-.7s-2.338-.46-3.025-.534-.722-.262-.722-.262a8.087,8.087,0,0,1,4.394.494S764.031,108.673,763.976,108.465Z" transform="translate(-403.449 -79.07)" fill="#6c63ff"/>
    <ellipse id="Ellipse_132" data-name="Ellipse 132" cx="19.876" cy="3.361" rx="19.876" ry="3.361" transform="translate(0 332.059)" fill="#6c63ff"/>
    <path id="Path_790" data-name="Path 790" d="M89.781,707.089a5.748,5.748,0,0,0,1.9-2.857,2.562,2.562,0,0,0-1.325-2.911c-1.216-.47-2.516.376-3.5,1.226s-2.116,1.824-3.406,1.641a5.175,5.175,0,0,0,1.587-4.849,1.978,1.978,0,0,0-.445-.989c-.672-.722-1.9-.41-2.709.158-2.57,1.809-3.287,5.3-3.3,8.443a15.574,15.574,0,0,1-.049-3.46,3.565,3.565,0,0,0-1.3-3.075,3.953,3.953,0,0,0-1.977-.47,4.135,4.135,0,0,0-3.233.919,3.179,3.179,0,0,0,.129,3.954,12.924,12.924,0,0,0,3.342,2.679,7.375,7.375,0,0,1,2.392,2.279,2.186,2.186,0,0,1,.178.405H85.3a20.157,20.157,0,0,0,4.478-3.094Z" transform="translate(-61.69 -377.171)" fill="#6c63ff"/>
    <path id="Path_791" data-name="Path 791" d="M870.3,632.54s4.276,5.6-1.977,14.038-11.4,15.571-9.318,20.835c0,0,9.431-15.68,17.108-15.9S878.745,641.971,870.3,632.54Z" transform="translate(-459.747 -344.104)" fill="#6c63ff"/>
    <path id="Path_792" data-name="Path 792" d="M870.552,632.54a7.039,7.039,0,0,1,.875,1.755c7.489,8.8,11.478,17.014,4.276,17.217-6.7.193-14.75,12.185-16.673,15.21a5.7,5.7,0,0,0,.227.692s9.431-15.68,17.108-15.9S878.995,641.971,870.552,632.54Z" transform="translate(-459.996 -344.104)" opacity="0.1"/>
    <path id="Path_793" data-name="Path 793" d="M897.409,645.71c0,1.977-.223,3.564-.494,3.564s-.494-1.6-.494-3.564.277-1.038.549-1.038S897.409,643.733,897.409,645.71Z" transform="translate(-478.904 -350.126)" fill="#ffd037"/>
    <path id="Path_794" data-name="Path 794" d="M900.487,650.337c-1.73.939-3.233,1.512-3.366,1.27s1.167-1.2,2.9-2.14,1.043-.252,1.176,0S902.216,649.393,900.487,650.337Z" transform="translate(-479.253 -352.42)" fill="#ffd037"/>
    <path id="Path_795" data-name="Path 795" d="M826.824,632.54s-4.276,5.6,1.977,14.038,11.4,15.571,9.323,20.835c0,0-9.431-15.68-17.108-15.9S818.382,641.971,826.824,632.54Z" transform="translate(-438.858 -344.104)" fill="#6c63ff"/>
    <path id="Path_796" data-name="Path 796" d="M826.821,632.54a6.842,6.842,0,0,0-.875,1.755c-7.489,8.8-11.478,17.014-4.281,17.217,6.708.193,14.75,12.185,16.678,15.21a6.677,6.677,0,0,1-.227.692s-9.431-15.68-17.108-15.9S818.378,641.971,826.821,632.54Z" transform="translate(-438.854 -344.104)" opacity="0.1"/>
    <path id="Path_797" data-name="Path 797" d="M820.55,645.71c0,1.977.222,3.564.494,3.564s.494-1.6.494-3.564-.277-1.038-.549-1.038S820.55,643.733,820.55,645.71Z" transform="translate(-440.537 -350.126)" fill="#ffd037"/>
    <path id="Path_798" data-name="Path 798" d="M813.931,650.337c1.725.939,3.233,1.512,3.361,1.27s-1.162-1.2-2.892-2.14-1.048-.252-1.177,0S812.221,649.393,813.931,650.337Z" transform="translate(-436.662 -352.42)" fill="#ffd037"/>
    <path id="Path_799" data-name="Path 799" d="M823.31,695s11.957-.371,15.561-2.936,18.393-5.63,19.278-1.513,17.968,20.469,4.449,20.578-31.369-2.106-34.962-4.3S823.31,695,823.31,695Z" transform="translate(-441.933 -372.421)" fill="#a8a8a8"/>
    <path id="Path_800" data-name="Path 800" d="M862.869,716.29c-13.5.109-31.369-2.106-34.962-4.3-2.743-1.666-3.831-7.652-4.2-10.415h-.4s.756,9.644,4.355,11.834,21.463,4.4,34.962,4.3c3.9-.035,5.245-1.419,5.171-3.46C867.254,715.49,865.771,716.266,862.869,716.29Z" transform="translate(-441.933 -379.017)" opacity="0.2"/>
    <rect id="Rectangle_131" data-name="Rectangle 131" width="38.571" height="38.571" rx="19.285" transform="translate(288.937 241.156)" fill="#3a3768" opacity="0.3"/>
    <rect id="Rectangle_132" data-name="Rectangle 132" width="31.428" height="31.428" rx="15.714" transform="translate(299.99 165.571)" fill="#3a3768" opacity="0.3"/>
    <rect id="Rectangle_133" data-name="Rectangle 133" width="38.571" height="38.571" rx="19.285" transform="translate(235.799 291.2)" fill="#3a3768" opacity="0.3"/>
    <rect id="Rectangle_135" data-name="Rectangle 135" width="38.571" height="38.571" rx="19.285" transform="matrix(0.742, -0.671, 0.671, 0.742, 291.172, 253.132)" fill="#fff"/>
    <rect id="Rectangle_137" data-name="Rectangle 137" width="31.428" height="31.428" rx="15.714" transform="translate(293.928 161.324)" fill="#fff"/>
    <path id="Path_801" data-name="Path 801" d="M1022.6,776.2a15.035,15.035,0,0,0,6.723-.227c.331-.1.712-.331.667-.672a.791.791,0,0,0-.153-.326,20.944,20.944,0,0,1-2.041-3.87.315.315,0,0,0-.124-.173.3.3,0,0,0-.217,0c-.989.257-1.849.9-2.837,1.172a4.054,4.054,0,0,1-1.542.118c-.445-.049-1.058-.42-1.458-.376C1021.867,773.312,1022.43,774.7,1022.6,776.2Z" transform="translate(-542.217 -414.076)" fill="#6c63ff"/>
    <path id="Path_802" data-name="Path 802" d="M1107.022,766.142a11.489,11.489,0,0,0,3.89-3.653.6.6,0,0,0,.1-.311.643.643,0,0,0-.124-.306,12.667,12.667,0,0,0-3.158-3.411,9.338,9.338,0,0,0-1.765,1.626c-.371.391-1.4,1.033-1.409,1.616,0,.351.391.732.573.988.247.366.494.742.707,1.117A18.578,18.578,0,0,1,1107.022,766.142Z" transform="translate(-584.159 -407.781)" fill="#6c63ff"/>
    <path id="Path_803" data-name="Path 803" d="M1017.968,783.167a1.482,1.482,0,0,1-.267.989,1.318,1.318,0,0,1-.568.331c-3.144,1.122-6.762-.282-9.886.831-.647.227-1.256.553-1.9.771a10.3,10.3,0,0,1-2.358.42c-1.112.109-2.224.173-3.337.2a8.071,8.071,0,0,1-2.511-.217,3.041,3.041,0,0,1-1.928-1.527,1.483,1.483,0,0,1-.094-1.088,1.229,1.229,0,0,1,.2-.351,3.011,3.011,0,0,1,.742-.6l1.157-.746a7.721,7.721,0,0,1,1.75-.929c.455-.148.944-.213,1.4-.346a9.7,9.7,0,0,0,4.014-3l1.572-1.676a1.536,1.536,0,0,1,.544-.435,1.484,1.484,0,0,1,.672-.069,9.082,9.082,0,0,1,4.286,1.443,6.2,6.2,0,0,0,1.058.623,3.777,3.777,0,0,0,2.966-.371c.405-.213.316-.346.494-.727s.583-.628.939-.277a1.034,1.034,0,0,1,.222.425,11.8,11.8,0,0,1,.213,3.495,1.551,1.551,0,0,0,.069.544,3.292,3.292,0,0,0,.307.494.764.764,0,0,1,.064.129A3.426,3.426,0,0,1,1017.968,783.167Z" transform="translate(-528.783 -416.507)" fill="#514e7f"/>
    <path id="Path_804" data-name="Path 804" d="M1017.968,789.1a1.482,1.482,0,0,1-.267.989,1.318,1.318,0,0,1-.568.331c-3.144,1.122-6.762-.282-9.886.83-.647.227-1.256.553-1.9.771a10.3,10.3,0,0,1-2.358.42c-1.112.109-2.224.173-3.337.2a8.067,8.067,0,0,1-2.511-.218,3.04,3.04,0,0,1-1.928-1.527,1.482,1.482,0,0,1-.094-1.087,1.229,1.229,0,0,1,.2-.351c.188.386.321.89.435,1.073a2.2,2.2,0,0,0,1.483,1.063,3.763,3.763,0,0,0,1.34-.173c2.847-.707,5.872-.717,8.6-1.785a20.542,20.542,0,0,1,2.817-1.083,22.408,22.408,0,0,1,3.045-.247c1.606-.129,3.158-.613,4.745-.865a3.43,3.43,0,0,1,.183,1.656Z" transform="translate(-528.783 -422.435)" fill="#464353"/>
    <path id="Path_805" data-name="Path 805" d="M1105.885,768.017a5.706,5.706,0,0,1-1.735,3.089,19.812,19.812,0,0,0-2.422,2.654c-.821,1.246-1.181,2.783-2.239,3.836a6.066,6.066,0,0,1-1.345.989,9.3,9.3,0,0,1-1.745.8,13.359,13.359,0,0,1-4.943.272,4.4,4.4,0,0,1-1.562-.307,4.535,4.535,0,0,1-.662-.4,3.146,3.146,0,0,1-.989-1.023,1.028,1.028,0,0,1-.094-.737,1.676,1.676,0,0,1,.494-.722,11.173,11.173,0,0,1,1.191-1.073,7.064,7.064,0,0,0,1.552-1.364,4.442,4.442,0,0,0,.6-1.364,12.231,12.231,0,0,0,.435-2.6,8.144,8.144,0,0,1,.183-1.735c.252-.89.914-1.7.835-2.62a.673.673,0,0,1,.035-.4.619.619,0,0,1,.311-.193,5.63,5.63,0,0,1,1.622-.371,1.868,1.868,0,0,1,1.483.588c.233.277.381.663.722.786a1.194,1.194,0,0,0,.494,0,4.206,4.206,0,0,0,2.353-.727,2.967,2.967,0,0,0,.989-2.16c0-.307-.139-.628.331-.692.361-.049.643.326.826.574a8.066,8.066,0,0,1,1.587,2.892.8.8,0,0,1,.3-.059,1.29,1.29,0,0,1,1.078.554A2.137,2.137,0,0,1,1105.885,768.017Z" transform="translate(-575.845 -409.849)" fill="#514e7f"/>
    <path id="Path_806" data-name="Path 806" d="M1106.011,771.536a5.7,5.7,0,0,1-1.735,3.089,19.814,19.814,0,0,0-2.422,2.654c-.821,1.246-1.181,2.783-2.239,3.836a6.061,6.061,0,0,1-1.345.989,9.285,9.285,0,0,1-1.745.8,13.359,13.359,0,0,1-4.943.272,4.4,4.4,0,0,1-1.562-.306,4.549,4.549,0,0,1-.662-.4,3.145,3.145,0,0,1-.989-1.023,2.407,2.407,0,0,1,1.018-.242c.736.04,1.27.732,1.977.944.989.3,1.977-.405,3.01-.648.663-.153,1.365-.109,2.012-.321a4.974,4.974,0,0,0,1.483-.9,7.531,7.531,0,0,0,1.586-1.532,9.77,9.77,0,0,0,.934-1.859,26.526,26.526,0,0,1,1.884-3.6,2.377,2.377,0,0,1,.385-.494c.153-.143.346-.247.494-.376a3.934,3.934,0,0,0,1.2-2.18,3.65,3.65,0,0,1,.267-.727,1.29,1.29,0,0,1,1.078.554A2.133,2.133,0,0,1,1106.011,771.536Z" transform="translate(-575.972 -413.368)" fill="#464353"/>
    <path id="Path_807" data-name="Path 807" d="M979.043,551.413a7.175,7.175,0,0,1,2.017,2.358c.494.929,3.208,8.146,3.05,9.179.89-.9,4.419-1.048,5.3-1.943.376-.376,2.407-2.254,2.709-2.689s2.566-1.369,2.813-1.814c.924-1.656-6.555-7.909-5.6-9.57a.408.408,0,0,0,.079-.257.4.4,0,0,0-.124-.2A11.907,11.907,0,0,0,987.125,545a3.462,3.462,0,0,1-1.651-1.977,7.1,7.1,0,0,0-1.913,1.3q-2.051,1.755-4.043,3.6c-.524.494-1.522,1.122-1.765,1.809S978.543,551.008,979.043,551.413Z" transform="translate(-520.015 -298.834)" fill="#a1616a"/>
    <path id="Path_808" data-name="Path 808" d="M995.241,554.61a21.667,21.667,0,0,0-3.2,2.62A6.413,6.413,0,0,0,990,560.5c-.094.494-.079,1.018-.158,1.527-.331,2.214-2.254,3.841-3.1,5.932a10.127,10.127,0,0,0-.544,1.977,23.326,23.326,0,0,0-.386,3.885c0,1.265,1.216,2.135,1.671,3.317a20.131,20.131,0,0,1,.806,3.594,43.763,43.763,0,0,0,2.021,6.673c1.671,4.612,7.084,17.365,8.754,21.982,5.116-1.285,18.739-4.236,23.267-6.92,1.512-.9-10.479-11.063-8.863-11.764a.815.815,0,0,0,.45-.341.782.782,0,0,0,0-.494c-1.611-7.064-6.668-12.852-8.957-19.772-.8-2.388-2.224-4.424-3.312-6.7-.989-2.056-1.508-4.325-2.679-6.278a4.193,4.193,0,0,0-.855-1.073,5.221,5.221,0,0,0-.949-.569C996.517,555.129,995.894,554.936,995.241,554.61Z" transform="translate(-524.108 -304.695)" fill="#514e7f"/>
    <circle id="Ellipse_133" data-name="Ellipse 133" cx="8.008" cy="8.008" r="8.008" transform="translate(451.292 235.758)" fill="#a1616a"/>
    <path id="Path_809" data-name="Path 809" d="M997.43,549.054a2.684,2.684,0,0,1,3.01-.43,1.483,1.483,0,0,1,.895,1.443l3.954.059a8.279,8.279,0,0,1,1.883.173,2.741,2.741,0,0,1,1.572.989c.049.064.1.138.183.153a.315.315,0,0,0,.183-.064,3.486,3.486,0,0,1,1.977-.356,10.688,10.688,0,0,1,5.813,2.555,1.884,1.884,0,0,1,.692.845c.138.45,0,1.028.326,1.335,0,3.732,1.28,7.207,2.135,10.84a4.8,4.8,0,0,0,1.2,1.725,6.925,6.925,0,0,1,1.285,1.918c.722,1.883-.277,4.093.43,5.986a9.628,9.628,0,0,0,1.364,2.15,5.542,5.542,0,0,1,1.161,2.778c.03.455-.03.909,0,1.369a8.357,8.357,0,0,0,.326,1.8c.286,1.092.593,2.185.909,3.272.494,1.76,1.186,3.663,2.763,4.6-3.811.647-7.825,1.275-11.458-.044a5.933,5.933,0,0,1-1.428-.717,8.229,8.229,0,0,1-2.506-4.043,19.017,19.017,0,0,1-1.4-5.22,5.97,5.97,0,0,0-.237-1.705,4.767,4.767,0,0,0-2.249-2.121,10.821,10.821,0,0,1-2.7-2.106,4.2,4.2,0,0,1-1.1-3.164c.069-.558.287-1.1.312-1.661a1.33,1.33,0,0,0-.771-1.369c-2.773-.84-4.1-4.123-4.716-6.955a22.193,22.193,0,0,1-.356-4.449l-.035-2.862a3.8,3.8,0,0,1-1.246-2.738,3.069,3.069,0,0,0,0-.9,2.536,2.536,0,0,0-.633-.989A8.357,8.357,0,0,1,997.43,549.054Z" transform="translate(-529.984 -301.527)" fill="#464353"/>
    <path id="Path_810" data-name="Path 810" d="M979.6,565.856a21.151,21.151,0,0,1-.089,2.689c-.079.336-.212.657-.311.989a5.833,5.833,0,0,0,.371,3.767,20.938,20.938,0,0,0,1.922,3.337,5.083,5.083,0,0,1,.618,1.152,5.974,5.974,0,0,1,.237,1.32,40.137,40.137,0,0,0,.944,5.309,10.426,10.426,0,0,0,1.868,4.266,1.3,1.3,0,0,0,.771.524,1.392,1.392,0,0,0,.657-.138l2.047-.776a1.429,1.429,0,0,0,.494-.257,1.241,1.241,0,0,0,.287-.8,11.767,11.767,0,0,0-.9-4.849c-1.661-4.716-3.866-9.258-4.943-14.137-.3-1.365-.46-3.46-1.453-4.523-.41-.445-.272-.257-.761,0a6.181,6.181,0,0,0-.717.381A2.349,2.349,0,0,0,979.6,565.856Z" transform="translate(-520.686 -309.169)" fill="#464353"/>
    <path id="Path_811" data-name="Path 811" d="M1059.24,627.68" transform="translate(-561.241 -341.646)" fill="#464353"/>
    <path id="Path_812" data-name="Path 812" d="M992.144,572.215q.816,4.315,1.666,8.636l7.948-2.086a5.566,5.566,0,0,0-.687-2.378c-.727-1.819-.741-3.841-1.33-5.709-.445-1.424-1.216-2.734-1.631-4.167-.242-.83-.361-1.7-.6-2.536a19.408,19.408,0,0,0-.934-2.417,15.41,15.41,0,0,0-1.735-3.218,5.069,5.069,0,0,0-2.679,1.735,3.69,3.69,0,0,0-.494,1.71c-.138,1.789.494,3.584.292,5.353a15.817,15.817,0,0,0,.183,5.076Z" transform="translate(-527.061 -306.581)" fill="#6c63ff"/>
    <path id="Path_813" data-name="Path 813" d="M1007.85,646.477c.445,1.7-.2,3.46-.726,5.151a40.007,40.007,0,0,0-1.622,7.756,6.422,6.422,0,0,1-.4,1.977,18.508,18.508,0,0,1-.964,1.582,7.925,7.925,0,0,0-.608,4.76c.114,1.068.287,2.131.494,3.183a8.023,8.023,0,0,1,.208,3.875c.628-.138,1.058.672,1.033,1.32s-.252,1.339.054,1.908c.781.282.791,1.354.766,2.18a18.378,18.378,0,0,0,.539,4.271q1.769,8.5,3.757,16.95c2.862.89,6.2,1.814,8.932.583a1.755,1.755,0,0,0,1.132-1.137,2.051,2.051,0,0,0-.109-.875l-1.3-4.706a8.663,8.663,0,0,1-.465-3.46c.129-.875.494-1.814.079-2.58a7.477,7.477,0,0,0-.544-.722c-.682-.989-.326-2.318-.267-3.524a2.761,2.761,0,0,0-.059-.806,4.228,4.228,0,0,0-.381-.885,13.507,13.507,0,0,1-1.483-6.723,1.653,1.653,0,0,0-.119-.88,2.01,2.01,0,0,1-.218-.356.954.954,0,0,1,.069-.648,5.63,5.63,0,0,1-1.043-.989,1.483,1.483,0,0,0,.247-2.284.761.761,0,0,0,.366-1.31c-.168-.119-.385-.168-.494-.336-.183-.247-.035-.6.114-.865l.791-1.429c.588-1.058.722-2.368,1.354-3.4a25.523,25.523,0,0,0,2.086-4.76l2.254-6.278,1.532,1.33a4.8,4.8,0,0,1,1.261,1.438,6.061,6.061,0,0,1,.405,1.72c.563,3.411,2.714,6.367,3.51,9.733a6.556,6.556,0,0,0,.722,2.175,4.72,4.72,0,0,1,.415.623,3.3,3.3,0,0,1,.173,1.033,4.815,4.815,0,0,0,2.031,3.46c.751.494,1.705.875,2.1,1.7a3.335,3.335,0,0,0,.346.722c.366.44,1.156.494,1.315,1.043.084.311-.079.677.1.949a.863.863,0,0,0,.371.277l2.209,1.107c2.472,1.231,3.717,4.053,5.541,6.124a12.725,12.725,0,0,1,1.656,2.195c.786,1.4,1.152,3.168,2.471,4.073a3.837,3.837,0,0,1,.959.712c.42.549.267,1.32.3,2.012s.569,1.513,1.226,1.3a4.773,4.773,0,0,0,0,2.556,12.882,12.882,0,0,0,7.81-3.164,3.082,3.082,0,0,0,1.271-2.13.824.824,0,0,0-.094-.425,1.155,1.155,0,0,0-.494-.376c-2.061-1.117-2.684-3.707-3.717-5.813a48.673,48.673,0,0,0-3.4-5.18c-2.472-3.707-4.123-8.191-7.835-10.642a5.307,5.307,0,0,1-2.17-1.908,15.215,15.215,0,0,1-.435-1.582,1.33,1.33,0,0,0-1.162-.989,7.051,7.051,0,0,0,.267-2.471,3.079,3.079,0,0,0-.123-1.063,5.026,5.026,0,0,0-.544-1.048,10.158,10.158,0,0,1-1.4-5.437,8.758,8.758,0,0,0-.094-2.921c-.148-.494-.405-.9-.588-1.364a8.5,8.5,0,0,1-.425-2.546l-.2-3.258a15.59,15.59,0,0,0-.42-3.218c-.687-2.526-1.345-13.109-3.673-14.3s-6.3,6.95-8.9,7.113a11.861,11.861,0,0,0-3.4.652,16.482,16.482,0,0,0-4.612,3.06l-4.8,4.033A17.491,17.491,0,0,1,1007.85,646.477Z" transform="translate(-533.02 -342.49)" fill="#464353"/>
    <path id="Path_814" data-name="Path 814" d="M963.622,521.854a6.041,6.041,0,0,1,4.661-2.274,10.876,10.876,0,0,1,5.151,1.3,6.641,6.641,0,0,0,1.483.618c.85.173,1.789-.059,2.556.346,1.018.539,1.211,1.913,1.122,3.06s-.3,2.4.307,3.386a9.424,9.424,0,0,1,.588.88,2.935,2.935,0,0,1-.055,1.883,15.14,15.14,0,0,1-.989-1.241,1.15,1.15,0,0,0-1.4-.366c-.435.292-.435.83-.455,1.31s-.148,1.058-.6,1.216a.989.989,0,0,1-.989-.4c-.776-.949-.465-2.472-1.231-3.421-.44-.544-1.167-.806-1.572-1.374-.316-.445-.4-1.023-.672-1.483s-.924-.835-1.359-.494a1.846,1.846,0,0,0-.361.494,2.081,2.081,0,0,1-2.471.742,4.342,4.342,0,0,0-1.073-.46,1.32,1.32,0,0,0-1.221.662,2.629,2.629,0,0,0-.321,1.414,3.29,3.29,0,0,1-.267,1.943,2,2,0,0,1-.574.494,1.7,1.7,0,0,1-1.878.193,1.414,1.414,0,0,1-.42-1.315,10.823,10.823,0,0,1,.4-1.389c.3-1.048-.089-2.229.237-3.218A10.121,10.121,0,0,1,963.622,521.854Z" transform="translate(-511.841 -286.98)" fill="#464353"/>
    <path id="Path_815" data-name="Path 815" d="M974.394,557.768a1.236,1.236,0,0,0,.074.736,1.2,1.2,0,0,0,.4.386,8.293,8.293,0,0,0,3.776,1.221,1.139,1.139,0,0,1,.494.133.934.934,0,0,1,.222,1.053,2.8,2.8,0,0,0-.237,1.117c.1.707.934,1.028,1.646,1.117a3.817,3.817,0,0,0,2.862-.554,4.417,4.417,0,0,0,1.182-1.775c1.942-4.449,2.625-9.392,4.592-13.841a2.817,2.817,0,0,0,.3-.924.919.919,0,0,0-.366-.855c-.366-.227-.934-.1-1.182-.45-.124-.183-.109-.425-.218-.613-.227-.405-.82-.356-1.231-.573-.316-.173-.539-.494-.89-.588a1.136,1.136,0,0,0-.929.4,11.944,11.944,0,0,0-2.4,4.049,48.079,48.079,0,0,1-3.46,6.381,3.687,3.687,0,0,0-1.078-2.111c-.6-.124-1.384.939-1.71,1.34A8.483,8.483,0,0,0,974.394,557.768Z" transform="translate(-518.322 -299.004)" fill="#6c63ff"/>
    <rect id="Rectangle_138" data-name="Rectangle 138" width="38.571" height="38.571" rx="19.285" transform="translate(460.115 265.09)" fill="#fff"/>
    <path id="Path_816" data-name="Path 816" d="M1057.268,626.3a15.6,15.6,0,0,0-1.829,1.918,3.82,3.82,0,0,0-.84,2.471,1.272,1.272,0,0,0,.238.722.618.618,0,0,0,.687.213.989.989,0,0,0,.336-.3,15.791,15.791,0,0,1,1.137-1.236c.148-.143.336-.3.534-.242a.564.564,0,0,1,.232.153,1.575,1.575,0,0,1,.494.747,1.771,1.771,0,0,1-.524,1.438,3.718,3.718,0,0,0-.885,1.31.556.556,0,0,0,0,.42.682.682,0,0,0,.262.227,3.816,3.816,0,0,0,3.2.208c.687-.272,1.28-.746,1.978-.989a4.739,4.739,0,0,0,.875-.326,1.8,1.8,0,0,0,.776-1.157,4.942,4.942,0,0,0,.055-1.428,16.312,16.312,0,0,0-1.192-5.388.643.643,0,0,0-.193-.287.68.68,0,0,0-.326-.094c-.865-.089-2.289-.534-3.124-.212a2.137,2.137,0,0,0-.737.657C1058.227,625.293,1057.268,626.069,1057.268,626.3Z" transform="translate(-558.894 -339.961)" fill="#a1616a"/>
    <path id="Path_817" data-name="Path 817" d="M1046.979,594.353c0-.83-1.028-2.822.6-2.966,0-.88-1.251-1.434-1.023-2.363.079-.316.331-.568.37-.885.1-.9-1.527-1.394-1.26-2.264.1-.331.46-.534.539-.87.183-.781-1.216-1.132-1.241-1.933,0-.272.148-.529.138-.8,0-.341-.3-.6-.46-.89-.42-.756-.218-1.928-.989-2.313.494.039.687-.717.47-1.181s-.643-.865-.643-1.379a2.193,2.193,0,0,0,0-.568c-.143-.494-.954-.529-1.088-1.023a5.329,5.329,0,0,1,0-.559c-.049-.385-.445-.623-.816-.736a3.243,3.243,0,0,1-1.087-.386c-.237-.183-.494-.494-.766-.321-.094.054-.143.163-.217.247-.3.351-.88.2-1.266-.064a5.234,5.234,0,0,1-1.938-3.49c-.247-1.344-.232-2.734-.529-4.068a9.313,9.313,0,0,0-.361-1.216,6.3,6.3,0,0,1-.573-1.216c-.06-.776,1.552-.247,2.165-.168a9.611,9.611,0,0,1,1.76.331,18.645,18.645,0,0,1,1.794.786c2.471,1.083,5.4,1.216,7.365,3.03a6.124,6.124,0,0,0,2.027,1.646,10.359,10.359,0,0,1,1.137.3c.934.44,1.078,1.676,1.587,2.57a5.524,5.524,0,0,1,.42.742,2.921,2.921,0,0,1,.134.949l.069,2.348a86.753,86.753,0,0,1-.187,11.784,9.719,9.719,0,0,0,.044,3.856c.1.336.242.657.326.989a6.734,6.734,0,0,1,.128,1.221l.054,1.518a.366.366,0,0,1-.484.45c-2.121-.188-4.256-1.384-6.258-.662" transform="translate(-548.901 -308.784)" fill="#464353"/>
    <path id="Path_818" data-name="Path 818" d="M979.078,613.649a.656.656,0,0,0-.237.2,1.685,1.685,0,0,0,0,2.007.678.678,0,0,1,.119.2.585.585,0,0,1-.059.336,1.112,1.112,0,0,0,.153,1.246c.153.129.361.193.46.361.173.287-.069.653-.03.989.05.44.568.657.989.712a1.053,1.053,0,0,0,.964-.257.8.8,0,0,0,0-.875,2.346,2.346,0,0,0-.653-.653.989.989,0,0,0,.934-.9,1.4,1.4,0,0,0-.563-1.231c-.089-.074-.2-.148-.222-.267s.094-.282.2-.4c.494-.494.875-1.705-.054-1.977a2.286,2.286,0,0,0-.989.044c-.237.074-.237.218-.42.316S979.286,613.545,979.078,613.649Z" transform="translate(-520.416 -334.273)" fill="#a1616a"/>
    <path id="Path_819" data-name="Path 819" d="M995.467,545.14a1.631,1.631,0,0,0-1.255.633,3.611,3.611,0,0,0-.524,1.681,14.737,14.737,0,0,1-1.977,5.368" transform="translate(-527.092 -299.906)" opacity="0.1"/>
    <path id="Path_820" data-name="Path 820" d="M999.022,547.88a1.917,1.917,0,0,0-1.641.989,5.484,5.484,0,0,0-.415,1.676,9.107,9.107,0,0,1-1.646,3.514" transform="translate(-528.917 -301.292)" opacity="0.1"/>
    <path id="Path_821" data-name="Path 821" d="M333.378,606.252c.287,3.124-2.071,6.149-1.384,9.2.148.652.43,1.27.534,1.928.282,1.814-.8,3.534-1.834,5.052l-8.868,13.02a8.443,8.443,0,0,1-1.27,1.567c-1.7,1.483-4.241,1.349-6.47,1.8a11.1,11.1,0,0,0-4.33,1.918.282.282,0,0,0-.059.39,3.732,3.732,0,0,0,3.223,1.513c.232.306,0,.756-.321.989-.494.331-1.132.415-1.226,1.226a1.325,1.325,0,0,0,.163.811,2.507,2.507,0,0,0,1.552,1.078c3.07.939,6.391-.707,8.685-2.966s3.954-5.076,6.208-7.365c1.251-1.26,2.669-2.348,3.954-3.574a45.5,45.5,0,0,0,6.49-8.4,9.328,9.328,0,0,0,1.4-2.857c.237-1.018.129-2.091.405-3.1a11.185,11.185,0,0,1,2.125-3.46,11.486,11.486,0,0,0,2.417-7.489,7.169,7.169,0,0,0-4.38-6.213,3.919,3.919,0,0,0-2.472-.153,5.967,5.967,0,0,0-2.5,1.977l-1.681,1.947a4.49,4.49,0,0,0-.989,1.483,1.557,1.557,0,0,0,.346,1.656" transform="translate(-182.174 -328.171)" fill="#fbbebe"/>
    <path id="Path_822" data-name="Path 822" d="M333.378,606.252c.287,3.124-2.071,6.149-1.384,9.2.148.652.43,1.27.534,1.928.282,1.814-.8,3.534-1.834,5.052l-8.868,13.02a8.443,8.443,0,0,1-1.27,1.567c-1.7,1.483-4.241,1.349-6.47,1.8a11.1,11.1,0,0,0-4.33,1.918.282.282,0,0,0-.059.39,3.732,3.732,0,0,0,3.223,1.513c.232.306,0,.756-.321.989-.494.331-1.132.415-1.226,1.226a1.325,1.325,0,0,0,.163.811,2.507,2.507,0,0,0,1.552,1.078c3.07.939,6.391-.707,8.685-2.966s3.954-5.076,6.208-7.365c1.251-1.26,2.669-2.348,3.954-3.574a45.5,45.5,0,0,0,6.49-8.4,9.328,9.328,0,0,0,1.4-2.857c.237-1.018.129-2.091.405-3.1a11.185,11.185,0,0,1,2.125-3.46,11.486,11.486,0,0,0,2.417-7.489,7.169,7.169,0,0,0-4.38-6.213,3.919,3.919,0,0,0-2.472-.153,5.967,5.967,0,0,0-2.5,1.977l-1.681,1.947a4.49,4.49,0,0,0-.989,1.483,1.557,1.557,0,0,0,.346,1.656" transform="translate(-182.174 -328.171)" opacity="0.05"/>
    <path id="Path_823" data-name="Path 823" d="M216.229,618.016c.494,1.562.989,3.124,1.587,4.646a39.307,39.307,0,0,0,4.108,7.494,53.937,53.937,0,0,0,3.4,4.449c1.513,1.784,3.2,3.579,3.737,5.858a29.672,29.672,0,0,1,.336,4.038,4.931,4.931,0,0,0,1.656,3.579,6.153,6.153,0,0,0,2.729.9c.682.109,1.537.143,1.893-.45a1.686,1.686,0,0,0,.188-.781l.168-1.977c.035-.425.183-.989.608-.989s.643.549.989.8a1.073,1.073,0,0,0,1.483-.494,2.471,2.471,0,0,0,.04-1.73,8.215,8.215,0,0,0-4.216-5.225,12.685,12.685,0,0,1-2.056-1.073,6.994,6.994,0,0,1-1.616-2.037c-3.737-6.154-7.494-12.358-10.133-19.036a14.081,14.081,0,0,1-1.043-3.752,24.216,24.216,0,0,1,.163-3.954,22.633,22.633,0,0,0-.653-7.059,5.549,5.549,0,0,0-.677-1.715,3.838,3.838,0,0,0-5.25-.756,5.408,5.408,0,0,0-2.086,3.816c-.119,1.33.652,2.719,1.043,3.954Q214.435,612.267,216.229,618.016Z" transform="translate(-132.577 -326.663)" fill="#a1616a"/>
    <g id="star" transform="translate(97.624 304.211) rotate(-8)">
      <path id="Path_902" data-name="Path 902" d="M36.683,12.943,24.514,11.814,19.68.589a.975.975,0,0,0-1.791,0L13.055,11.814.886,12.943a.975.975,0,0,0-.554,1.7l9.182,8.066L6.827,34.634a.975.975,0,0,0,1.449,1.053l10.508-6.24,10.508,6.24a.975.975,0,0,0,1.449-1.053L28.055,22.712l9.182-8.066A.975.975,0,0,0,36.683,12.943Z" transform="translate(0 0)" fill="#ffdc64"/>
      <path id="Path_903" data-name="Path 903" d="M19.68.589a.975.975,0,0,0-1.791,0L13.055,11.814.886,12.943a.975.975,0,0,0-.554,1.7l9.182,8.066L6.827,34.634a.975.975,0,0,0,1.449,1.053l2.345-1.393A43.009,43.009,0,0,1,22.071,6.139Z" transform="translate(0 0)" fill="#ffc850"/>
    </g>
    <path id="Path_824" data-name="Path 824" d="M216.229,618.016c.494,1.562.989,3.124,1.587,4.646a39.307,39.307,0,0,0,4.108,7.494,53.937,53.937,0,0,0,3.4,4.449c1.513,1.784,3.2,3.579,3.737,5.858a29.672,29.672,0,0,1,.336,4.038,4.931,4.931,0,0,0,1.656,3.579,6.153,6.153,0,0,0,2.729.9c.682.109,1.537.143,1.893-.45a1.686,1.686,0,0,0,.188-.781l.168-1.977c.035-.425.183-.989.608-.989s.643.549.989.8a1.073,1.073,0,0,0,1.483-.494,2.471,2.471,0,0,0,.04-1.73,8.215,8.215,0,0,0-4.216-5.225,12.685,12.685,0,0,1-2.056-1.073,6.994,6.994,0,0,1-1.616-2.037c-3.737-6.154-7.494-12.358-10.133-19.036a14.081,14.081,0,0,1-1.043-3.752,24.216,24.216,0,0,1,.163-3.954,22.633,22.633,0,0,0-.653-7.059,5.549,5.549,0,0,0-.677-1.715,3.838,3.838,0,0,0-5.25-.756,5.408,5.408,0,0,0-2.086,3.816c-.119,1.33.652,2.719,1.043,3.954Q214.435,612.267,216.229,618.016Z" transform="translate(-132.577 -326.663)" opacity="0.05"/>
    <path id="Path_825" data-name="Path 825" d="M364.818,753.5a10.356,10.356,0,0,1-6.6.989c-.361-.044-.791-.074-1.023.208-.336.405.059.989.47,1.335a9.828,9.828,0,0,0,4.538,1.863,30.956,30.956,0,0,0,4.449.3,75.206,75.206,0,0,0,12.125-.45,1.608,1.608,0,0,0,.662-.193,1.256,1.256,0,0,0,.494-.761,3.03,3.03,0,0,0-1.058-2.887,8.893,8.893,0,0,0-2.828-1.518l-3.519-1.369c-.826-.321-2.155-1.176-3.05-1.107C367.813,750.015,366.217,752.679,364.818,753.5Z" transform="translate(-206.155 -403.453)" fill="#3f3d56"/>
    <path id="Path_826" data-name="Path 826" d="M383.242,769.068a8.645,8.645,0,0,1-5.907,2.2c-.554,0-1.325.1-1.325.657a.871.871,0,0,0,.158.46,5.438,5.438,0,0,0,3.055,2.392,10.871,10.871,0,0,0,3.688.232l3.608-.188c.682-.035,1.369-.069,2.046-.153s1.414-.222,2.121-.331a28.292,28.292,0,0,1,5.254-.247,1.528,1.528,0,0,0,1.3-.346c.321-.405.134-.989.03-1.483-.218-1.043,0-2.14-.2-3.193a5.614,5.614,0,0,0-3.683-3.92c-1.621-.618-4.5-1.325-6.036-.3C385.693,765.949,384.7,767.748,383.242,769.068Z" transform="translate(-215.736 -410.752)" fill="#3f3d56"/>
    <path id="Path_827" data-name="Path 827" d="M373.488,659c-1.483,1.953-2.966,4.207-2.62,6.619a14.921,14.921,0,0,0,1.458,3.653,25.75,25.75,0,0,1,1.483,5.131c.549,2.556,1.1,5.116,1.438,7.706a48.136,48.136,0,0,1,.321,8.848,2.985,2.985,0,0,1-.618,1.977c-.2.2-.455.361-.539.628a1.063,1.063,0,0,0,.114.741,8.211,8.211,0,0,0,4.4,4.048,16.854,16.854,0,0,0,5.981,1.117,1.68,1.68,0,0,0,.8-.1,1.542,1.542,0,0,0,.618-.707c1.483-2.818.657-6.219.682-9.392,0-2.654.643-5.284.529-7.939-.094-2.126-.662-4.2-.87-6.322A37.417,37.417,0,0,1,387.6,664.6c.494-2.63.989-5.265,1.606-7.869a15.005,15.005,0,0,1,1.7-4.567c.692-1.092,1.631-2.007,2.422-3.035a13.777,13.777,0,0,0,2.709-10.069c-.049-.356-5.091,1.275-5.526,1.483a17.132,17.132,0,0,0-4.943,3.168,40.931,40.931,0,0,0-3.1,3.836q-2.165,2.635-4.261,5.3Q375.811,655.9,373.488,659Z" transform="translate(-213.11 -347.374)" fill="#464353"/>
    <path id="Path_828" data-name="Path 828" d="M373.488,659c-1.483,1.953-2.966,4.207-2.62,6.619a14.921,14.921,0,0,0,1.458,3.653,25.75,25.75,0,0,1,1.483,5.131c.549,2.556,1.1,5.116,1.438,7.706a48.136,48.136,0,0,1,.321,8.848,2.985,2.985,0,0,1-.618,1.977c-.2.2-.455.361-.539.628a1.063,1.063,0,0,0,.114.741,8.211,8.211,0,0,0,4.4,4.048,16.854,16.854,0,0,0,5.981,1.117,1.68,1.68,0,0,0,.8-.1,1.542,1.542,0,0,0,.618-.707c1.483-2.818.657-6.219.682-9.392,0-2.654.643-5.284.529-7.939-.094-2.126-.662-4.2-.87-6.322A37.417,37.417,0,0,1,387.6,664.6c.494-2.63.989-5.265,1.606-7.869a15.005,15.005,0,0,1,1.7-4.567c.692-1.092,1.631-2.007,2.422-3.035a13.777,13.777,0,0,0,2.709-10.069c-.049-.356-5.091,1.275-5.526,1.483a17.132,17.132,0,0,0-4.943,3.168,40.931,40.931,0,0,0-3.1,3.836q-2.165,2.635-4.261,5.3Q375.811,655.9,373.488,659Z" transform="translate(-213.11 -347.374)" opacity="0.05"/>
    <path id="Path_829" data-name="Path 829" d="M390.47,641.37c.316,1.512,1.784,2.669,1.824,4.216.035,1.236-.845,2.274-1.483,3.337a22.386,22.386,0,0,0-1.512,3.43,52.3,52.3,0,0,1-4.449,8.833c-.845,1.345-1.794,2.8-1.6,4.38a6.462,6.462,0,0,0,.766,2.091l2.541,5.047a14.481,14.481,0,0,1,1.295,3.188c.223.959.242,1.977.371,2.926.4,3.094,1.849,6.209.989,9.209-.074.257-.346.568-.549.39a9.616,9.616,0,0,1,1.448,4.943,6.88,6.88,0,0,0,.03,2.773,3.028,3.028,0,0,1,.386,1.058c0,.252-.119.494-.143.746a1.653,1.653,0,0,0,1.265,1.537c.682.227,1.424.212,2.111.415,1.325.4,2.264,1.532,3.4,2.323a7.144,7.144,0,0,0,3.9,1.27.989.989,0,0,0,.573-.114.939.939,0,0,0,.321-.7,3.876,3.876,0,0,0-1.4-3.366,1.558,1.558,0,0,1-.494-.544,1.319,1.319,0,0,1-.049-.608,45.09,45.09,0,0,0-.148-8.329,12.849,12.849,0,0,1-.128-2.649,10.838,10.838,0,0,0,.212-2.209,11.283,11.283,0,0,0-.677-2.111,14.8,14.8,0,0,1-.321-3.954,34.652,34.652,0,0,0-1.117-6.767,5.136,5.136,0,0,0-1.053-2.442c-.529-.554-1.384-1.078-1.181-1.814a2.1,2.1,0,0,1,.494-.722,2.9,2.9,0,0,0,.608-2.21.989.989,0,0,0,1.137-.534,17.794,17.794,0,0,0,8.937-10.163,3.3,3.3,0,0,1,.4-.9,4.122,4.122,0,0,1,1.636-1.063,12.407,12.407,0,0,0,4.3-4.38,10.187,10.187,0,0,0,1.661-3.178,10.471,10.471,0,0,0,.227-2.294l.1-3.955a2.268,2.268,0,0,0-.074-.776,1.978,1.978,0,0,0-.43-.633,7.676,7.676,0,0,0-4.221-2.274c-1.083-.193-2.19-.158-3.287-.247-2.126-.178-4.226-.835-6.357-.682a10.226,10.226,0,0,0-7.909,5.521C392.239,640.446,391.656,641.335,390.47,641.37Z" transform="translate(-219.385 -344.763)" fill="#464353"/>
    <path id="Path_830" data-name="Path 830" d="M172.724,759.733a5.38,5.38,0,0,0,2.274.272c.054-.628.9-.766,1.527-.737a1.756,1.756,0,0,1,.9.2c.158.1.277.247.43.351a1.849,1.849,0,0,0,.89.227l3.272.277a9.8,9.8,0,0,0,4.34-.287,1.419,1.419,0,0,0,.7-.465c.371-.529,0-1.29-.494-1.676s-1.171-.563-1.686-.959c-1.137-.865-1.29-2.471-1.893-3.776a10.9,10.9,0,0,0-1.562-2.269,8.688,8.688,0,0,0-1.547-1.582c-1.31-.949-2.822-.929-4.36-1.063-1.087-.1-2.111-.163-2.892.8-.964,1.2-.578,3.608-.519,5.037A36.053,36.053,0,0,0,172.724,759.733Z" transform="translate(-112.557 -402.588)" fill="#514e7f"/>
    <path id="Path_831" data-name="Path 831" d="M172.724,759.733a5.38,5.38,0,0,0,2.274.272c.054-.628.9-.766,1.527-.737a1.756,1.756,0,0,1,.9.2c.158.1.277.247.43.351a1.849,1.849,0,0,0,.89.227l3.272.277a9.8,9.8,0,0,0,4.34-.287,1.419,1.419,0,0,0,.7-.465c.371-.529,0-1.29-.494-1.676s-1.171-.563-1.686-.959c-1.137-.865-1.29-2.471-1.893-3.776a10.9,10.9,0,0,0-1.562-2.269,8.688,8.688,0,0,0-1.547-1.582c-1.31-.949-2.822-.929-4.36-1.063-1.087-.1-2.111-.163-2.892.8-.964,1.2-.578,3.608-.519,5.037A36.053,36.053,0,0,0,172.724,759.733Z" transform="translate(-112.557 -402.588)" opacity="0.05"/>
    <path id="Path_832" data-name="Path 832" d="M168.324,640.149a2.291,2.291,0,0,0-1.251,2.605,9.356,9.356,0,0,0,1.32,2.842c1.453,2.6,2.086,5.586,3.307,8.3.914,2.032,2.15,3.91,3.055,5.932a9.98,9.98,0,0,1,.914,6.5c-.267,1.053-.781,2.022-1.127,3.05a17.3,17.3,0,0,0-.662,3.46,65.585,65.585,0,0,0-.237,11.943,3.627,3.627,0,0,0,.3,1.414c.2.4.559.811.386,1.221-.069.163-.217.282-.292.445-.208.455.213.929.593,1.251a1.023,1.023,0,0,1-.643.494,1.518,1.518,0,0,1,.648,1.691c-.341.049-.361.568-.143.84s.549.445.7.751a1.053,1.053,0,0,1-.578,1.325,2.709,2.709,0,0,1-1.577.119,17.111,17.111,0,0,1-2.64-.578,2.372,2.372,0,0,1-.811-.371,2.407,2.407,0,0,1-.727-1.6,28.942,28.942,0,0,1-.183-4.943c.143-7.988,0-15.986-.346-23.969a27.446,27.446,0,0,0-2.353-9.313,47.767,47.767,0,0,0-2.294-4.449c-1.789-3.292-3.381-6.92-2.966-10.652.044-.4.193-.885.588-.949a.854.854,0,0,1,.455.074,21,21,0,0,1,2.4,1.325,9.086,9.086,0,0,0,4.162,1.246Z" transform="translate(-106.833 -346.612)" fill="#464353"/>
    <path id="Path_833" data-name="Path 833" d="M168.324,640.149a2.291,2.291,0,0,0-1.251,2.605,9.356,9.356,0,0,0,1.32,2.842c1.453,2.6,2.086,5.586,3.307,8.3.914,2.032,2.15,3.91,3.055,5.932a9.98,9.98,0,0,1,.914,6.5c-.267,1.053-.781,2.022-1.127,3.05a17.3,17.3,0,0,0-.662,3.46,65.585,65.585,0,0,0-.237,11.943,3.627,3.627,0,0,0,.3,1.414c.2.4.559.811.386,1.221-.069.163-.217.282-.292.445-.208.455.213.929.593,1.251a1.023,1.023,0,0,1-.643.494,1.518,1.518,0,0,1,.648,1.691c-.341.049-.361.568-.143.84s.549.445.7.751a1.053,1.053,0,0,1-.578,1.325,2.709,2.709,0,0,1-1.577.119,17.111,17.111,0,0,1-2.64-.578,2.372,2.372,0,0,1-.811-.371,2.407,2.407,0,0,1-.727-1.6,28.942,28.942,0,0,1-.183-4.943c.143-7.988,0-15.986-.346-23.969a27.446,27.446,0,0,0-2.353-9.313,47.767,47.767,0,0,0-2.294-4.449c-1.789-3.292-3.381-6.92-2.966-10.652.044-.4.193-.885.588-.949a.854.854,0,0,1,.455.074,21,21,0,0,1,2.4,1.325,9.086,9.086,0,0,0,4.162,1.246Z" transform="translate(-106.833 -346.612)" opacity="0.05"/>
    <path id="Path_834" data-name="Path 834" d="M140.426,622.649a2.635,2.635,0,0,0-3.633.39,19.861,19.861,0,0,0-1.878,1.651,10.049,10.049,0,0,0-2.244,9.941,19.864,19.864,0,0,0,2.748,4.874l2.175,3.124c3.317,4.765,6.639,9.53,10.113,14.182a.534.534,0,0,0,.376.494c.129.034.282.03.361.133a.385.385,0,0,1,.044.212,3.226,3.226,0,0,1-.193.989.46.46,0,0,0-.04.341c.109.262.588.114.737.361a.393.393,0,0,1-.158.494.572.572,0,0,0-.272.494c.025.2.356.39.341.638,0,.138-.119.242-.2.351a.9.9,0,0,0,.109,1.142c.227,2.274-.989,4.424-1.251,6.7-.39,3.574,1.226,7.064,1.424,10.652a2.852,2.852,0,0,0,.222,1.177c.336.618,1.2.989,1.167,1.7a6.469,6.469,0,0,1-.242.855,6.88,6.88,0,0,0,.129,1.221c0,.41-.346.9-.727.742q.43,1.424.761,2.872L157.9,689a6.836,6.836,0,0,0-.069-2.056c-.158-.732-.494-1.419-.662-2.15a2.536,2.536,0,0,1,.3-2.15.84.84,0,0,1-.84-.692,3.39,3.39,0,0,1,0-1.181c.2-1.977-.633-3.954-.608-5.932a28.578,28.578,0,0,1,.855-4.622c.593-3.3-.025-6.886,1.443-9.886.89-1.819,2.121-3.836,1.122-5.6-.494-.87-1.359-1.483-1.923-2.284a9.279,9.279,0,0,1-1.033-2.471,83.489,83.489,0,0,0-4.735-10.44,10.985,10.985,0,0,1-1.018-2.743,13.952,13.952,0,0,1-.124-2.531,38.783,38.783,0,0,0-.282-4.547,3.315,3.315,0,0,0-1.74-2.966C146.1,625.051,143.12,624.067,140.426,622.649Z" transform="translate(-92.439 -338.824)" fill="#464353"/>
    <path id="Path_835" data-name="Path 835" d="M166.5,765.378a5.383,5.383,0,0,0,2.274.272c.059-.628.9-.766,1.527-.736a1.753,1.753,0,0,1,.875.2c.158.1.277.247.435.351a1.819,1.819,0,0,0,.89.227l3.267.277a9.826,9.826,0,0,0,4.345-.287,1.43,1.43,0,0,0,.692-.465c.371-.529,0-1.29-.494-1.676s-1.172-.563-1.691-.959c-1.132-.865-1.29-2.472-1.893-3.777a10.9,10.9,0,0,0-1.562-2.269,8.663,8.663,0,0,0-1.542-1.582c-1.315-.949-2.823-.929-4.36-1.063-1.092-.1-2.116-.163-2.892.8-.989,1.2-.583,3.608-.524,5.037a36.729,36.729,0,0,0,.653,5.645Z" transform="translate(-109.39 -405.445)" fill="#514e7f"/>
    <circle id="Ellipse_134" data-name="Ellipse 134" cx="7.538" cy="7.538" r="7.538" transform="translate(83.301 255.57)" fill="#a1616a"/>
    <path id="Path_836" data-name="Path 836" d="M206.276,584.331c-1.083.934-2.63.989-4.048,1.147a25.3,25.3,0,0,0-8.71,2.521,3.11,3.11,0,0,0-.989.692,2.853,2.853,0,0,0-.494,1.078,7.129,7.129,0,0,0-.287,2.62,7.552,7.552,0,0,0,.727,2.471,13.267,13.267,0,0,0,4.676,5.329,3.4,3.4,0,0,0,1.137.544c.989.208,1.953-.371,2.926-.628a4.8,4.8,0,0,1,2.7.089c.821.272,1.686.771,2.472.44a2.58,2.58,0,0,0,1.127-1.28,43.441,43.441,0,0,0,2.056-4.5,17.063,17.063,0,0,1,.746-1.75c.875-1.666,2.387-2.966,3.139-4.676a1.028,1.028,0,0,0,.069-.88,1.22,1.22,0,0,0-.554-.425,13.213,13.213,0,0,1-3.01-2.363c-.494-.494-1.409-1.76-2.121-1.873C207.062,582.779,206.82,583.866,206.276,584.331Z" transform="translate(-122.546 -318.989)" fill="#a1616a"/>
    <path id="Path_837" data-name="Path 837" d="M184.022,604.989a4.5,4.5,0,0,1-2.852.035A31.482,31.482,0,0,1,174,602.938a3.836,3.836,0,0,1-1.76-1.35,4.315,4.315,0,0,1-.494-1.69l-.415-2.8a17,17,0,0,1,.129-2.877.84.84,0,0,0-.163-.628.677.677,0,0,0-.494-.153c-1.132,0-1.814,1.2-2.61,2.007a4.821,4.821,0,0,1-1.6,1.078c-.727.3-1.621.494-1.913,1.231-.124.3-.109.647-.232.949-.494,1.206-2.669.806-3.218,1.977-.158.336-.148.761-.41,1.028s-.741.257-1.137.326c-1.572.257-2.338,2.076-3.683,2.931-1.132.722-2.59.707-3.806,1.27a14.556,14.556,0,0,1-1.977.989,9.341,9.341,0,0,1-2.294.114.617.617,0,0,0-.46.148.633.633,0,0,0-.074.494,13.875,13.875,0,0,0,8.576,10.741,3.031,3.031,0,0,1,.732.351c.687.494.806,1.616,1.582,1.977a1.636,1.636,0,0,0,1.651-.356,14.358,14.358,0,0,0,1.191-1.315,4.745,4.745,0,0,1,2.654-1.394c.934-.148,1.977-.04,2.734-.613a8.393,8.393,0,0,0,.86-.919,5.4,5.4,0,0,1,1.977-1.167,19.773,19.773,0,0,1,6.179-1.3c1.977-.114,4.029.069,5.9-.578a3.461,3.461,0,0,0,1.315-.741,3.955,3.955,0,0,0,.88-1.528A11.66,11.66,0,0,0,184.022,604.989Z" transform="translate(-100.113 -324.328)" fill="#514e7f"/>
    <path id="Path_838" data-name="Path 838" d="M197.547,594.173c.559-.049,1.117,0,1.676,0,.657,0,1.3-.158,1.977-.163a4.874,4.874,0,0,1,4.6,3.5.889.889,0,0,1,.03.494.351.351,0,0,1-.381.257,8.35,8.35,0,0,0-.845-1.7,4.8,4.8,0,0,0-2.531-1.76,6.569,6.569,0,0,0-3.114-.114c-.425.079-.845.193-1.265.311l-2.051.554c-.371.1-.741.2-1.1.336-.277.1-.756.494-1.028.494-.371,0-.069-.321.094-.539a2.64,2.64,0,0,1,1.315-.954A11.07,11.07,0,0,1,197.547,594.173Z" transform="translate(-123.357 -324.619)" fill="#514e7f"/>
    <path id="Path_839" data-name="Path 839" d="M207.4,619.711c.494,1.562.989,3.124,1.587,4.646a39.319,39.319,0,0,0,4.113,7.494,53.989,53.989,0,0,0,3.4,4.449c1.513,1.784,3.2,3.579,3.737,5.857a29.675,29.675,0,0,1,.336,4.039,4.931,4.931,0,0,0,1.656,3.579,6.154,6.154,0,0,0,2.729.9c.682.109,1.537.143,1.893-.45a1.685,1.685,0,0,0,.188-.781l.163-1.977c.04-.425.188-.989.613-.989s.643.549.989.8a1.073,1.073,0,0,0,1.483-.494,2.506,2.506,0,0,0,.04-1.73,8.215,8.215,0,0,0-4.207-5.23,12.671,12.671,0,0,1-2.056-1.073,6.921,6.921,0,0,1-1.616-2.037c-3.742-6.154-7.5-12.358-10.133-19.036a14.084,14.084,0,0,1-1.043-3.752,24.219,24.219,0,0,1,.163-3.954,22.635,22.635,0,0,0-.638-7.069,5.552,5.552,0,0,0-.677-1.715,3.838,3.838,0,0,0-5.249-.756,5.408,5.408,0,0,0-2.086,3.816c-.119,1.33.652,2.719,1.043,3.955Q205.61,613.962,207.4,619.711Z" transform="translate(-128.127 -327.513)" fill="#a1616a"/>
    <path id="Path_840" data-name="Path 840" d="M230.468,563.932c.059-.628-.494-1.2-1.142-1.6a15.931,15.931,0,0,1-1.938-1.186c-.573-.494-.885-1.142-1.458-1.636a6.427,6.427,0,0,0-2.175-1.083,16.512,16.512,0,0,0-5.2-.934,9.158,9.158,0,0,0-4.978,1.315,2.967,2.967,0,0,0-.845.786,3.46,3.46,0,0,0-.41,1.251,24.716,24.716,0,0,1-1.3,3.954,9.175,9.175,0,0,1-2.472,3.994c-1.409,1.176-3.569,1.854-4.5,3.272a1.062,1.062,0,0,0-.2.914c.133.356.564.6.954.826a12.954,12.954,0,0,1,5.279,5.052,5.858,5.858,0,0,1-.465,6.3c-.529.692-1.26,1.513-.741,2.21.786,1.058,3.5.455,4.123,1.572a2.235,2.235,0,0,1,.084,1.157c0,1.172,1.132,2.219,2.506,2.758a13.972,13.972,0,0,0,4.508.741,3.9,3.9,0,0,0,.114-2.916,1.166,1.166,0,0,1-.114-.662,1.591,1.591,0,0,1,.494-.638c1.656-1.562,1.3-3.861.311-5.714s-2.536-3.554-3.109-5.507a2.8,2.8,0,0,1,.494-2.867,9.981,9.981,0,0,1,1.419-1.038,5.392,5.392,0,0,0,1.977-2.471c.46-1.285.391-2.832,1.745-3.683s3.109-.573,4.538-1.122A4.863,4.863,0,0,0,230.468,563.932Z" transform="translate(-128.66 -306.153)" fill="#464353"/>
    <circle id="Ellipse_135" data-name="Ellipse 135" cx="8.22" cy="8.22" r="8.22" transform="translate(135.855 252.223)" fill="#fbbebe"/>
    <path id="Path_841" data-name="Path 841" d="M350.176,573.6a10.657,10.657,0,0,0,6.821,4.77l-.618,2.244c-1.068,3.866-2.274,7.958-5.259,10.637a4.972,4.972,0,0,0-.835-3.846,14.565,14.565,0,0,0-2.788-2.917l-4.73-4.118a1.288,1.288,0,0,1-.356-.4,1.206,1.206,0,0,1,0-.9c.6-1.878,2.323-3.05,3.717-4.315a13.111,13.111,0,0,0,1.873-2.18C348.97,571.244,349.578,572.594,350.176,573.6Z" transform="translate(-198.701 -313.499)" fill="#fbbebe"/>
    <path id="Path_842" data-name="Path 842" d="M356.558,587.741a4.447,4.447,0,0,1-.242,1.814,1.275,1.275,0,0,1-1.483.761c.173-.391-.282-.835-.707-.786a1.33,1.33,0,0,0-.939.8,2.965,2.965,0,0,0-.272,1.839,7.524,7.524,0,0,1,.465,2.308c-.094.648-.573,1.3-.316,1.9a3.055,3.055,0,0,0,.613.732,2.076,2.076,0,0,1-.222,2.847l6.426.124a4.508,4.508,0,0,0,.8,3.119,19.639,19.639,0,0,0,14.641,9.56,1.275,1.275,0,0,0-.306,1.948,1.8,1.8,0,0,0,2.056.118,15.6,15.6,0,0,0,1.765-1.32,5.392,5.392,0,0,1,3.618-.989c.806.074,1.582.331,2.387.376,2.373.129,4.414-1.582,6.683-2.279,1.666-.494,3.549-.494,4.943-1.552a1.96,1.96,0,0,0,.919-1.908,3.109,3.109,0,0,0-.692-1.117,19.9,19.9,0,0,1-1.854-3.46,20.658,20.658,0,0,0-4.632-6.2,40.891,40.891,0,0,0-4.587-3.485,7.778,7.778,0,0,0-1.246-.746,12.758,12.758,0,0,1-1.7-.692,9.487,9.487,0,0,1-1.765-1.977c-1.27-1.483-3.223-2.16-4.79-3.327a11.478,11.478,0,0,0-3.228-2.19c-.608-.183-1.26-.2-1.868-.381-1.384-.42-2.392-1.651-3.752-2.145a15.2,15.2,0,0,0-3.4-.435,7.908,7.908,0,0,1-3.49-1.32,4.2,4.2,0,0,0-1.127-.662c-1.715-.494-1.854,2.679-2.017,3.786A31.747,31.747,0,0,0,356.558,587.741Z" transform="translate(-204.035 -317.011)" fill="#3f3d56"/>
    <path id="Path_843" data-name="Path 843" d="M339.413,613.09c.287,3.119-2.071,6.144-1.384,9.2.148.652.425,1.27.529,1.928.287,1.814-.8,3.529-1.829,5.047l-8.9,13.02a7.915,7.915,0,0,1-1.265,1.567c-1.7,1.508-4.241,1.35-6.47,1.8a11.076,11.076,0,0,0-4.335,1.918.282.282,0,0,0-.054.386,3.718,3.718,0,0,0,3.223,1.513c.232.306,0,.761-.321.989-.494.331-1.132.42-1.226,1.226a1.373,1.373,0,0,0,.158.815,2.53,2.53,0,0,0,1.557,1.078c3.07.939,6.387-.712,8.685-2.966s3.954-5.076,6.208-7.365c1.251-1.265,2.669-2.348,3.954-3.574a46.731,46.731,0,0,0,6.49-8.4,9.352,9.352,0,0,0,1.4-2.862c.237-1.013.129-2.091.405-3.094a10.985,10.985,0,0,1,2.126-3.46,11.5,11.5,0,0,0,2.417-7.494,7.178,7.178,0,0,0-4.379-6.213,3.92,3.92,0,0,0-2.472-.148,5.891,5.891,0,0,0-2.5,1.977l-1.686,1.948a4.628,4.628,0,0,0-.989,1.483,1.557,1.557,0,0,0,.346,1.656" transform="translate(-185.214 -331.628)" fill="#fbbebe"/>
    <path id="Path_844" data-name="Path 844" d="M366.93,592.391a4.975,4.975,0,0,0-3.277.989,4.582,4.582,0,0,0-.821,1.3,12.793,12.793,0,0,0-1.636,5.146,23.2,23.2,0,0,0,.593,4.3,16.4,16.4,0,0,1-.371,3.613,24.682,24.682,0,0,0,4.666-1.794,15.6,15.6,0,0,1,2.733-1.419c1.389-.465,3.732.331,5.047.989.074-.929-.623-2.546-.549-3.46a3.794,3.794,0,0,1,.208-1.152,6.876,6.876,0,0,1,.7-1.112,4.553,4.553,0,0,0-.41-5.343,7.369,7.369,0,0,0-4.765-2.022,20.833,20.833,0,0,0-3.332-.114" transform="translate(-208.243 -323.747)" fill="#3f3d56"/>
    <path id="Path_845" data-name="Path 845" d="M319.226,552.436l-.188-1.547c1.3.331,2.531-.766,3.361-1.908s1.6-2.471,2.857-2.966c1.537-.578,3.164.346,4.632,1.107a14.5,14.5,0,0,0,5.314,1.76,3.754,3.754,0,0,1,.88.143c.954.341,1.409,1.537,1.547,2.625a10.3,10.3,0,0,0,.568,3.213c.361.732.989,1.28,1.345,1.977.989,1.943.035,4.6,1.1,6.51L338,560.938c-.242-.222-.583-.455-.845-.267s-.227.494-.316.727a1.379,1.379,0,0,1-1.873.682,5.135,5.135,0,0,1-1.676-1.532,10.242,10.242,0,0,0-4.182-3.169,5.344,5.344,0,0,0-4.424.262c-1.231.7-2.13,2.313-3.638,2.368-2.066.079-2.926-3.767-3.88-5.284a1.873,1.873,0,0,0,.544-2.333C317.857,552.342,319.2,552.2,319.226,552.436Z" transform="translate(-185.981 -300.257)" fill="#464353"/>
    <path id="Path_854" data-name="Path 854" d="M698.552,693.7c-.4-1.7-.643-3.178-.643-3.178a6.583,6.583,0,0,0-.737-3.228v-.465h0v-3.411a11.276,11.276,0,0,1,.86-1.784c.613-1.068,0-4.993,0-4.993s-2.274-5.531-1.725-9.041-4.666-15.585-4.666-15.585a15.4,15.4,0,0,1,.494-3.46,2.5,2.5,0,0,0,.064-.722.528.528,0,0,0,0-.089v.03c-.079-2.313-1.908-6.653-1.908-6.653l.247-8.265a24.342,24.342,0,0,0-.737-11.423c-.667-2.284-1.092-4.108-1.364-5.521-.03-.158-.059-.311-.084-.46,3.92-.6,6.92-1.1,6.92-1.1s-2.274-9.515-3.811-11.181-2.763-6.9-2.763-6.9-.8-6.722.494-8.685a13.069,13.069,0,0,0,1.483-5.353s2.966-2.14,3.317-3.094a15.675,15.675,0,0,0,.989-4.221c0-1.132-.371-2.14-.247-2.738s-.86-2.852-.366-3.925a2.871,2.871,0,0,0,.193-1.033.064.064,0,0,0,0-.03h0a14.687,14.687,0,0,0-.262-2.793,7.909,7.909,0,0,0-2.916-1.562l-.064-.252-.168-.667a2.219,2.219,0,0,0-.292-.173v-1.236l.46-2.175c.91-3.772-4.132-4.335-4.132-4.335a2.659,2.659,0,0,0-1.429-1.256c-.989-.356-.168,5.685.307,6.07a19.67,19.67,0,0,1,1.977,3.114h0l.089.153a1.99,1.99,0,0,0-.232.242l.193,1.31.03.2a5.381,5.381,0,0,0-.806,1.369,2.922,2.922,0,0,1,.737,2.145,6.721,6.721,0,0,0,.306,2.615c-.054-.064-.7-.766-1.349-.593s-2.472.712-2.472.712-1.354.237-1.231.534-.919,1.606-.919,1.606l-3.633-3.46c-.04-.1-.074-.208-.109-.311a8.293,8.293,0,0,1-.311-1.483,8.07,8.07,0,0,0,1.156-.371,2.5,2.5,0,0,0,.989-.643,3.925,3.925,0,0,0,.583-1.567,21.754,21.754,0,0,1,1.349-3.005,9.777,9.777,0,0,0,.7-5.363,3.571,3.571,0,0,0-.553-1.582c-.593-.816-1.671-1.147-2.472-1.8s-1.285-1.641-2.2-2.13a4.335,4.335,0,0,0-2.758-.237,14.741,14.741,0,0,0-5.146,1.869,2.647,2.647,0,0,1-1.725.568,2.328,2.328,0,0,1-1.241-.91.225.225,0,0,1,0-.054l-.045-.044a6.508,6.508,0,0,0-.563,2.719v.583a1.159,1.159,0,0,1,0,.129h0a.871.871,0,0,1-.03.193,1.4,1.4,0,0,1-.336.494,2.193,2.193,0,0,0-.3.405.436.436,0,0,1,.049-.148,2.146,2.146,0,0,0-.381,1.142,1.137,1.137,0,0,0,.277.82,3.955,3.955,0,0,0,.588.494,6.924,6.924,0,0,0-.1,1.206,7.029,7.029,0,0,0,3.421,6l.124.311a8.645,8.645,0,0,1,.657,3.954.665.665,0,0,1-.045.292l-.128.148h0s-6,.059-7.415-1.221-3.564,3.124-3.564,3.124-2.15.42-2.58,0-2.966-.059-2.966-.059a5.437,5.437,0,0,0-3.747-1.364,11.012,11.012,0,0,0-2.753-1.532h0l-.069-.025h0a3.073,3.073,0,0,0-1.354-.168,26.739,26.739,0,0,1-3.806-3.747c-.84-1.3-4.943-6.164-4.978-6.189v-.232l-.049-.707a2.744,2.744,0,0,1-.366.035.859.859,0,0,0-.084-.247,13.335,13.335,0,0,0-.87-1.977s0-.89.262-1.112-.109-3.495-.109-3.495-2.659-6.213-5.037-1.577c0,0-4.5,3-.727,6.5,0,0,1.483.727,1.72,1.305.143.376.652,1.428.989,2.125l.153.311-.044.035.059.583v.227c-.712.4-1.191.8-1.078,1.107a6.505,6.505,0,0,1,.43,1.606s5.225,6.54,5.9,9.337c0,0,14.009,8.324,18.616,8.922l-.8,4.162a32.931,32.931,0,0,0-.183,3.391c.059.89-.554,4.943-.554,4.943s-.8,5.932-1.483,6.777-.554,4.4-.554,4.4a29.705,29.705,0,0,1-.919,5.052,12.838,12.838,0,0,0-.183,5.057s-2.338,5.353,3.257,1.725c0,0,2.743-.168,5.932-.277v1.626c-.04,3.065-.059,7.291.079,10.489.247,5.65,1.977,16.806,1.977,16.806v5.615a7.85,7.85,0,0,0-.158,1.607,10.408,10.408,0,0,0,1.512,5.625l.43,3.747a15.522,15.522,0,0,1,1.028,3.954,1.946,1.946,0,0,1-.045.356,2.66,2.66,0,0,0-.049.573,32.136,32.136,0,0,0,.989,5.773s.064,4.1.677,4.34c.524.2-.7,2.368-1.068,2.966a1.028,1.028,0,0,1-.025-.119c-.044.079-.074.124-.074.124a2.883,2.883,0,0,0-.193,1.038,1.483,1.483,0,0,0,.682,1.443c1.167.717,1.794,1.31.806,1.547a9.812,9.812,0,0,0-1.083.227c0-.045-.04-.094-.054-.138a.662.662,0,0,0-.386.687,3.041,3.041,0,0,0,.371,1.389,14.834,14.834,0,0,0,1.661,3.035l.494-.054a2.336,2.336,0,0,1-.277.494,1.912,1.912,0,0,1-.692.613,2.212,2.212,0,0,1-.84.292,2.343,2.343,0,0,0-1.74.845,1.817,1.817,0,0,0,.213,2.822l4.394,1.513s7.558.989,7.158-.712-.643-3.178-.643-3.178a6.707,6.707,0,0,0-.618-3.01,2.968,2.968,0,0,0-.267-.445l.267-.03s.554-3.747,1.29-4.449c.173-.163.213-.292.168-.391.079-.2-.114-.321-.361-.39l-.054.148a3.716,3.716,0,0,0-.731-.079s-.247-1.977.549-2.679a.756.756,0,0,0,.158-.583,3.358,3.358,0,0,0-.084-.8l-.03.05a28.553,28.553,0,0,0-1.765-4.612,5.7,5.7,0,0,1,.43-2.5c.489-.717-.059-9.693-.059-9.693a29.4,29.4,0,0,0-.371-6.362,7.139,7.139,0,0,1,.677-4.4V652.2s-.03-.267-.074-.687v.044c-.124-1.152-.356-3.233-.529-4.192-.247-1.369.06-7.909.06-7.909l1.107-2.793,1.977,4.815,2.086,6.426a5.464,5.464,0,0,1,1.063,2.729c0,.069,0,.138,0,.2a3.242,3.242,0,0,0,0,.43,3.835,3.835,0,0,0,.638,2.289s.554,3.035,1.414,3.806a3.426,3.426,0,0,1,.86,2.259,37.693,37.693,0,0,0,1.537,5.175,7.6,7.6,0,0,1,.43,2.966h0v.163s.143,1.572.138,2.9v.46a4.608,4.608,0,0,1-.128,1.068v-.158a11,11,0,0,0-.317,2.744c-.03,1.582.213,3.46,1.172,4.552,1.661,1.9,2.7,1.666,2.7,1.666s-.8,2.378-1.784,2.857a.582.582,0,0,0-.1.064.275.275,0,0,0-.025-.139,1.161,1.161,0,0,0-.287.89,6.366,6.366,0,0,0,1.216,3.524,1.948,1.948,0,0,0,.831.494l-.153.094a3.437,3.437,0,0,1-.341.163,1.612,1.612,0,0,1-.494.129,2.343,2.343,0,0,0-1.74.845,1.818,1.818,0,0,0,.213,2.823l4.394,1.513S698.932,695.421,698.552,693.7Z" transform="translate(-343.412 -301.47)" fill="url(#linear-gradient)"/>
    <path id="Path_855" data-name="Path 855" d="M706.694,839.671l-4.256-1.513a1.849,1.849,0,0,1-.2-2.823,2.24,2.24,0,0,1,1.681-.845,2.078,2.078,0,0,0,.815-.292,1.929,1.929,0,0,0,.672-.613,3.129,3.129,0,0,0,.494-1.646s4.671-1.364,5.932,0a3.491,3.491,0,0,1,.568.831,6.918,6.918,0,0,1,.593,3.01s.237,1.483.623,3.178S706.694,839.671,706.694,839.671Z" transform="translate(-380.422 -444.632)" fill="#2d293d"/>
    <path id="Path_856" data-name="Path 856" d="M748.8,835.468l-4.251-1.512a1.841,1.841,0,0,1-.208-2.818,2.235,2.235,0,0,1,1.685-.85,1.536,1.536,0,0,0,.494-.128,2.511,2.511,0,0,0,.326-.163,2.69,2.69,0,0,0,1.162-2.259s4.666-1.369,5.932,0a3.312,3.312,0,0,1,.445.608,6.792,6.792,0,0,1,.717,3.233s.237,1.483.623,3.178S748.8,835.468,748.8,835.468Z" transform="translate(-401.717 -442.506)" fill="#2d293d"/>
    <path id="Path_857" data-name="Path 857" d="M715.651,831.938a3.489,3.489,0,0,1,.569.831h0l-7,.811a3.13,3.13,0,0,0,.494-1.646S714.375,830.574,715.651,831.938Z" transform="translate(-384.238 -444.631)" opacity="0.1"/>
    <path id="Path_858" data-name="Path 858" d="M757.189,828.3v1.31c-1.088,1.794-6.352,1.4-7.879.494a2.523,2.523,0,0,0,.326-.163,2.691,2.691,0,0,0,1.162-2.259s4.666-1.369,5.932,0a3.3,3.3,0,0,1,.46.618Z" transform="translate(-404.511 -442.475)" opacity="0.1"/>
    <path id="Path_859" data-name="Path 859" d="M730.565,747.019a11.659,11.659,0,0,0-.835,1.784v4.7c-1.186,1.977-7.375,1.31-8.205.237s-1.725-3.865-.776-4.34,1.725-2.857,1.725-2.857-.988.237-2.615-1.666-1.127-6.124-.831-7.138a21.154,21.154,0,0,0,0-4.4,8.859,8.859,0,0,0-.415-3.154,39.307,39.307,0,0,1-1.483-5.175,3.513,3.513,0,0,0-.83-2.259c-.831-.776-1.369-3.806-1.369-3.806a3.9,3.9,0,0,1-.593-2.556,5.2,5.2,0,0,0-1.013-3.094l-2.022-6.426-1.9-4.82-1.068,2.793s-.3,6.545-.059,7.909.593,4.992.593,4.992a7.325,7.325,0,0,0-.652,4.4,30.085,30.085,0,0,1,.356,6.362s.534,8.981.059,9.7a5.737,5.737,0,0,0-.415,2.471s2.437,5.235,1.661,5.932-.534,2.679-.534,2.679,1.666,0,.954.712-1.251,4.449-1.251,4.449l-7.2.909a15.218,15.218,0,0,1-1.612-3.035c-.949-2.2.178-1.977,1.137-2.2s.351-.83-.781-1.547-.494-2.318-.494-2.318,1.725-2.916,1.132-3.154-.658-4.34-.658-4.34-1.186-4.879-.89-6.184-.954-4.449-.954-4.449l-.415-3.747a10.3,10.3,0,0,1-1.285-7.088v-5.788s-1.666-11.181-1.908-16.806c-.148-3.618-.109-8.556-.059-11.641.03-1.725.059-2.872.059-2.872l25.7-2.674a21.292,21.292,0,0,0,.47,3.816c.262,1.409.672,3.238,1.315,5.521a25.109,25.109,0,0,1,.717,11.418l-.237,8.265s2.259,5.531,1.785,7.415a15.694,15.694,0,0,0-.494,3.46s5.057,12.076,4.523,15.585,1.671,9.016,1.671,9.016S731.158,745.972,730.565,747.019Z" transform="translate(-377.052 -366.85)" fill="#464353"/>
    <path id="Path_860" data-name="Path 860" d="M737.22,754.373l7.8-1.043S740.611,757.848,737.22,754.373Z" transform="translate(-398.398 -405.186)" opacity="0.05"/>
    <path id="Path_861" data-name="Path 861" d="M749.293,737.87s.272,2.763-1.423,3.806C747.87,741.676,750.9,741.2,749.293,737.87Z" transform="translate(-403.783 -397.368)" opacity="0.1"/>
    <path id="Path_862" data-name="Path 862" d="M740.344,720.06s-6.535,5.383-8.9,4.943S740.344,720.06,740.344,720.06Z" transform="translate(-395.313 -388.362)" opacity="0.1"/>
    <path id="Path_863" data-name="Path 863" d="M712.367,760.55s-4.943,1.132-5.111,3.124S712.367,760.55,712.367,760.55Z" transform="translate(-383.243 -408.837)" opacity="0.1"/>
    <path id="Path_864" data-name="Path 864" d="M714.308,810.72s-7.014,1.31-5.022,2.2a34.024,34.024,0,0,0,5.264,1.6S716.809,814.645,714.308,810.72Z" transform="translate(-384.091 -434.208)" opacity="0.05"/>
    <g id="Group_199" data-name="Group 199" transform="translate(317.931 313.122)" opacity="0.05">
      <path id="Path_865" data-name="Path 865" d="M705.861,816.958a1.389,1.389,0,0,1-.642-1.018l-.069.129s-.657,1.6.494,2.318c.128.079.252.163.366.242.208-.039.435-.069.647-.124C707.6,818.288,706.993,817.69,705.861,816.958Z" transform="translate(-700.016 -749.97)"/>
      <path id="Path_866" data-name="Path 866" d="M724.728,815.826c.193-.178.183-.638.069-1.226a3.317,3.317,0,0,0-.4,1.725A1.319,1.319,0,0,1,724.728,815.826Z" transform="translate(-709.843 -749.292)"/>
      <path id="Path_867" data-name="Path 867" d="M722.374,757.22a8.181,8.181,0,0,0-.494,2.185,8.639,8.639,0,0,1,.544-1.483A4.418,4.418,0,0,0,722.374,757.22Z" transform="translate(-708.571 -720.276)"/>
      <path id="Path_868" data-name="Path 868" d="M755.258,750.233a2.816,2.816,0,0,0,.064-.653c-.089.445-.148.86-.193,1.221C755.17,750.613,755.209,750.425,755.258,750.233Z" transform="translate(-725.385 -716.412)"/>
      <path id="Path_869" data-name="Path 869" d="M722.373,798.65a3.745,3.745,0,0,0,.178-1.32A4.356,4.356,0,0,0,722.21,799,1.589,1.589,0,0,1,722.373,798.65Z" transform="translate(-708.738 -740.559)"/>
      <path id="Path_870" data-name="Path 870" d="M715.067,822.68a23.788,23.788,0,0,0-.816,3.653l-7.192.835a14.9,14.9,0,0,1-1.611-3.035,5.312,5.312,0,0,1-.2-.524c-.43.2-.6.643-.035,1.977a14.72,14.72,0,0,0,1.611,3.03l7.187-.835s.539-3.747,1.251-4.449C715.611,822.952,715.388,822.774,715.067,822.68Z" transform="translate(-699.959 -753.378)"/>
      <path id="Path_871" data-name="Path 871" d="M700.563,741.1s.059,4.108.652,4.345h0c.3-.677.494-1.32.232-1.429-.593-.237-.653-4.34-.653-4.34s-1.191-4.879-.89-6.189-.954-4.449-.954-4.449l-.415-3.747a10.321,10.321,0,0,1-1.31-7.078v-5.778s-1.666-11.181-1.9-16.831c-.153-3.618-.109-8.556-.059-11.641V682.48h-.2s-.03,1.142-.059,2.872c-.049,3.08-.094,8.023.059,11.641.237,5.65,1.9,16.831,1.9,16.831v5.768a10.287,10.287,0,0,0,1.34,7.138l.415,3.747s1.251,3.149.949,4.449S700.563,741.1,700.563,741.1Z" transform="translate(-694.956 -682.48)"/>
      <path id="Path_872" data-name="Path 872" d="M747.678,825.617a6.918,6.918,0,0,1-1.137-2.828c-.737.662.109,3.238.9,4.256s7.019,1.725,8.21-.242v-1.132C754.039,827.268,748.469,826.631,747.678,825.617Z" transform="translate(-720.899 -753.434)"/>
      <path id="Path_873" data-name="Path 873" d="M766.57,814.854a11.9,11.9,0,0,0-.831,1.784v.835c.133-.306.326-.712.593-1.191a3.6,3.6,0,0,0,.262-1.483Z" transform="translate(-730.751 -749.393)"/>
      <path id="Path_874" data-name="Path 874" d="M746.388,807.819a11.405,11.405,0,0,0,.588-1.414s-.988.237-2.62-1.666c-1.167-1.384-1.231-4-1.068-5.709-.3,1.013-.776,5.235.83,7.138A4.192,4.192,0,0,0,746.388,807.819Z" transform="translate(-719.243 -741.419)"/>
      <path id="Path_875" data-name="Path 875" d="M732.854,756.688a32.639,32.639,0,0,1,.119,3.524c.04-.232.084-.42.119-.554a20.844,20.844,0,0,0,0-4.4,8.847,8.847,0,0,0-.415-3.154,39.1,39.1,0,0,1-1.483-5.175,3.512,3.512,0,0,0-.831-2.259c-.83-.776-1.369-3.806-1.369-3.806a3.9,3.9,0,0,1-.6-2.555,5.214,5.214,0,0,0-.989-3.094l-2.022-6.426L723.457,724l-1.073,2.793s0,.351-.035.9l.87-2.269,1.9,4.815,2.022,6.426a5.088,5.088,0,0,1,.989,3.089,3.909,3.909,0,0,0,.618,2.531s.534,3.03,1.364,3.806a3.531,3.531,0,0,1,.836,2.259,36.447,36.447,0,0,0,1.483,5.175A8.473,8.473,0,0,1,732.854,756.688Z" transform="translate(-708.809 -703.476)"/>
    </g>
    <path id="Path_876" data-name="Path 876" d="M747.712,563.065l-.445,2.175.025.989v.712l-2.472.257-.277-.494h0a21.049,21.049,0,0,0-1.928-3.114c-.46-.385-1.275-6.426-.3-6.065a2.59,2.59,0,0,1,1.384,1.251S748.591,559.289,747.712,563.065Z" transform="translate(-400.743 -306.161)" fill="#ffcdd3"/>
    <path id="Path_877" data-name="Path 877" d="M750.078,575.536l-2.472.257-.277-.494h0a2.185,2.185,0,0,1,2.738-.45Z" transform="translate(-403.51 -314.78)" opacity="0.1"/>
    <path id="Path_878" data-name="Path 878" d="M750.544,576.932l-3.267.761-.069-.494-.188-1.31a2.249,2.249,0,0,1,3.169-.435l.163.667Z" transform="translate(-403.354 -315.001)" fill="#dce6f2"/>
    <path id="Path_879" data-name="Path 879" d="M638.8,558.558l-3.49,1.878-.316-.662c-.336-.7-.831-1.745-.989-2.121-.208-.578-1.666-1.31-1.666-1.31-3.658-3.495.7-6.5.7-6.5,2.309-4.642,4.879,1.572,4.879,1.572s.356,3.277.1,3.495-.252,1.117-.252,1.117a13.585,13.585,0,0,1,.845,1.977C638.75,558.356,638.8,558.558,638.8,558.558Z" transform="translate(-344.622 -301.416)" fill="#ffcdd3"/>
    <path id="Path_880" data-name="Path 880" d="M643.016,568.666l-3.49,1.878-.316-.662c.494-.41,2.239-1.829,2.813-1.765a4.1,4.1,0,0,0,.83,0C642.962,568.464,643.016,568.666,643.016,568.666Z" transform="translate(-348.835 -311.525)" opacity="0.1"/>
    <path id="Path_881" data-name="Path 881" d="M643.478,569.967l-3.925,1.933-.079-.845-.054-.578s2.274-1.953,2.966-1.878a3.64,3.64,0,0,0,1.028,0l.045.707Z" transform="translate(-348.941 -311.767)" fill="#dce6f2"/>
    <path id="Path_882" data-name="Path 882" d="M719.8,584.357s-17.118,1.933-13.92.895a4.3,4.3,0,0,0,3.3-3.712,9.038,9.038,0,0,0-.638-3.954,17.181,17.181,0,0,0-1.532-3.094s13.084-7.2,10.469-.652a10.256,10.256,0,0,0-.741,3.1,8.741,8.741,0,0,0,.331,3.134,9.348,9.348,0,0,0,2.729,4.286Z" transform="translate(-382.349 -313.028)" fill="#ffcdd3"/>
    <path id="Path_883" data-name="Path 883" d="M719.049,573.834a10.262,10.262,0,0,0-.741,3.1c-1.236,1.033-2.585.989-4.32.989-1.335,0-2.813.326-3.875-.316a17.166,17.166,0,0,0-1.532-3.094S721.664,567.289,719.049,573.834Z" transform="translate(-383.915 -313.029)" opacity="0.1"/>
    <circle id="Ellipse_136" data-name="Ellipse 136" cx="7.078" cy="7.078" r="7.078" transform="translate(322.762 251.171)" fill="#ffcdd3"/>
    <path id="Path_884" data-name="Path 884" d="M719.8,592.788s-17.118,1.933-13.92.895a4.3,4.3,0,0,0,3.3-3.712,9.292,9.292,0,0,1,3.663-1.943,5.107,5.107,0,0,1,3.1-.049,4.134,4.134,0,0,1,1.127.494,9.347,9.347,0,0,0,2.729,4.315Z" transform="translate(-382.349 -321.459)" opacity="0.1"/>
    <path id="Path_885" data-name="Path 885" d="M750.737,577.973l-3.267.761-.069-.494a2.887,2.887,0,0,1,3.144-1.078Z" transform="translate(-403.546 -316.041)" opacity="0.1"/>
    <path id="Path_886" data-name="Path 886" d="M643.534,570.692l-3.925,1.933-.079-.845a28.87,28.87,0,0,1,3.954-1.75Z" transform="translate(-348.996 -312.493)" opacity="0.1"/>
    <path id="Path_887" data-name="Path 887" d="M721.323,681.286c-6.629,1.043-16.065,2.407-17.563,1.953-1.241-.381-5.205-.341-8.66-.223.03-1.725.059-2.872.059-2.872l25.7-2.674a21.3,21.3,0,0,0,.46,3.816Z" transform="translate(-377.098 -366.824)" opacity="0.1"/>
    <path id="Path_888" data-name="Path 888" d="M698.771,625.59s-21.828,3.747-24.172,3.03-14.369.064-14.369.064c-5.413,3.623-3.149-1.725-3.149-1.725a12.9,12.9,0,0,1,.178-5.057,30.982,30.982,0,0,0,.89-5.057s-.119-3.569.534-4.4,1.429-6.782,1.429-6.782.6-4.043.539-4.943.178-3.386.178-3.386l.771-4.167c-4.449-.593-18.022-8.922-18.022-8.922-.653-2.793-5.709-9.337-5.709-9.337a6.894,6.894,0,0,0-.415-1.607c-.356-.949,5-2.852,5-2.852s3.984,4.879,4.815,6.184a27.212,27.212,0,0,0,3.687,3.747,2.883,2.883,0,0,1,1.31.173h.069a10.559,10.559,0,0,1,2.659,1.528,5.155,5.155,0,0,1,3.628,1.369s2.442-.356,2.857.059,2.471,0,2.471,0,2.086-4.4,3.46-3.124,7.172,1.221,7.172,1.221c.776-1.028,2.654-1.765,3.836-2.145a5.107,5.107,0,0,1,3.1-.049,3.836,3.836,0,0,1,1.226.593l3.519,3.46s.989-1.31.895-1.606,1.191-.534,1.191-.534,1.725-.534,2.378-.717,1.256.534,1.3.593a6.966,6.966,0,0,1-.3-2.615,2.965,2.965,0,0,0-.712-2.14c2.1-5.082,6.8-.781,6.8-.781s.534,2.793.059,3.866.494,3.332.356,3.925a26.8,26.8,0,0,0,.237,2.734,16.263,16.263,0,0,1-.949,4.226c-.361.949-3.213,3.089-3.213,3.089a13.412,13.412,0,0,1-1.429,5.353c-1.251,1.962-.494,8.685-.494,8.685s1.186,5.235,2.674,6.92S698.771,625.59,698.771,625.59Z" transform="translate(-347.937 -312.705)" fill="#3f3d56"/>
    <path id="Path_889" data-name="Path 889" d="M694.106,599.138s-.652-1.977-1.251-2.145a14.094,14.094,0,0,1-1.725-.771l.386-.732s2.234.613,2.59,1.265A5.167,5.167,0,0,1,694.106,599.138Z" transform="translate(-375.09 -325.368)" opacity="0.1"/>
    <path id="Path_890" data-name="Path 890" d="M667.468,592.492c-.119.6-5.408,1.132-5.408,1.132l2.674-2.684h0l.069.025h0a10.549,10.549,0,0,1,2.664,1.527Z" transform="translate(-360.39 -323.067)" opacity="0.1"/>
    <circle id="Ellipse_137" data-name="Ellipse 137" cx="0.475" cy="0.475" r="0.475" transform="translate(291.27 260.79)" fill="#575988"/>
    <circle id="Ellipse_138" data-name="Ellipse 138" cx="0.475" cy="0.475" r="0.475" transform="translate(291.878 261.744)" fill="#575988"/>
    <circle id="Ellipse_139" data-name="Ellipse 139" cx="0.475" cy="0.475" r="0.475" transform="translate(292.476 262.619)" fill="#575988"/>
    <circle id="Ellipse_140" data-name="Ellipse 140" cx="0.475" cy="0.475" r="0.475" transform="translate(293.099 263.573)" fill="#575988"/>
    <circle id="Ellipse_141" data-name="Ellipse 141" cx="0.386" cy="0.386" r="0.386" transform="translate(349.252 263.607)" fill="#575988"/>
    <circle id="Ellipse_142" data-name="Ellipse 142" cx="0.386" cy="0.386" r="0.386" transform="translate(349.311 264.487)" fill="#575988"/>
    <circle id="Ellipse_143" data-name="Ellipse 143" cx="0.386" cy="0.386" r="0.386" transform="translate(349.361 265.362)" fill="#575988"/>
    <path id="Path_891" data-name="Path 891" d="M697.21,635.47c-.054-.069,13.346,16.861,23.761,7.078C720.971,642.548,704.521,644.777,697.21,635.47Z" transform="translate(-378.165 -345.585)" opacity="0.1"/>
    <path id="Path_892" data-name="Path 892" d="M681.63,653.28s8.023.218,8.863,2.526v2.4a1.537,1.537,0,0,1-1.483,0c-.811-.435-5.66-2.9-7.37-1.715Z" transform="translate(-370.286 -354.592)" opacity="0.1"/>
    <path id="Path_893" data-name="Path 893" d="M681.93,653.28s7.672.208,8.477,2.407v2.294a1.484,1.484,0,0,1-1.429,0c-.776-.42-5.437-2.768-7.049-1.636Z" transform="translate(-370.438 -354.592)" fill="#3f3d56"/>
    <path id="Path_894" data-name="Path 894" d="M690.49,618a25.837,25.837,0,0,0,3.109,5.334,20.837,20.837,0,0,0,4.874,4.706S690.624,619.122,690.49,618Z" transform="translate(-374.767 -336.751)" opacity="0.1"/>
    <path id="Path_895" data-name="Path 895" d="M685.18,599.18s1.34,5.778,4.785,7.741Z" transform="translate(-372.081 -327.234)" opacity="0.1"/>
    <path id="Path_896" data-name="Path 896" d="M680.877,600.358c-.035-.109-1.191,4.567,4.449,7.158C685.326,607.516,682.943,606.7,680.877,600.358Z" transform="translate(-369.844 -327.828)" opacity="0.1"/>
    <path id="Path_897" data-name="Path 897" d="M751.9,592.516a41.4,41.4,0,0,1,3.559,2.674S753.593,592.4,751.9,592.516Z" transform="translate(-405.819 -323.862)" opacity="0.1"/>
    <path id="Path_898" data-name="Path 898" d="M709.16,568.095a1.509,1.509,0,0,0,.549.959,1.548,1.548,0,0,0,.667.148,14.459,14.459,0,0,0,6.426-.6,2.39,2.39,0,0,0,.988-.648,3.849,3.849,0,0,0,.524-1.557,24.268,24.268,0,0,1,1.31-3.005,10.1,10.1,0,0,0,.7-5.4,3.612,3.612,0,0,0-.539-1.582c-.573-.816-1.616-1.147-2.373-1.8s-1.246-1.646-2.126-2.135a4.133,4.133,0,0,0-2.669-.237,14.1,14.1,0,0,0-4.983,1.874,2.467,2.467,0,0,1-1.666.568,2.289,2.289,0,0,1-1.226-.939,6.583,6.583,0,0,0-.529,3.08.911.911,0,0,1-.331.959A1.8,1.8,0,0,0,703.54,560c.232.272.583.42.806.7.4.494.262,1.211.252,1.849a.989.989,0,0,0,.158.628.919.919,0,0,0,.875.208,2.392,2.392,0,0,1,.929-.089,1.566,1.566,0,0,1,.811.623A11.3,11.3,0,0,1,709.16,568.095Z" transform="translate(-381.232 -303.434)" fill="#2d293d"/>
    <g id="Group_200" data-name="Group 200" transform="translate(321.994 254.591)" opacity="0.1">
      <path id="Path_899" data-name="Path 899" d="M717.918,573.452a2.339,2.339,0,0,1-.989.643,14.2,14.2,0,0,1-6.4.6,1.454,1.454,0,0,1-.667-.148,1.482,1.482,0,0,1-.554-.954,11.034,11.034,0,0,0-1.8-4.187,1.543,1.543,0,0,0-.811-.623,2.394,2.394,0,0,0-.929.089.919.919,0,0,1-.875-.208.958.958,0,0,1-.153-.628c0-.638.143-1.354-.257-1.849-.222-.277-.573-.425-.806-.7a1.394,1.394,0,0,1-.133-1.424,1.628,1.628,0,0,0-.1,1.9c.232.272.583.42.806.7.4.494.262,1.211.252,1.849a.989.989,0,0,0,.158.628.914.914,0,0,0,.875.208,2.394,2.394,0,0,1,.929-.089,1.567,1.567,0,0,1,.811.623,11.224,11.224,0,0,1,1.8,4.187,1.508,1.508,0,0,0,.549.959,1.545,1.545,0,0,0,.667.148,14.46,14.46,0,0,0,6.426-.6,2.428,2.428,0,0,0,.989-.647,1.885,1.885,0,0,0,.306-.573A.356.356,0,0,1,717.918,573.452Z" transform="translate(-703.176 -564.07)"/>
    </g>
    <path id="Path_900" data-name="Path 900" d="M712.62,592.958s8.843,1.172,9.639-.158" transform="translate(-385.958 -324.007)" opacity="0.1"/>
    <path id="Path_901" data-name="Path 901" d="M747.4,585.72s4.908,0,5.991,1.849" transform="translate(-403.546 -320.427)" opacity="0.1"/>
    <g id="Group_201" data-name="Group 201" transform="translate(227.193 95.538)">
      <rect id="Rectangle_134" data-name="Rectangle 134" width="31.428" height="31.428" rx="15.714" transform="translate(0 0)" fill="#fff"/>
      <rect id="Rectangle_140" data-name="Rectangle 140" width="67.444" height="4.817" transform="translate(36.563 0.029)" fill="#fff"/>
      <rect id="Rectangle_141" data-name="Rectangle 141" width="39.744" height="6.022" transform="translate(36.563 12.073)" fill="#fff"/>
      <rect id="Rectangle_143" data-name="Rectangle 143" width="25.292" height="6.022" transform="translate(78.715 12.073)" fill="#fff"/>
      <rect id="Rectangle_142" data-name="Rectangle 142" width="67.444" height="4.817" transform="translate(36.563 26.525)" fill="#fff"/>
      <g id="Group_203" data-name="Group 203" transform="translate(0.432 65.065)">
        <rect id="Rectangle_146" data-name="Rectangle 146" width="61.423" height="6.022" transform="translate(0 0)" fill="#fff"/>
        <rect id="Rectangle_145" data-name="Rectangle 145" width="32.518" height="4.817" transform="translate(0 14.452)" fill="#fff"/>
        <rect id="Rectangle_147" data-name="Rectangle 147" width="25.292" height="4.817" transform="translate(36.131 14.452)" fill="#fff"/>
        <rect id="Rectangle_144" data-name="Rectangle 144" width="61.423" height="4.817" transform="translate(0 27.7)" fill="#fff"/>
      </g>
    </g>
    <g id="Group_202" data-name="Group 202" transform="translate(236.676 131.57)">
      <g id="star-2" data-name="star" transform="translate(0 0)">
        <path id="Path_902-2" data-name="Path 902" d="M12.968,16.452l-4.3-.4L6.957,12.085a.345.345,0,0,0-.633,0L4.615,16.053l-4.3.4a.345.345,0,0,0-.2.6l3.246,2.851-.95,4.215a.345.345,0,0,0,.512.372L6.64,22.287l3.715,2.206a.345.345,0,0,0,.512-.372l-.95-4.215,3.246-2.851A.345.345,0,0,0,12.968,16.452Z" transform="translate(0 -11.877)" fill="#ffdc64"/>
        <path id="Path_903-2" data-name="Path 903" d="M6.957,12.085a.345.345,0,0,0-.633,0L4.615,16.053l-4.3.4a.345.345,0,0,0-.2.6l3.246,2.851-.95,4.215a.345.345,0,0,0,.512.372L3.755,24A15.2,15.2,0,0,1,7.8,14.047Z" transform="translate(0 -11.877)" fill="#ffc850"/>
      </g>
      <g id="star-3" data-name="star" transform="translate(18.095 0)">
        <path id="Path_902-3" data-name="Path 902" d="M12.968,16.452l-4.3-.4L6.957,12.085a.345.345,0,0,0-.633,0L4.615,16.053l-4.3.4a.345.345,0,0,0-.2.6l3.246,2.851-.95,4.215a.345.345,0,0,0,.512.372L6.64,22.287l3.715,2.206a.345.345,0,0,0,.512-.372l-.95-4.215,3.246-2.851A.345.345,0,0,0,12.968,16.452Z" transform="translate(0 -11.877)" fill="#ffdc64"/>
        <path id="Path_903-3" data-name="Path 903" d="M6.957,12.085a.345.345,0,0,0-.633,0L4.615,16.053l-4.3.4a.345.345,0,0,0-.2.6l3.246,2.851-.95,4.215a.345.345,0,0,0,.512.372L3.755,24A15.2,15.2,0,0,1,7.8,14.047Z" transform="translate(0 -11.877)" fill="#ffc850"/>
      </g>
      <g id="star-4" data-name="star" transform="translate(36.189 0)">
        <path id="Path_902-4" data-name="Path 902" d="M12.968,16.452l-4.3-.4L6.957,12.085a.345.345,0,0,0-.633,0L4.615,16.053l-4.3.4a.345.345,0,0,0-.2.6l3.246,2.851-.95,4.215a.345.345,0,0,0,.512.372L6.64,22.287l3.715,2.206a.345.345,0,0,0,.512-.372l-.95-4.215,3.246-2.851A.345.345,0,0,0,12.968,16.452Z" transform="translate(0 -11.877)" fill="#ffdc64"/>
        <path id="Path_903-4" data-name="Path 903" d="M6.957,12.085a.345.345,0,0,0-.633,0L4.615,16.053l-4.3.4a.345.345,0,0,0-.2.6l3.246,2.851-.95,4.215a.345.345,0,0,0,.512.372L3.755,24A15.2,15.2,0,0,1,7.8,14.047Z" transform="translate(0 -11.877)" fill="#ffc850"/>
      </g>
      <g id="star-5" data-name="star" transform="translate(54.284 0)">
        <path id="Path_902-5" data-name="Path 902" d="M12.968,16.452l-4.3-.4L6.957,12.085a.345.345,0,0,0-.633,0L4.615,16.053l-4.3.4a.345.345,0,0,0-.2.6l3.246,2.851-.95,4.215a.345.345,0,0,0,.512.372L6.64,22.287l3.715,2.206a.345.345,0,0,0,.512-.372l-.95-4.215,3.246-2.851A.345.345,0,0,0,12.968,16.452Z" transform="translate(0 -11.877)" fill="#ffdc64"/>
        <path id="Path_903-5" data-name="Path 903" d="M6.957,12.085a.345.345,0,0,0-.633,0L4.615,16.053l-4.3.4a.345.345,0,0,0-.2.6l3.246,2.851-.95,4.215a.345.345,0,0,0,.512.372L3.755,24A15.2,15.2,0,0,1,7.8,14.047Z" transform="translate(0 -11.877)" fill="#ffc850"/>
      </g>
      <g id="star-6" data-name="star" transform="translate(72.379 0)">
        <path id="Path_902-6" data-name="Path 902" d="M12.968,16.452l-4.3-.4L6.957,12.085a.345.345,0,0,0-.633,0L4.615,16.053l-4.3.4a.345.345,0,0,0-.2.6l3.246,2.851-.95,4.215a.345.345,0,0,0,.512.372L6.64,22.287l3.715,2.206a.345.345,0,0,0,.512-.372l-.95-4.215,3.246-2.851A.345.345,0,0,0,12.968,16.452Z" transform="translate(0 -11.877)" fill="#ffdc64"/>
        <path id="Path_903-6" data-name="Path 903" d="M6.957,12.085a.345.345,0,0,0-.633,0L4.615,16.053l-4.3.4a.345.345,0,0,0-.2.6l3.246,2.851-.95,4.215a.345.345,0,0,0,.512.372L3.755,24A15.2,15.2,0,0,1,7.8,14.047Z" transform="translate(0 -11.877)" fill="#ffc850"/>
      </g>
    </g>
    <g id="Group_204" data-name="Group 204" transform="translate(236.334 199.187)">
      <g id="star-7" data-name="star" transform="translate(0 0)">
        <path id="Path_902-7" data-name="Path 902" d="M12.968,16.452l-4.3-.4L6.957,12.085a.345.345,0,0,0-.633,0L4.615,16.053l-4.3.4a.345.345,0,0,0-.2.6l3.246,2.851-.95,4.215a.345.345,0,0,0,.512.372L6.64,22.287l3.715,2.206a.345.345,0,0,0,.512-.372l-.95-4.215,3.246-2.851A.345.345,0,0,0,12.968,16.452Z" transform="translate(0 -11.877)" fill="#ffdc64"/>
        <path id="Path_903-7" data-name="Path 903" d="M6.957,12.085a.345.345,0,0,0-.633,0L4.615,16.053l-4.3.4a.345.345,0,0,0-.2.6l3.246,2.851-.95,4.215a.345.345,0,0,0,.512.372L3.755,24A15.2,15.2,0,0,1,7.8,14.047Z" transform="translate(0 -11.877)" fill="#ffc850"/>
      </g>
      <g id="star-8" data-name="star" transform="translate(18.095 0)">
        <path id="Path_902-8" data-name="Path 902" d="M12.968,16.452l-4.3-.4L6.957,12.085a.345.345,0,0,0-.633,0L4.615,16.053l-4.3.4a.345.345,0,0,0-.2.6l3.246,2.851-.95,4.215a.345.345,0,0,0,.512.372L6.64,22.287l3.715,2.206a.345.345,0,0,0,.512-.372l-.95-4.215,3.246-2.851A.345.345,0,0,0,12.968,16.452Z" transform="translate(0 -11.877)" fill="#ffdc64"/>
        <path id="Path_903-8" data-name="Path 903" d="M6.957,12.085a.345.345,0,0,0-.633,0L4.615,16.053l-4.3.4a.345.345,0,0,0-.2.6l3.246,2.851-.95,4.215a.345.345,0,0,0,.512.372L3.755,24A15.2,15.2,0,0,1,7.8,14.047Z" transform="translate(0 -11.877)" fill="#ffc850"/>
      </g>
      <g id="star-9" data-name="star" transform="translate(36.189 0)">
        <path id="Path_902-9" data-name="Path 902" d="M12.968,16.452l-4.3-.4L6.957,12.085a.345.345,0,0,0-.633,0L4.615,16.053l-4.3.4a.345.345,0,0,0-.2.6l3.246,2.851-.95,4.215a.345.345,0,0,0,.512.372L6.64,22.287l3.715,2.206a.345.345,0,0,0,.512-.372l-.95-4.215,3.246-2.851A.345.345,0,0,0,12.968,16.452Z" transform="translate(0 -11.877)" fill="#ffdc64"/>
        <path id="Path_903-9" data-name="Path 903" d="M6.957,12.085a.345.345,0,0,0-.633,0L4.615,16.053l-4.3.4a.345.345,0,0,0-.2.6l3.246,2.851-.95,4.215a.345.345,0,0,0,.512.372L3.755,24A15.2,15.2,0,0,1,7.8,14.047Z" transform="translate(0 -11.877)" fill="#ffc850"/>
      </g>
      <g id="star-10" data-name="star" transform="translate(54.284 0)">
        <path id="Path_902-10" data-name="Path 902" d="M12.968,16.452l-4.3-.4L6.957,12.085a.345.345,0,0,0-.633,0L4.615,16.053l-4.3.4a.345.345,0,0,0-.2.6l3.246,2.851-.95,4.215a.345.345,0,0,0,.512.372L6.64,22.287l3.715,2.206a.345.345,0,0,0,.512-.372l-.95-4.215,3.246-2.851A.345.345,0,0,0,12.968,16.452Z" transform="translate(0 -11.877)" fill="#ffdc64"/>
        <path id="Path_903-10" data-name="Path 903" d="M6.957,12.085a.345.345,0,0,0-.633,0L4.615,16.053l-4.3.4a.345.345,0,0,0-.2.6l3.246,2.851-.95,4.215a.345.345,0,0,0,.512.372L3.755,24A15.2,15.2,0,0,1,7.8,14.047Z" transform="translate(0 -11.877)" fill="#ffc850"/>
      </g>
      <g id="star-11" data-name="star" transform="translate(72.379 0)">
        <path id="Path_902-11" data-name="Path 902" d="M12.968,16.452l-4.3-.4L6.957,12.085a.345.345,0,0,0-.633,0L4.615,16.053l-4.3.4a.345.345,0,0,0-.2.6l3.246,2.851-.95,4.215a.345.345,0,0,0,.512.372L6.64,22.287l3.715,2.206a.345.345,0,0,0,.512-.372l-.95-4.215,3.246-2.851A.345.345,0,0,0,12.968,16.452Z" transform="translate(0 -11.877)" fill="#ffdc64"/>
        <path id="Path_903-11" data-name="Path 903" d="M6.957,12.085a.345.345,0,0,0-.633,0L4.615,16.053l-4.3.4a.345.345,0,0,0-.2.6l3.246,2.851-.95,4.215a.345.345,0,0,0,.512.372L3.755,24A15.2,15.2,0,0,1,7.8,14.047Z" transform="translate(0 -11.877)" fill="#ffc850"/>
      </g>
    </g>
    <line id="Line_28" data-name="Line 28" x2="128.567" transform="translate(214.993 152.779)" fill="none" stroke="#355fd4" stroke-width="1"/>
    <line id="Line_29" data-name="Line 29" x2="128.567" transform="translate(214.993 220.396)" fill="none" stroke="#355fd4" stroke-width="1"/>
  </g>
</svg>
