<svg xmlns="http://www.w3.org/2000/svg" width="155.508" height="175.162" viewBox="0 0 155.508 175.162">
  <path id="acheivements-efficacy" d="M3169,283V170.47l15-9.83V283Zm-35,0V187.2l15-8.393V283Zm-35-1V201.642l15-7.066V282Zm-35,0V194.576l15,7.066V282Zm-1-101.455V165.466l26.2,13.355,81.207-43.727-3.877-6.893,22.617,3.016-7.969,19.6-4.093-5.6L3089.2,193.9Zm146.674-42.853-7.042-5.737a1,1,0,0,0-1.263,0l-7.042,5.737a1,1,0,0,1-1.57-1.121l3.2-8.677a1,1,0,0,0-.381-1.175l-7.609-5.12a1,1,0,0,1,.6-1.829l9.059.42a1,1,0,0,0,1.012-.739l2.4-8.875a1,1,0,0,1,1.93,0l2.4,8.875a1,1,0,0,0,1.012.739l9.059-.42a1,1,0,0,1,.6,1.829l-7.609,5.12a1,1,0,0,0-.38,1.175l3.195,8.677a1,1,0,0,1-.944,1.351A.981.981,0,0,1,3209.674,137.692Z" transform="translate(-3062 -108.838)" fill="#fff" stroke="#fff" stroke-width="2"/>
</svg>
