<svg xmlns="http://www.w3.org/2000/svg" width="92.001" height="141" viewBox="0 0 92.001 141">
  <path id="achievements-orders" d="M3155,248h-92V123h13v13h66V123h13V248h0Zm-80.046-41.183h0l-5.657,5.656,12.729,12.729,17.677-17.678-5.656-5.657-12.021,12.021-7.07-7.071ZM3104,205v10h42V205Zm-29.046-23.182h0l-5.657,5.657,12.729,12.728,17.677-17.678-5.656-5.657-12.021,12.021-7.07-7.071ZM3104,180h0v10h42V180Zm-29.046-24.181h0l-5.657,5.656,12.729,12.728,17.677-17.678-5.656-5.657-12.021,12.02-7.07-7.07ZM3104,155v10h42V155h-42Zm28-26h-47V114h17a7,7,0,1,1,14,0h16v15Z" transform="translate(-3063 -107)" fill="#fff"/>
</svg>
