<svg xmlns="http://www.w3.org/2000/svg" width="138.001" height="104.562" viewBox="0 0 138.001 104.562">
  <path id="achievements-opinions" d="M3195.274,211.541,3167,200.452A70.689,70.689,0,0,1,3148,203a69.7,69.7,0,0,1-22.071-3.487,55.064,55.064,0,0,1-17.537-9.43l1.608-.631A70.691,70.691,0,0,0,3129,192c14.156,0,27.465-4.005,37.476-11.276S3182,163.784,3182,153.5c0-8.738-3.928-16.975-11.361-23.821,8.949,3.076,16.526,7.9,21.909,13.956,5.529,6.216,8.451,13.431,8.451,20.865a29.647,29.647,0,0,1-4.684,15.845A41.79,41.79,0,0,1,3183.633,193c.081.108.448.6,1.01,1.363,2.885,3.9,11.663,15.767,11.7,15.854.054.127.206.854-.094,1.141a1.015,1.015,0,0,1-.682.2A2.009,2.009,0,0,1,3195.274,211.541ZM3067.75,192.36c-.307-.294-.14-1.031-.094-1.141s10.254-13.9,12.711-17.218C3069.7,166.958,3063,156.8,3063,145.5c0-21.263,23.729-38.5,53-38.5s53,17.237,53,38.5-23.729,38.5-53,38.5a70.785,70.785,0,0,1-19-2.548l-28.274,11.089a2.013,2.013,0,0,1-.294.021A1.015,1.015,0,0,1,3067.75,192.36Z" transform="translate(-3063 -107)" fill="#fff"/>
</svg>
