<svg xmlns="http://www.w3.org/2000/svg" width="17.688" height="19.297" viewBox="0 0 17.688 19.297">
  <g id="blog-share" transform="translate(0 0)">
    <path id="Path_1008" data-name="Path 1008" d="M319.894,18.613A2.613,2.613,0,1,1,317.281,16,2.613,2.613,0,0,1,319.894,18.613Zm0,0" transform="translate(-302.809 -15.397)" fill="#433f8f"/>
    <path id="Path_1009" data-name="Path 1009" d="M301.884,6.432A3.216,3.216,0,1,1,305.1,3.216,3.219,3.219,0,0,1,301.884,6.432Zm0-5.226a2.01,2.01,0,1,0,2.01,2.01,2.012,2.012,0,0,0-2.01-2.01Zm0,0" transform="translate(-287.412)" fill="#433f8f"/>
    <path id="Path_1010" data-name="Path 1010" d="M319.894,359.945a2.613,2.613,0,1,1-2.613-2.613A2.613,2.613,0,0,1,319.894,359.945Zm0,0" transform="translate(-302.809 -343.865)" fill="#433f8f"/>
    <path id="Path_1011" data-name="Path 1011" d="M301.884,347.764a3.216,3.216,0,1,1,3.216-3.216A3.219,3.219,0,0,1,301.884,347.764Zm0-5.226a2.01,2.01,0,1,0,2.01,2.01A2.012,2.012,0,0,0,301.884,342.538Zm0,0" transform="translate(-287.412 -328.468)" fill="#433f8f"/>
    <path id="Path_1012" data-name="Path 1012" d="M21.226,189.281a2.613,2.613,0,1,1-2.613-2.613A2.613,2.613,0,0,1,21.226,189.281Zm0,0" transform="translate(-15.397 -179.633)" fill="#433f8f"/>
    <path id="Path_1013" data-name="Path 1013" d="M3.216,177.1a3.216,3.216,0,1,1,3.216-3.216A3.219,3.219,0,0,1,3.216,177.1Zm0-5.226a2.01,2.01,0,1,0,2.01,2.01,2.012,2.012,0,0,0-2.01-2.01Zm0,0" transform="translate(0 -164.236)" fill="#433f8f"/>
    <path id="Path_1014" data-name="Path 1014" d="M115.153,96.077a.8.8,0,0,1-.4-1.5l7.46-4.253a.8.8,0,1,1,.8,1.4l-7.461,4.253A.8.8,0,0,1,115.153,96.077Zm0,0" transform="translate(-110.039 -86.814)" fill="#433f8f"/>
    <path id="Path_1015" data-name="Path 1015" d="M122.635,272.081a.8.8,0,0,1-.4-.105l-7.461-4.253a.8.8,0,0,1,.8-1.4l7.461,4.253a.8.8,0,0,1-.4,1.5Zm0,0" transform="translate(-110.061 -256.185)" fill="#433f8f"/>
  </g>
</svg>
