<svg xmlns="http://www.w3.org/2000/svg" xmlns:xlink="http://www.w3.org/1999/xlink" width="25" height="25" viewBox="0 0 25 25">
  <defs>
    <clipPath id="clip-path">
      <circle id="Ellipse_147" data-name="Ellipse 147" cx="12.5" cy="12.5" r="12.5" transform="translate(543 4675)" fill="#fff" stroke="#707070" stroke-width="1"/>
    </clipPath>
  </defs>
  <g id="blog-avatar" transform="translate(-543 -4675)" clip-path="url(#clip-path)">
    <g id="profile" transform="translate(543 4675)">
      <g id="Group_239" data-name="Group 239">
        <g id="Group_225" data-name="Group 225">
          <path id="Path_987" data-name="Path 987" d="M12.5,23.6l4.953-1.251A12.8,12.8,0,0,0,12.071.007,12.5,12.5,0,0,0,3.7,21.379Z" fill="#cbe2ff"/>
        </g>
        <g id="Group_226" data-name="Group 226">
          <path id="Path_988" data-name="Path 988" d="M21.822,12.5A12.481,12.481,0,0,1,16.8,22.514L21.3,21.379A12.5,12.5,0,0,0,12.5,0a12.622,12.622,0,0,0-1.589.1A12.5,12.5,0,0,1,21.822,12.5Z" fill="#bed8fb"/>
        </g>
        <g id="Group_238" data-name="Group 238">
          <g id="Group_237" data-name="Group 237">
            <g id="Group_236" data-name="Group 236">
              <path id="Path_989" data-name="Path 989" d="M15.606,4.734a1.156,1.156,0,0,0-1.156-1.156H10.467a2.66,2.66,0,0,0-2.66,2.66V9.192h9.385V6.28a1.156,1.156,0,0,0-1.156-1.156H16a.39.39,0,0,1-.39-.39Z" fill="#365e7d"/>
              <path id="Path_990" data-name="Path 990" d="M16.036,5.124H16a.39.39,0,0,1-.39-.39,1.156,1.156,0,0,0-1.156-1.156h-.437V9.192h3.178V6.28a1.156,1.156,0,0,0-1.156-1.156Z" fill="#2b4d66"/>
              <path id="Path_991" data-name="Path 991" d="M20.754,18.181a2.771,2.771,0,0,0-1.113-.671l-3.413-1.08L12.5,16.3l-3.729.131L5.359,17.51A2.777,2.777,0,0,0,3.42,20.158v.932a12.464,12.464,0,0,0,8.652,3.9,12.821,12.821,0,0,0,8.683-6.811Z" fill="#4a80aa"/>
              <path id="Path_992" data-name="Path 992" d="M21.58,21.09v-.932A2.777,2.777,0,0,0,20.55,18a12.51,12.51,0,0,1-9.636,6.9,12.614,12.614,0,0,0,1.564.1,13.364,13.364,0,0,0,1.505-.087A12.468,12.468,0,0,0,21.58,21.09Z" fill="#407093"/>
              <path id="Path_993" data-name="Path 993" d="M12.783,24.813c.756-1.5,2.726-5.765,2.164-8.428L12.5,15.433l-2.449.952c-.579,2.745,1.532,7.191,2.231,8.559q.252-.06.5-.131Z" fill="#e4f6ff"/>
              <path id="Path_994" data-name="Path 994" d="M14.072,23.623l-.992-3.9H11.92l-.989,3.892,1.224,1.362q.466-.107.918-.247Z" fill="#e28086"/>
              <path id="Path_995" data-name="Path 995" d="M12.173,25c.1,0,.2,0,.3,0,.118,0,.235,0,.353-.006l.63-.7a12.4,12.4,0,0,1-1.529.429Z" fill="#dd636e"/>
              <g id="Group_234" data-name="Group 234">
                <g id="Group_233" data-name="Group 233">
                  <g id="Group_232" data-name="Group 232">
                    <g id="Group_231" data-name="Group 231">
                      <g id="Group_230" data-name="Group 230">
                        <g id="Group_229" data-name="Group 229">
                          <g id="Group_228" data-name="Group 228">
                            <g id="Group_227" data-name="Group 227">
                              <path id="Path_996" data-name="Path 996" d="M14.589,16.025v-2.2H10.41v2.2c0,1.154,2.089,2.414,2.089,2.414s2.089-1.26,2.089-2.414Z" fill="#ffddce"/>
                            </g>
                          </g>
                        </g>
                      </g>
                    </g>
                  </g>
                </g>
                <path id="Path_997" data-name="Path 997" d="M17.192,8.8h-.8a.8.8,0,0,1-.8-.8V7.56a.849.849,0,0,0-1.116-.806,6.289,6.289,0,0,1-3.946,0h0A.849.849,0,0,0,9.41,7.56V8a.8.8,0,0,1-.8.8h-.8V10.12a.609.609,0,0,0,.609.609.2.2,0,0,1,.2.189,3.893,3.893,0,0,0,7.77,0,.2.2,0,0,1,.2-.189.609.609,0,0,0,.609-.609V8.8Z" fill="#ffddce"/>
                <path id="Path_998" data-name="Path 998" d="M16.393,8.8a.8.8,0,0,1-.8-.8V7.56a.849.849,0,0,0-1.116-.806q-.228.075-.459.132V11.23a3.892,3.892,0,0,1-1.94,3.308,3.889,3.889,0,0,0,4.31-3.621.2.2,0,0,1,.2-.189.609.609,0,0,0,.609-.609V8.8h-.8Z" fill="#ffcbbe"/>
              </g>
              <g id="Group_235" data-name="Group 235">
                <path id="Path_999" data-name="Path 999" d="M10.41,15.433,8.771,16.764l1.718,2.125a.569.569,0,0,0,.762.029l1.292-1.079Z" fill="#f4fbff"/>
                <path id="Path_1000" data-name="Path 1000" d="M14.589,15.433l-2.046,2.406,1.215,1.038a.569.569,0,0,0,.764-.022l1.706-2.091Z" fill="#f4fbff"/>
              </g>
            </g>
            <path id="Path_1001" data-name="Path 1001" d="M10.41,15.433,8,16.614a.364.364,0,0,0-.163.494l.471.914a.612.612,0,0,1-.111.713l-.293.293a.61.61,0,0,0-.15.622C8.327,21.384,11.065,24.036,12.1,25l.209,0c-.751-1.462-3.414-7.014-1.9-9.567Z" fill="#365e7d"/>
            <path id="Path_1002" data-name="Path 1002" d="M16.8,18.735a.612.612,0,0,1-.111-.713l.471-.914a.364.364,0,0,0-.163-.494l-2.405-1.182c1.513,2.552-1.148,8.1-1.9,9.565l.212-.005c1.038-.962,3.772-3.61,4.34-5.343a.61.61,0,0,0-.15-.622l-.293-.293Z" fill="#365e7d"/>
            <path id="Path_1003" data-name="Path 1003" d="M12.544,17.838,11.271,18.9l.648.819h1.16l.648-.868Z" fill="#dd636e"/>
          </g>
        </g>
      </g>
    </g>
  </g>
</svg>
