<svg xmlns="http://www.w3.org/2000/svg" width="18.735" height="17.236" viewBox="0 0 18.735 17.236">
  <g id="blog-comment" transform="translate(-0.001 1.332)">
    <path id="Path_1004" data-name="Path 1004" d="M16.16-1.332H2.576A2.578,2.578,0,0,0,0,1.244V9.556a2.579,2.579,0,0,0,2.567,2.576V15.9l5.421-3.772H16.16a2.579,2.579,0,0,0,2.576-2.576V1.244A2.578,2.578,0,0,0,16.16-1.332ZM17.638,9.556a1.48,1.48,0,0,1-1.478,1.478H7.644L3.665,13.8V11.034H2.576A1.48,1.48,0,0,1,1.1,9.556V1.244A1.48,1.48,0,0,1,2.576-.234H16.16a1.48,1.48,0,0,1,1.478,1.478Zm0,0" fill="#433f8f"/>
    <path id="Path_1005" data-name="Path 1005" d="M171.293,131.172H180v1.1h-8.706Zm0,0" transform="translate(-166.278 -128.625)" fill="#433f8f"/>
    <path id="Path_1006" data-name="Path 1006" d="M171.293,211.172H180v1.1h-8.706Zm0,0" transform="translate(-166.278 -206.283)" fill="#433f8f"/>
    <path id="Path_1007" data-name="Path 1007" d="M171.293,291.172H180v1.1h-8.706Zm0,0" transform="translate(-166.278 -283.942)" fill="#433f8f"/>
  </g>
</svg>
