<svg xmlns="http://www.w3.org/2000/svg" width="12.455" height="16.984" viewBox="0 0 12.455 16.984">
  <g id="btn_arrow_down" transform="translate(-68.266)">
    <g id="Group_4" data-name="Group 4" transform="translate(68.266)">
      <path id="Path_251" data-name="Path 251" d="M80.636,10.711,79.021,9.139a.283.283,0,0,0-.4,0L75.909,11.8V.283A.283.283,0,0,0,75.626,0H73.361a.283.283,0,0,0-.283.283V11.8L70.362,9.139a.283.283,0,0,0-.4,0l-1.614,1.572a.282.282,0,0,0,0,.405L74.3,16.9a.283.283,0,0,0,.395,0l5.944-5.788a.283.283,0,0,0,0-.405Z" transform="translate(-68.266)" fill="#fff"/>
    </g>
  </g>
</svg>
