<svg xmlns="http://www.w3.org/2000/svg" xmlns:xlink="http://www.w3.org/1999/xlink" width="554.528" height="371.852" viewBox="0 0 554.528 371.852">
  <defs>
    <linearGradient id="linear-gradient" x1="0.5" x2="0.5" y2="1" gradientUnits="objectBoundingBox">
      <stop offset="0" stop-color="#e89ecb"/>
      <stop offset="1" stop-color="#b96097"/>
    </linearGradient>
    <linearGradient id="linear-gradient-2" x1="0.595" y1="-0.142" x2="0.435" y2="0.909" gradientUnits="objectBoundingBox">
      <stop offset="0" stop-color="#ee9acd"/>
      <stop offset="1" stop-color="#b3568f"/>
    </linearGradient>
    <linearGradient id="linear-gradient-3" x1="0.571" y1="-0.174" x2="0.542" y2="0.99" gradientUnits="objectBoundingBox">
      <stop offset="0" stop-color="#a44c82"/>
      <stop offset="1" stop-color="#f19acf"/>
    </linearGradient>
    <linearGradient id="linear-gradient-4" x1="0.387" y1="0.982" x2="0.626" y2="0.006" gradientUnits="objectBoundingBox">
      <stop offset="0" stop-color="#f196cd"/>
      <stop offset="1" stop-color="#cf65a7"/>
    </linearGradient>
    <linearGradient id="linear-gradient-5" x1="0.5" x2="0.5" y2="1" gradientUnits="objectBoundingBox">
      <stop offset="0" stop-color="#eb79bf"/>
      <stop offset="1" stop-color="#c2609d"/>
    </linearGradient>
    <linearGradient id="linear-gradient-6" x1="0.5" x2="0.5" y2="1" gradientUnits="objectBoundingBox">
      <stop offset="0" stop-color="#6a65c8"/>
      <stop offset="1" stop-color="#4641a1"/>
    </linearGradient>
    <linearGradient id="linear-gradient-7" x1="0.5" x2="0.5" y2="1" gradientUnits="objectBoundingBox">
      <stop offset="0" stop-color="#433f8f"/>
      <stop offset="1" stop-color="#7661b9"/>
    </linearGradient>
    <linearGradient id="linear-gradient-8" x1="0.963" y1="0.25" x2="0.096" y2="0.944" gradientUnits="objectBoundingBox">
      <stop offset="0" stop-color="#928bf8"/>
      <stop offset="1" stop-color="#6762c2"/>
    </linearGradient>
    <linearGradient id="linear-gradient-11" y1="1" y2="0" xlink:href="#linear-gradient-7"/>
  </defs>
  <g id="faq-ilustration" transform="translate(-419.383 -7129.12)">
    <ellipse id="Ellipse_155" data-name="Ellipse 155" cx="184.5" cy="11" rx="184.5" ry="11" transform="translate(488 7432)" fill="#f2f2f2"/>
    <path id="Path_1051" data-name="Path 1051" d="M10.132,30.269V-103.79H96.7v19.726H34.646v37.536H84.822v19.343H34.646V30.269Zm86.18,0L145.34-103.79h27.578L221.944,30.269H195.9L185.174-.756H132.891L121.975,30.269Zm43.282-50.176h38.877l-19.534-55.73ZM298.166,32.567q-20.109,0-35.142-8.81A62.361,62.361,0,0,1,239.468-.661q-8.522-15.608-8.522-36.1t8.522-36.1a62.361,62.361,0,0,1,23.556-24.418q15.034-8.81,35.142-8.81,19.917,0,35.047,8.81a61.5,61.5,0,0,1,23.556,24.418q8.427,15.608,8.427,36.1,0,19.151-7.469,34.185a60.213,60.213,0,0,1-20.683,23.843l16.623,17.672H325.833l-9.282-8.479A78.8,78.8,0,0,1,298.166,32.567Zm0-22.024a54.663,54.663,0,0,0,6.038-.336c1.348-.144,2.667-.346,4.329-.684A36.662,36.662,0,0,0,328.712-2.1q11.395-12.64,11.395-34.664T328.712-71.424q-11.395-12.64-30.546-12.64t-30.642,12.64q-11.491,12.64-11.491,34.664T267.524-2.1Q279.015,10.543,298.166,10.543Z" transform="translate(484.762 7407.173)" fill="url(#linear-gradient)"/>
    <g id="clound-left" transform="translate(443.749 7261.125)">
      <path id="Path_1184" data-name="Path 1184" d="M84.962,140.865a20.438,20.438,0,0,1,20.409-19.37c.621,0,1.234.032,1.842.087a27.154,27.154,0,0,1,46.939-.022c.512-.038,1.028-.064,1.55-.064a20.438,20.438,0,0,1,20.409,19.369" transform="translate(-84.962 -106.502)" fill="#f2f2f2"/>
      <path id="Path_1185" data-name="Path 1185" d="M102.053,134.553a20.438,20.438,0,0,1,20.409-19.37c.621,0,1.235.032,1.842.087a27.154,27.154,0,0,1,46.939-.022c.512-.038,1.028-.064,1.55-.064A20.438,20.438,0,0,1,193.2,134.553" transform="translate(-97.796 -101.762)" fill="none" stroke="#3f3d56" stroke-miterlimit="10" stroke-width="1" opacity="0.4"/>
    </g>
    <g id="left-human" transform="translate(419.383 7257.25)">
      <path id="Path_1088" data-name="Path 1088" d="M126.539,558.873h6.112L135.56,535.3h-9.022Z" transform="translate(-97.354 -375.688)" fill="#ffb8b8"/>
      <path id="Path_1089" data-name="Path 1089" d="M0,0H19.21V7.422H7.422A7.422,7.422,0,0,1,0,0Z" transform="translate(47.085 188.861) rotate(179.997)" fill="#2f2e41"/>
      <path id="Path_1090" data-name="Path 1090" d="M82.539,558.873h6.112L91.56,535.3H82.538Z" transform="translate(-75.291 -375.688)" fill="#ffb8b8"/>
      <path id="Path_1091" data-name="Path 1091" d="M0,0H19.21V7.422H7.422A7.422,7.422,0,0,1,0,0Z" transform="translate(25.148 188.861) rotate(179.997)" fill="#2f2e41"/>
      <path id="Path_1092" data-name="Path 1092" d="M262.692,638.144l-5.97-.314a2.33,2.33,0,0,1-2.2-2.476l7.136-79.006,32.861,8.867,3.166-.864-9.9,69.941a2.341,2.341,0,0,1-2.173,1.967l-6.436.3a2.33,2.33,0,0,1-2.459-2.391l1.166-41.978a.777.777,0,0,0-1.537-.179L265.1,636.29a2.316,2.316,0,0,1-2.278,1.857C262.776,638.148,262.734,638.147,262.692,638.144Z" transform="translate(-250.102 -462.21)" fill="#2f2e41"/>
      <ellipse id="Ellipse_171" data-name="Ellipse 171" cx="12.245" cy="12.245" rx="12.245" ry="12.245" transform="translate(18.038 5.004)" fill="#ffb8b8"/>
      <path id="Path_1093" data-name="Path 1093" d="M265.49,454.775l1.346,29.05.487,10.569a2.315,2.315,0,0,0,1.533,2.082l31.577,11.439a2.23,2.23,0,0,0,.8.14,2.315,2.315,0,0,0,2.325-2.387l-1.294-52.233a18.412,18.412,0,0,0-15.328-17.787c-.305-.047-.616-.093-.927-.135a18.073,18.073,0,0,0-14.541,4.707,18.564,18.564,0,0,0-5.976,14.556Z" transform="translate(-255.595 -401.55)" fill="#ccc"/>
      <path id="Path_1094" data-name="Path 1094" d="M352.393,546.714a5.017,5.017,0,0,1-2.677-7.591l-10.708-14.239,9.241-.572L357,537.921a5.041,5.041,0,0,1-4.608,8.793Z" transform="translate(-292.47 -446.146)" fill="#ffb8b8"/>
      <path id="Path_1095" data-name="Path 1095" d="M332.765,500.26A2.315,2.315,0,0,1,331.5,499l-16.133-38.437a6.214,6.214,0,1,1,11.459-4.81l16.133,38.437a2.333,2.333,0,0,1-1.247,3.05l-7.162,3.006a2.314,2.314,0,0,1-1.784.009Z" transform="translate(-280.371 -409.86)" fill="#ccc"/>
      <path id="Path_1096" data-name="Path 1096" d="M298.231,514.979l15.495-29.669A2.432,2.432,0,0,1,317,484.281l22.491,11.746a2.432,2.432,0,0,1,1.029,3.278l-15.5,29.669A2.432,2.432,0,0,1,321.751,530l-22.491-11.746a2.432,2.432,0,0,1-1.029-3.278Z" transform="translate(-271.885 -425.936)" fill="#3f3d56"/>
      <path id="Path_1097" data-name="Path 1097" d="M296.613,506.8a5.017,5.017,0,0,0-7.736-2.224l-14.847-9.849L274,503.987l14.1,7.933a5.041,5.041,0,0,0,8.506-5.119Z" transform="translate(-259.875 -431.312)" fill="#ffb8b8"/>
      <path id="Path_1098" data-name="Path 1098" d="M263.631,483.468,251.5,473.857a8.557,8.557,0,0,1-3.9-13.529l11.017-14.438a5.034,5.034,0,0,1,8.54,5.127l-8.717,14.259,12.81,6.076a2.33,2.33,0,0,1,.971,3.35l-5.171,8.184a2.334,2.334,0,0,1-1.579,1.052l-.039.006A2.341,2.341,0,0,1,263.631,483.468Z" transform="translate(-245.664 -405.897)" fill="#ccc"/>
      <path id="Path_1099" data-name="Path 1099" d="M281.79,392.98a1.064,1.064,0,0,1,.926-1.406,2.458,2.458,0,0,1,1.733.855,6.9,6.9,0,0,0,1.531,1.315,1.317,1.317,0,0,0,1.733-.313,2.411,2.411,0,0,0-.092-1.871,18.4,18.4,0,0,1-.813-4.871,8.577,8.577,0,0,1,1.226-5.209,6.892,6.892,0,0,1,5.906-2.511,39.694,39.694,0,0,1,6.634,1.175,2.228,2.228,0,0,0,2.17-.364,2.8,2.8,0,0,0,.113-2.495,17.328,17.328,0,0,0-2.625-6.258,9.422,9.422,0,0,0-6.013-3.385,14.428,14.428,0,0,0-6.712.762,18,18,0,0,0-8.816,6.142,14.576,14.576,0,0,0-2.781,10.769,13.3,13.3,0,0,0,4.929,8.4Z" transform="translate(-260.76 -367.532)" fill="#2f2e41"/>
    </g>
    <g id="Group_292" data-name="Group 292" transform="translate(809.46 7268.154)">
      <circle id="Ellipse_166" data-name="Ellipse 166" cx="14.341" cy="14.341" r="14.341" transform="translate(105.653 5.005)" fill="#2f2e41"/>
      <path id="Path_1062" data-name="Path 1062" d="M734.571,461.918a8.153,8.153,0,0,1-1.577-.156,7.794,7.794,0,0,1-5.711-4.6l-9.194-11.211a2.152,2.152,0,0,1,.531-3.193l6.541-4.049a2.151,2.151,0,0,1,2.971.712l6.48,10.676,12.41-9.172a4.647,4.647,0,0,1,5.406,7.439l-12.387,11.3a7.769,7.769,0,0,1-5.471,2.251Z" transform="translate(-639.917 -398.477)" fill="#2f2e41"/>
      <path id="Path_1055" data-name="Path 1055" d="M563.568,557.446h-5.86l-2.788-22.6h8.65Z" transform="translate(-470.074 -375.987)" fill="#e2e3c8"/>
      <path id="Path_1056" data-name="Path 1056" d="M544.225,578.626h11.3v7.116H537.109A7.116,7.116,0,0,1,544.225,578.626Z" transform="translate(-460.777 -398.842)" fill="#2f2e41"/>
      <path id="Path_1057" data-name="Path 1057" d="M658.568,557.446h-5.86l-2.788-22.6h8.65Z" transform="translate(-519.662 -375.987)" fill="#e2e3c8"/>
      <path id="Path_1058" data-name="Path 1058" d="M639.225,578.626h11.3v7.116H632.109A7.116,7.116,0,0,1,639.225,578.626Z" transform="translate(-510.365 -398.842)" fill="#2f2e41"/>
      <circle id="Ellipse_167" data-name="Ellipse 167" cx="11.741" cy="11.741" r="11.741" transform="translate(106.074 10.289)" fill="#e2e3c8"/>
      <path id="Path_1059" data-name="Path 1059" d="M770.353,468.19l5.253-12.07a15,15,0,0,0-3.322-17.018,15.242,15.242,0,0,0-1.468-1.276,14.788,14.788,0,0,0-9.078-3.141,15.382,15.382,0,0,0-6.405,1.425c-.172.076-.339.158-.512.239-.33.158-.655.33-.97.507a15.143,15.143,0,0,0-7.5,11.415L744.029,467.7c-.583,1.525-21.387,56.593-14.111,98.635a2.135,2.135,0,0,0,1.826,1.754l7.376,1a2.149,2.149,0,0,0,2.395-1.687L753.89,508.41a1.675,1.675,0,0,1,3.25-.11l17.486,62.038a2.137,2.137,0,0,0,2.06,1.568,2.444,2.444,0,0,0,.416-.038l9.01-1.735a2.137,2.137,0,0,0,1.735-2.3C786.525,553.067,779.488,479.1,770.353,468.19Z" transform="translate(-645.541 -396.543)" fill="#2f2e41"/>
      <path id="Path_1060" data-name="Path 1060" d="M706.067,416.719a4.807,4.807,0,0,0,5.064,5.355l6.563,15.771,4.964-7.359-6.993-13.848a4.833,4.833,0,0,0-9.6.081Z" transform="translate(-633.879 -384.919)" fill="#e2e3c8"/>
      <path id="Path_1061" data-name="Path 1061" d="M794.252,516.875a4.807,4.807,0,0,0,4.028-6.173l13.808-10.057-8.313-3.113-11.838,10.027a4.833,4.833,0,0,0,2.315,9.315Z" transform="translate(-677.088 -429.348)" fill="#e2e3c8"/>
      <path id="Path_1063" data-name="Path 1063" d="M814.552,482.608H814.5a2.154,2.154,0,0,1-1.583-.751l-5.816-6.785a2.151,2.151,0,0,1,.44-3.19l10.89-7.26-9.866-11.861a4.647,4.647,0,0,1,7.116-5.824l11.99,11.718a7.9,7.9,0,0,1-1.757,12.878l-9.8,10.4A2.155,2.155,0,0,1,814.552,482.608Z" transform="translate(-686.365 -402.305)" fill="#2f2e41"/>
      <path id="Path_1064" data-name="Path 1064" d="M788.215,450.541a2.212,2.212,0,0,1-.279-.018,2.133,2.133,0,0,1-1.774-1.467l-4.37-13.4a1.474,1.474,0,0,1,.762-1.78l.142-.067c.129-.061.256-.122.386-.18a15.571,15.571,0,0,1,6.5-1.445,14.974,14.974,0,0,1,8.2,2.465,1.5,1.5,0,0,1,.431,2.053l-8.2,12.843A2.129,2.129,0,0,1,788.215,450.541Z" transform="translate(-673.386 -395.239)" fill="#e6e6e6"/>
      <circle id="Ellipse_168" data-name="Ellipse 168" cx="4.693" cy="4.693" r="4.693" transform="translate(126.608 3.558)" fill="#2f2e41"/>
      <path id="Path_1065" data-name="Path 1065" d="M782.54,361.365h0a12.429,12.429,0,0,0-12.429,12.429v5.258h6.467l3.093-5.258.928,5.258h19.627l-5.258-5.258A12.429,12.429,0,0,0,782.54,361.365Z" transform="translate(-667.326 -358.272)" fill="#2f2e41"/>
      <path id="Path_1066" data-name="Path 1066" d="M834.809,359.931a7.242,7.242,0,0,1,7.878-4.969c2.99.5,5.355,2.9,6.764,5.589s2.059,5.69,3.006,8.57,2.29,5.776,4.681,7.641,6.06,2.37,8.408.452a9.617,9.617,0,0,1-17.915,3.433c-1.239-2.2-1.559-4.788-1.926-7.29s-.845-5.091-2.324-7.142-4.249-3.391-6.6-2.456Z" transform="translate(-701.097 -354.895)" fill="#2f2e41"/>
      <g id="Group_287" data-name="Group 287" transform="matrix(0.951, 0.309, -0.309, 0.951, 49.554, 22.029)">
        <g id="Group_286" data-name="Group 286" transform="translate(0.144)">
          <circle id="Ellipse_170" data-name="Ellipse 170" cx="14.012" cy="14.012" r="14.012" transform="translate(27.634 132.202)" fill="url(#linear-gradient-2)"/>
          <path id="Path_1083" data-name="Path 1083" d="M40.145,0A40.549,40.549,0,0,0,0,39.849c0,.2,0,1.624,0,3.483a10.28,10.28,0,0,0,10.278,10.28h0A10.286,10.286,0,0,0,20.563,43.319c0-1.267,0-2.142,0-2.2a19.5,19.5,0,1,1,30.01,16.412l0,0s-14.63,9.419-19.09,22.339h0a28.631,28.631,0,0,0-1.18,8.154c0,1.135.067,11.064.2,19.123a10.6,10.6,0,0,0,10.6,10.425h0a10.6,10.6,0,0,0,10.6-10.665c-.045-7.381-.069-15.974-.069-16.6,0-7.934,7.654-15.838,13.94-20.993a42.281,42.281,0,0,0,14.541-23.15,26.427,26.427,0,0,0,.761-5.737A40.438,40.438,0,0,0,40.145,0Z" fill="url(#linear-gradient-3)"/>
        </g>
        <path id="Path_1084" data-name="Path 1084" d="M13.325,32.011h0A10.28,10.28,0,0,1,3.046,21.733c0-1.86,0-3.282,0-3.484A40.058,40.058,0,0,1,7.729,0,40.149,40.149,0,0,0,0,23.123c0,.2,0,1.624,0,3.483A10.28,10.28,0,0,0,10.278,36.885h0a10.288,10.288,0,0,0,9.9-7.491A10.242,10.242,0,0,1,13.325,32.011Z" transform="translate(0 16.738)" fill="#3f3d56"/>
        <path id="Path_1085" data-name="Path 1085" d="M15.769,4.9A19.5,19.5,0,0,1,32.724,32.132,19.494,19.494,0,1,0,0,11.728,19.456,19.456,0,0,1,15.769,4.9Z" transform="translate(25.217 16.764)" fill="#3f3d56"/>
        <path id="Path_1086" data-name="Path 1086" d="M13.839,41.571h0a10.6,10.6,0,0,1-10.6-10.427c-.129-8.057-.2-17.986-.2-19.121A28.631,28.631,0,0,1,4.226,3.87h0A28.934,28.934,0,0,1,5.9,0a33.519,33.519,0,0,0-4.72,8.743h0A28.643,28.643,0,0,0,0,16.9C0,18.032.067,27.962.2,36.02a10.6,10.6,0,0,0,10.6,10.425h0a10.6,10.6,0,0,0,10.174-7.628A10.558,10.558,0,0,1,13.839,41.571Z" transform="translate(30.309 71.148)" fill="#3f3d56"/>
        <path id="Path_1087" data-name="Path 1087" d="M10.95,21.776A14.01,14.01,0,0,1,5.75,0,14.011,14.011,0,1,0,24.809,20.246,14,14,0,0,1,10.95,21.776Z" transform="translate(27.753 135.032)" fill="#3f3d56"/>
      </g>
    </g>
    <g id="Group_294" data-name="Group 294" transform="translate(672.53 7373.599)">
      <path id="Path_1108" data-name="Path 1108" d="M239.091,429.781h5.4l2.568-20.819H239.09Z" transform="translate(-181.855 -307.64)" fill="#a0616a"/>
      <path id="Path_1109" data-name="Path 1109" d="M371.753,672.451h10.63a6.774,6.774,0,0,1,6.774,6.774v.22h-17.4Z" transform="translate(-315.894 -552.072)" fill="#2f2e41"/>
      <path id="Path_1110" data-name="Path 1110" d="M133.246,403.464l-4.373,3.164-14.285-15.361,6.454-4.67Z" transform="translate(-96.902 -292.379)" fill="#a0616a"/>
      <path id="Path_1111" data-name="Path 1111" d="M290.156,641.824l-14.1,10.2-.129-.178a6.774,6.774,0,0,1,1.517-9.459h0l8.612-6.231Z" transform="translate(-249.63 -527.309)" fill="#2f2e41"/>
      <path id="Path_1112" data-name="Path 1112" d="M294.493,384.389a10.313,10.313,0,0,0-11.786,0l-4.238,35.347h12.725l1.885-11.311,4.241-16.966Z" transform="translate(-252.243 -354.23)" fill="#ccc"/>
      <path id="Path_1114" data-name="Path 1114" d="M254.259,431.745c-3.969-1.764-9.038-8.652-9.874-9.814-1.633.889-13.544,7.255-16.9,5.618-.488.269-2.692,1.585-3.089,3.569l-.1.5-.288-.418c-.053-.077-5.226-7.769,1.466-12.55,6.1-4.358,7.744-8.761,7.916-9.265l-3.311-17.5.087-.081c.272-.252,6.717-6.182,12.6-6.888l3.628-.64.159,13.811v17.681c2.932-.369,7.569-31.262,7.569-31.262l2.423.888c.626.12,7.663,1.526,9.53,4.327l.061.091-6.4,17.3-1.872,2.818v3.607l10.936,9.509-.155.163c-.373.39-8.436,8.777-13.134,8.776a3.045,3.045,0,0,1-1.247-.245Z" transform="translate(-213.746 -355.44)" fill="#3f3d56"/>
      <circle id="Ellipse_172" data-name="Ellipse 172" cx="10.543" cy="10.543" r="10.543" transform="translate(22.036 18.958) rotate(-61.337)" fill="#a0616a"/>
      <path id="Path_1116" data-name="Path 1116" d="M315.412,437.808l9.48-12.8-2.348-12.681,3.81-14.286.1-.041a4.916,4.916,0,0,1,3.288-.226,2.223,2.223,0,0,1,1.237,1.286c.943,2.358,3.217,26.373,3.313,27.435-.019.194-.486,4.774-1.435,6.673s-9.563,11.425-9.93,11.83l-.151.167Z" transform="translate(-277.45 -364.506)" fill="#3f3d56"/>
      <path id="Path_1117" data-name="Path 1117" d="M287.493,305.55c-3.51,4.414-9.525,3.605-14.337,1.99a15.252,15.252,0,0,1-2.714,9.957c.621-2.5-2-3-3.525-3.933-.588-.745-.1-1.856-.341-2.773-2.743-3.216-4.561-5.643-1.04-9.417,2.061-2.759,4.536-6.2,8.463-5.48,3.108-3.625,8.2-2.682,11.675-.147a24.824,24.824,0,0,1,4.234,3.979,16.853,16.853,0,0,1-2.2,5.524" transform="translate(-242.091 -293.5)" fill="#2f2e41"/>
      <path id="Path_1120" data-name="Path 1120" d="M277.658,530.377a4.128,4.128,0,0,0-5.324-3.425l-6.043-7.244-5.3,2.6,8.678,10.11a4.151,4.151,0,0,0,7.987-2.04Z" transform="translate(-240.318 -447.85)" fill="#a0616a"/>
      <path id="Path_1121" data-name="Path 1121" d="M242.694,450.924c-.54-.405-13.253-9.96-14.673-12.8s-1.07-11.27-1.051-11.653c.022-.133,2.235-13.3,4.107-17.978,1.942-4.856,6.828-2.967,6.877-2.947l.148.059-2.127,24.819,11.6,15.393-4.728,5.225Z" transform="translate(-217.067 -369.695)" fill="#3f3d56"/>
      <path id="Path_1113" data-name="Path 1113" d="M268.709,512.915l-22.838-7.457L234.984,514.1l11.566,17.682-6.049,7.933-.173-.2c-.75-.855-18.38-21-18.329-26.716a42.992,42.992,0,0,1,1.947-11.42l5.727-8.129,8.128-2.39,26.909,3.777.044.006,10.872,6.618a8.541,8.541,0,0,1,3.877,6.289c.467,4.2,1.406,37.853,1.415,38.193l.006.22H269.181Z" transform="translate(-213.71 -428.166)" fill="#2f2e41"/>
      <path id="Path_1119" data-name="Path 1119" d="M304.153,530.851H292.116c.451-5.554,1.907-10.74,0-14.445h12.037A16.194,16.194,0,0,1,304.153,530.851Z" transform="translate(-261.554 -445.597)" fill="#433f8f"/>
      <path id="Path_1115" data-name="Path 1115" d="M301.888,520.676a4.128,4.128,0,0,1,5.324-3.425l6.043-7.244,5.3,2.6-8.678,10.11a4.151,4.151,0,0,1-7.987-2.04Z" transform="translate(-268.197 -441.231)" fill="#a0616a"/>
    </g>
    <g id="Group_296" data-name="Group 296" transform="translate(541.537 7159.775)">
      <path id="Path_1180" data-name="Path 1180" d="M155.988,357.922a46.422,46.422,0,0,1,46.357-44c1.411,0,2.8.074,4.183.2a61.677,61.677,0,0,1,106.617-.05c1.163-.087,2.334-.146,3.52-.146a46.422,46.422,0,0,1,46.357,44" transform="translate(-155.988 -279.871)" fill="#f2f2f2"/>
      <path id="Path_1181" data-name="Path 1181" d="M197.794,342.482a46.422,46.422,0,0,1,46.357-44c1.411,0,2.8.074,4.183.2a61.677,61.677,0,0,1,106.616-.05c1.163-.087,2.334-.146,3.52-.146a46.422,46.422,0,0,1,46.357,44" transform="translate(-188.125 -268.002)" fill="none" stroke="#3f3d56" stroke-miterlimit="10" stroke-width="1" opacity="0.4"/>
    </g>
    <path id="Path_1182" data-name="Path 1182" d="M19.167,57.471h-1.8a6.092,6.092,0,0,1-6.085-6.085V49.874a18.618,18.618,0,0,1,2.109-9.32A49.025,49.025,0,0,1,19.3,32.618a34.97,34.97,0,0,0,4.016-4.84,8.141,8.141,0,0,0,1.268-4.5c0-3.757-2.448-5.583-7.483-5.583A30.381,30.381,0,0,0,8.849,18.93,6.943,6.943,0,0,1,0,12.254V9.193A6.811,6.811,0,0,1,4.018,2.951,36.769,36.769,0,0,1,19,0a36.884,36.884,0,0,1,14.46,2.69,23.338,23.338,0,0,1,9.894,7.5A18.059,18.059,0,0,1,46.9,21.138a17.8,17.8,0,0,1-3.431,10.947,62.577,62.577,0,0,1-9.595,9.776,68.366,68.366,0,0,0-6.151,5.8,10.7,10.7,0,0,0-2.557,4.761A6.069,6.069,0,0,1,19.167,57.471Z" transform="translate(763.017 7129.12) rotate(8)" fill="url(#linear-gradient-4)"/>
    <path id="Path_1183" data-name="Path 1183" d="M8.6,16.853H8.426A8.426,8.426,0,0,1,8.426,0H8.6a8.426,8.426,0,0,1,0,16.853Z" transform="translate(760.585 7194.75) rotate(8)" fill="url(#linear-gradient-5)"/>
    <g id="Group_298" data-name="Group 298" transform="translate(796.64 7257.25)">
      <path id="Path_1186" data-name="Path 1186" d="M831.938,187.235a12.97,12.97,0,0,1,12.952-12.292c.394,0,.783.021,1.169.055a17.232,17.232,0,0,1,29.787-.014c.325-.024.652-.041.983-.041a12.97,12.97,0,0,1,12.952,12.292" transform="translate(-831.938 -165.429)" fill="#f2f2f2"/>
      <path id="Path_1187" data-name="Path 1187" d="M844.569,182.57a12.97,12.97,0,0,1,12.952-12.292c.394,0,.783.021,1.169.055a17.232,17.232,0,0,1,29.787-.014c.325-.024.652-.041.983-.041a12.97,12.97,0,0,1,12.952,12.292" transform="translate(-841.868 -161.761)" fill="none" stroke="#3f3d56" stroke-miterlimit="10" stroke-width="1" opacity="0.4"/>
    </g>
    <g id="Group_301" data-name="Group 301" transform="translate(600.12 7263.924)">
      <g id="Group_300" data-name="Group 300">
        <rect id="Rectangle_180" data-name="Rectangle 180" width="61" height="23" rx="11" transform="translate(-0.12 0.076)" fill="url(#linear-gradient-6)"/>
        <g id="Group_299" data-name="Group 299" transform="translate(20.565 10.283)">
          <circle id="Ellipse_173" data-name="Ellipse 173" cx="2" cy="2" r="2" transform="translate(0.315 -0.207)" fill="#fff"/>
          <circle id="Ellipse_173-2" data-name="Ellipse 173" cx="2" cy="2" r="2" transform="translate(9.315 -0.207)" fill="#fff"/>
          <circle id="Ellipse_173-3" data-name="Ellipse 173" cx="2" cy="2" r="2" transform="translate(16.315 -0.207)" fill="#fff"/>
        </g>
      </g>
    </g>
    <g id="Group_302" data-name="Group 302" transform="translate(726.833 7235.833)">
      <path id="Path_1206" data-name="Path 1206" d="M820.414,135.727a24.453,24.453,0,1,1,8.727,11.643,7.91,7.91,0,1,1-8.727-11.643Z" transform="translate(-811.615 -95.818)" fill="url(#linear-gradient-7)"/>
      <circle id="Ellipse_179" data-name="Ellipse 179" cx="2.83" cy="2.83" r="2.83" transform="translate(19.817 27.892)" fill="#cfcce0"/>
      <circle id="Ellipse_180" data-name="Ellipse 180" cx="2.83" cy="2.83" r="2.83" transform="translate(29.471 27.892)" fill="#cfcce0"/>
      <circle id="Ellipse_181" data-name="Ellipse 181" cx="2.83" cy="2.83" r="2.83" transform="translate(39.126 27.892)" fill="#cfcce0"/>
      <path id="Path_1207" data-name="Path 1207" d="M808.5,121.453a8.489,8.489,0,0,1-.149-16.406,25.772,25.772,0,1,1,9.479,12.645A8.516,8.516,0,0,1,808.5,121.453Zm30.556-49.4a25.366,25.366,0,0,0-30.2,33.074l.084.236-.243.06a8.037,8.037,0,1,0,8.867,11.83l.125-.217.2.147a25.366,25.366,0,1,0,21.161-45.129Z" transform="translate(-802.123 -70.882)" fill="#cfcce0"/>
    </g>
    <g id="Group_303" data-name="Group 303" transform="translate(504.338 7261.327)">
      <path id="Path_1214" data-name="Path 1214" d="M579.464,381.45c-2.284,1.37-6.354,3.087-10.513,1.322l-2.688-1.14,5.388-6.039a25.73,25.73,0,1,1,7.814,5.857Z" transform="translate(-564.979 -332.576)" fill="url(#linear-gradient-8)"/>
      <path id="Path_1215" data-name="Path 1215" d="M694.294,364.134a23.679,23.679,0,0,0-21.584-23.585c.688-.061,1.386-.093,2.091-.093a23.678,23.678,0,0,1,0,47.357c-.7,0-1.4-.033-2.089-.093A23.679,23.679,0,0,0,694.294,364.134Z" transform="translate(-646.842 -338.564)" fill="#433f8f" opacity="0.1"/>
      <rect id="Rectangle_187" data-name="Rectangle 187" width="16.919" height="1.571" transform="translate(12.152 20.848)" fill="#fff"/>
      <rect id="Rectangle_188" data-name="Rectangle 188" width="29.489" height="1.571" transform="translate(12.152 26.284)" fill="#fff"/>
      <rect id="Rectangle_189" data-name="Rectangle 189" width="29.46" height="1.571" transform="translate(12.152 31.719)" fill="#fff"/>
    </g>
    <g id="Paper_plane_1" transform="translate(784.383 7192.623)">
      <g id="Group_305" data-name="Group 305" transform="translate(51.268 -14.852) rotate(3)">
        <path id="Plane_path" d="M0,0V3.637a.588.588,0,0,0,1.062.348l2.128-2.9Z" transform="translate(7.411 15.342) rotate(-8)" fill="url(#linear-gradient-7)"/>
        <path id="Plane_1" d="M18.575.109a.588.588,0,0,0-.613-.042L.316,9.281A.588.588,0,0,0,.4,10.36L5.3,12.036,15.75,3.1,7.666,12.843l8.221,2.81a.6.6,0,0,0,.19.031.588.588,0,0,0,.582-.5L18.815.675a.589.589,0,0,0-.241-.566Z" transform="translate(0 2.619) rotate(-8)" fill="url(#linear-gradient-7)"/>
      </g>
      <path id="Paper_plane_path" d="M-20.268,64.405s40.135-11.86,53.873-15.429,17.554-12.824,15.8-25.325S38.5,8.26,26.937,5.727,6.188,7.61,3.168,13.52,8.4,28.294,14.857,29.366s10.9-2.063,18.008-9.206S41.193,4.842,43.8,0" transform="translate(14.349 5.737)" fill="none" stroke="#6e5cb3" stroke-linecap="round" stroke-width="1" stroke-dasharray="2 5"/>
    </g>
    <g id="Paper_plane_1-2" data-name="Paper_plane_1" transform="translate(438.464 7156.771)">
      <g id="Group_305-2" data-name="Group 305" transform="translate(21.815 19.499) rotate(177)">
        <path id="Plane_path-2" data-name="Plane_path" d="M0,4.225V.588A.588.588,0,0,1,1.062.24l2.128,2.9Z" transform="translate(7.999 0) rotate(8)" fill="url(#linear-gradient-11)"/>
        <path id="Plane_1-2" data-name="Plane_1" d="M18.575,15.576a.588.588,0,0,1-.613.042L.316,6.4A.588.588,0,0,1,.4,5.325L5.3,3.648,15.75,12.581,7.666,2.841,15.887.031A.6.6,0,0,1,16.077,0a.588.588,0,0,1,.582.5l2.157,14.508A.589.589,0,0,1,18.575,15.576Z" transform="translate(2.183 1.375) rotate(8)" fill="url(#linear-gradient-11)"/>
      </g>
      <path id="Paper_plane_path-2" data-name="Paper_plane_path" d="M-21.64-23.613s6.632,23.088,17.193,28S25.763-6.666,44.184.457s11.3,38.315,5.4,48.14-23.133,8.2-26.152,2.288,5.228-14.774,11.69-15.846,10.9,2.063,18.008,9.206,8.328,15.317,10.937,20.16" transform="translate(77.98 84.994) rotate(180)" fill="none" stroke="#6e5cb3" stroke-linecap="round" stroke-width="1" stroke-dasharray="2 5"/>
    </g>
  </g>
</svg>
