<svg id="hero-bg-mobile" xmlns="http://www.w3.org/2000/svg" xmlns:xlink="http://www.w3.org/1999/xlink" width="768.306" height="812.336" viewBox="0 0 768.306 812.336">
  <defs>
    <linearGradient id="linear-gradient" x1="0.5" x2="0.5" y2="1" gradientUnits="objectBoundingBox">
      <stop offset="0" stop-color="#2a2c7d"/>
      <stop offset="1" stop-color="#8370bf"/>
    </linearGradient>
    <filter id="Exclusion_3" x="179.744" y="345.715" width="410.42" height="410.42" filterUnits="userSpaceOnUse">
      <feOffset dy="11" input="SourceAlpha"/>
      <feGaussianBlur stdDeviation="17.5" result="blur"/>
      <feFlood flood-opacity="0.11"/>
      <feComposite operator="in" in2="blur"/>
      <feComposite in="SourceGraphic"/>
    </filter>
  </defs>
  <rect id="Rectangle_194" data-name="Rectangle 194" width="768" height="812" fill="url(#linear-gradient)"/>
  <g id="road" transform="translate(-352.322 199.195)" opacity="0.15">
    <rect id="Rectangle_28" data-name="Rectangle 28" width="19.466" height="789.589" transform="translate(1111.211 -95.021) rotate(73)" fill="#fff"/>
    <rect id="Rectangle_31" data-name="Rectangle 31" width="19.466" height="438.928" transform="matrix(0.848, 0.53, -0.53, 0.848, 586.34, 207.633)" fill="#fff"/>
    <g transform="matrix(1, 0, 0, 1, 352.32, -199.2)" filter="url(#Exclusion_3)">
      <path id="Exclusion_3-2" data-name="Exclusion 3" d="M135.209,270.417a136.209,136.209,0,0,1-27.249-2.747,134.467,134.467,0,0,1-48.347-20.344,135.6,135.6,0,0,1-48.987-59.488,134.528,134.528,0,0,1-7.878-25.38,136.527,136.527,0,0,1,0-54.5A134.468,134.468,0,0,1,23.092,59.612,135.6,135.6,0,0,1,82.579,10.625a134.527,134.527,0,0,1,25.38-7.878,136.527,136.527,0,0,1,54.5,0,134.468,134.468,0,0,1,48.347,20.345,135.6,135.6,0,0,1,48.987,59.488,134.529,134.529,0,0,1,7.878,25.38,136.527,136.527,0,0,1,0,54.5,134.467,134.467,0,0,1-20.344,48.347,135.6,135.6,0,0,1-59.488,48.987,134.529,134.529,0,0,1-25.38,7.878A136.208,136.208,0,0,1,135.209,270.417Zm0-250.862A115.654,115.654,0,1,0,250.862,135.209,115.785,115.785,0,0,0,135.209,19.555Z" transform="translate(232.24 424.85) rotate(-8)" fill="#fff"/>
    </g>
    <rect id="Rectangle_23" data-name="Rectangle 23" width="19.466" height="285.452" transform="translate(563.655 76.873) rotate(-8)" fill="#fff"/>
    <rect id="Rectangle_24" data-name="Rectangle 24" width="19.466" height="290.828" transform="translate(851.965 325.143) rotate(-8)" fill="#fff"/>
    <rect id="Rectangle_193" data-name="Rectangle 193" width="19.466" height="491.86" transform="translate(935.795 -39.857) rotate(-8)" fill="#fff"/>
    <rect id="Rectangle_27" data-name="Rectangle 27" width="19.466" height="134.367" transform="translate(622.659 477.437)" fill="#fff"/>
    <rect id="Rectangle_25" data-name="Rectangle 25" width="19.466" height="400.098" transform="translate(359.888 530.306) rotate(-98)" fill="#fff"/>
    <rect id="Rectangle_26" data-name="Rectangle 26" width="19.466" height="403.386" transform="translate(721.167 226.114) rotate(-98)" fill="#fff"/>
    <rect id="Rectangle_33" data-name="Rectangle 33" width="19.466" height="249.813" transform="translate(873.211 472.903) rotate(-98)" fill="#fff"/>
    <g id="points" transform="translate(414.395 135.267)">
      <ellipse id="Ellipse_6" data-name="Ellipse 6" cx="5.084" cy="5.546" rx="5.084" ry="5.546" transform="translate(409.507 286.562)" fill="#0f993e"/>
      <ellipse id="Ellipse_11" data-name="Ellipse 11" cx="5.546" cy="5.084" rx="5.546" ry="5.084" transform="translate(492.359 48.295)" fill="#ffd500"/>
      <ellipse id="Ellipse_10" data-name="Ellipse 10" cx="5.084" cy="5.084" rx="5.084" ry="5.084" transform="translate(213.535 411.356)" fill="#167ee6"/>
      <ellipse id="Ellipse_7" data-name="Ellipse 7" cx="5.084" cy="5.546" rx="5.084" ry="5.546" transform="translate(162.694 0)" fill="#0f993e"/>
      <ellipse id="Ellipse_8" data-name="Ellipse 8" cx="5.546" cy="5.084" rx="5.546" ry="5.084" transform="translate(167.316 31.429)" fill="#d93f21"/>
    </g>
  </g>
</svg>
