<svg xmlns="http://www.w3.org/2000/svg" xmlns:xlink="http://www.w3.org/1999/xlink" width="1055.204" height="669.122" viewBox="0 0 1055.204 669.122">
  <defs>
    <filter id="Exclusion_3" x="532.065" y="188.329" width="410.42" height="410.42" filterUnits="userSpaceOnUse">
      <feOffset dy="11" input="SourceAlpha"/>
      <feGaussianBlur stdDeviation="17.5" result="blur"/>
      <feFlood flood-opacity="0.11"/>
      <feComposite operator="in" in2="blur"/>
      <feComposite in="SourceGraphic"/>
    </filter>
  </defs>
  <g id="road" transform="translate(0 41.809)" opacity="0.15">
    <rect id="Rectangle_15" data-name="Rectangle 15" width="19.466" height="363.011" transform="translate(211.304 252.955) rotate(20)" fill="#fff"/>
    <rect id="Rectangle_20" data-name="Rectangle 20" width="19.466" height="475.026" transform="translate(494.288 368.259) rotate(83)" fill="#fff"/>
    <rect id="Rectangle_28" data-name="Rectangle 28" width="19.466" height="979.985" transform="translate(937.164 -41.809) rotate(73)" fill="#fff"/>
    <rect id="Rectangle_29" data-name="Rectangle 29" width="19.466" height="261.077" transform="translate(466.693 152.078) rotate(73)" fill="#fff"/>
    <rect id="Rectangle_32" data-name="Rectangle 32" width="19.466" height="279.49" transform="translate(1020.872 449.883) rotate(172)" fill="#fff"/>
    <rect id="Rectangle_31" data-name="Rectangle 31" width="19.466" height="199.928" transform="matrix(0.848, 0.53, -0.53, 0.848, 586.34, 207.633)" fill="#fff"/>
    <rect id="Rectangle_16" data-name="Rectangle 16" width="19.466" height="255.686" transform="matrix(0.982, -0.191, 0.191, 0.982, 161.7, 12.337)" fill="#fff"/>
    <rect id="Rectangle_30" data-name="Rectangle 30" width="19.466" height="153.049" transform="translate(460.827 16.973) rotate(3)" fill="#fff"/>
    <rect id="Rectangle_18" data-name="Rectangle 18" width="19.466" height="127.317" transform="matrix(0.891, -0.454, 0.454, 0.891, 378.366, 396.305)" fill="#fff"/>
    <rect id="Rectangle_19" data-name="Rectangle 19" width="19.466" height="91.016" transform="translate(434.072 499.874) rotate(3)" fill="#fff"/>
    <g transform="matrix(1, 0, 0, 1, 0, -41.81)" filter="url(#Exclusion_3)">
      <path id="Exclusion_3-2" data-name="Exclusion 3" d="M135.209,270.417a136.209,136.209,0,0,1-27.249-2.747,134.467,134.467,0,0,1-48.347-20.344,135.6,135.6,0,0,1-48.987-59.488,134.528,134.528,0,0,1-7.878-25.38,136.527,136.527,0,0,1,0-54.5A134.468,134.468,0,0,1,23.092,59.612,135.6,135.6,0,0,1,82.579,10.625a134.527,134.527,0,0,1,25.38-7.878,136.527,136.527,0,0,1,54.5,0,134.468,134.468,0,0,1,48.347,20.345,135.6,135.6,0,0,1,48.987,59.488,134.529,134.529,0,0,1,7.878,25.38,136.527,136.527,0,0,1,0,54.5,134.467,134.467,0,0,1-20.344,48.347,135.6,135.6,0,0,1-59.488,48.987,134.529,134.529,0,0,1-25.38,7.878A136.208,136.208,0,0,1,135.209,270.417Zm0-250.862A115.654,115.654,0,1,0,250.862,135.209,115.785,115.785,0,0,0,135.209,19.555Z" transform="translate(584.57 267.46) rotate(-8)" fill="#fff"/>
    </g>
    <rect id="Rectangle_23" data-name="Rectangle 23" width="19.466" height="285.452" transform="translate(563.655 76.873) rotate(-8)" fill="#fff"/>
    <rect id="Rectangle_24" data-name="Rectangle 24" width="19.466" height="305.14" transform="translate(851.965 325.143) rotate(-8)" fill="#fff"/>
    <rect id="Rectangle_27" data-name="Rectangle 27" width="19.466" height="114.347" transform="translate(622.659 477.437)" fill="#fff"/>
    <rect id="Rectangle_25" data-name="Rectangle 25" width="19.466" height="316.509" transform="translate(442.664 518.672) rotate(-98)" fill="#fff"/>
    <rect id="Rectangle_26" data-name="Rectangle 26" width="19.466" height="335.996" transform="translate(721.167 226.114) rotate(-98)" fill="#fff"/>
    <rect id="Rectangle_33" data-name="Rectangle 33" width="19.466" height="183.781" transform="translate(873.211 472.903) rotate(-98)" fill="#fff"/>
    <rect id="Rectangle_17" data-name="Rectangle 17" width="19.466" height="262.706" transform="translate(283.551 394.134) rotate(83)" fill="#fff"/>
    <g id="points" transform="translate(414.395 135.267)">
      <ellipse id="Ellipse_6" data-name="Ellipse 6" cx="5.084" cy="5.546" rx="5.084" ry="5.546" transform="translate(409.507 286.562)" fill="#0f993e"/>
      <ellipse id="Ellipse_9" data-name="Ellipse 9" cx="5.546" cy="5.546" rx="5.546" ry="5.546" transform="translate(0 316.143)" fill="#0f993e"/>
      <ellipse id="Ellipse_11" data-name="Ellipse 11" cx="5.546" cy="5.084" rx="5.546" ry="5.084" transform="translate(521.359 45.295)" fill="#ffd500"/>
      <ellipse id="Ellipse_12" data-name="Ellipse 12" cx="5.546" cy="5.084" rx="5.546" ry="5.084" transform="translate(570.352 163.618)" fill="#d93f21"/>
      <ellipse id="Ellipse_10" data-name="Ellipse 10" cx="5.084" cy="5.084" rx="5.084" ry="5.084" transform="translate(213.535 411.356)" fill="#167ee6"/>
      <ellipse id="Ellipse_7" data-name="Ellipse 7" cx="5.084" cy="5.546" rx="5.084" ry="5.546" transform="translate(162.694 0)" fill="#0f993e"/>
      <ellipse id="Ellipse_8" data-name="Ellipse 8" cx="5.546" cy="5.084" rx="5.546" ry="5.084" transform="translate(167.316 31.429)" fill="#d93f21"/>
    </g>
  </g>
</svg>
