<svg id="facebook" xmlns="http://www.w3.org/2000/svg" width="29.943" height="29.943" viewBox="0 0 29.943 29.943">
  <path id="Path_257" data-name="Path 257" d="M28.29,0H1.651A1.652,1.652,0,0,0,0,1.653V28.291a1.652,1.652,0,0,0,1.653,1.651H28.29a1.652,1.652,0,0,0,1.653-1.652h0V1.651A1.652,1.652,0,0,0,28.29,0Zm0,0" transform="translate(0 0)" fill="#4267b2"/>
  <path id="Path_258" data-name="Path 258" d="M8.568,25.421V13.841h3.9l.585-4.532H8.568V6.422c0-1.309.363-2.2,2.241-2.2h2.379V.178A31.985,31.985,0,0,0,9.7,0C6.25,0,3.889,2.105,3.889,5.973V9.309H0v4.532H3.889V25.421Zm0,0" transform="translate(12.106 4.522)" fill="#fff"/>
</svg>
