<svg xmlns="http://www.w3.org/2000/svg" width="38.666" height="24.045" viewBox="0 0 38.666 24.045">
  <g id="tripadvisor" transform="translate(0 0)">
    <path id="Path_259" data-name="Path 259" d="M38.666,101.512H31.851a18.983,18.983,0,0,0-25.036,0H0a14.893,14.893,0,0,1,2.175,3.649A9.408,9.408,0,0,0,0,111.179a9.642,9.642,0,0,0,17.4,5.752l2.03,3.915,1.861-3.891a9.638,9.638,0,0,0,17.375-5.776,9.408,9.408,0,0,0-2.175-6.017A14.892,14.892,0,0,1,38.666,101.512Zm-29,16.916a7.25,7.25,0,1,1,7.25-7.25A7.271,7.271,0,0,1,9.666,118.429Zm9.666-7.25a9.672,9.672,0,0,0-8.6-9.57,16.664,16.664,0,0,1,17.206,0A9.672,9.672,0,0,0,19.333,111.179ZM29,118.429a7.25,7.25,0,1,1,7.25-7.25A7.271,7.271,0,0,1,29,118.429Z" transform="translate(0 -96.8)" fill="#37474f"/>
    <path id="Path_260" data-name="Path 260" d="M159.286,131.192a9.672,9.672,0,0,0-8.6,9.57,9.672,9.672,0,0,0-8.6-9.57A16.664,16.664,0,0,1,159.286,131.192Z" transform="translate(-131.35 -126.383)" fill="#ffeb3b"/>
    <g id="Group_8" data-name="Group 8" transform="translate(4.833 9.546)">
      <path id="Path_261" data-name="Path 261" d="M68.833,232.866a4.833,4.833,0,1,1,4.833-4.833A4.838,4.838,0,0,1,68.833,232.866Zm0-7.25a2.417,2.417,0,1,0,2.417,2.417A2.421,2.421,0,0,0,68.833,225.617Z" transform="translate(-64 -223.2)" fill="#37474f"/>
      <path id="Path_262" data-name="Path 262" d="M324.833,232.866a4.833,4.833,0,1,1,4.833-4.833A4.838,4.838,0,0,1,324.833,232.866Zm0-7.25a2.417,2.417,0,1,0,2.417,2.417A2.419,2.419,0,0,0,324.833,225.617Z" transform="translate(-300.667 -223.2)" fill="#37474f"/>
    </g>
    <circle id="Ellipse_15" data-name="Ellipse 15" cx="1.208" cy="1.208" r="1.208" transform="translate(8.458 13.17)" fill="#f44336"/>
    <circle id="Ellipse_16" data-name="Ellipse 16" cx="1.208" cy="1.208" r="1.208" transform="translate(27.791 13.17)" fill="#4caf50"/>
  </g>
</svg>
