<svg id="google" xmlns="http://www.w3.org/2000/svg" width="112.752" height="112.752" viewBox="0 0 112.752 112.752">
  <path id="Path_1" data-name="Path 1" d="M316.8,211.481l-45.991,0a3.677,3.677,0,0,0-3.677,3.677v14.692a3.677,3.677,0,0,0,3.677,3.677h25.9a34.575,34.575,0,0,1-14.882,17.44l11.043,19.117c17.715-10.245,28.188-28.222,28.188-48.345a37.266,37.266,0,0,0-.634-7.22A3.693,3.693,0,0,0,316.8,211.481Z" transform="translate(-208.304 -164.907)" fill="#167ee6"/>
  <path id="Path_2" data-name="Path 2" d="M83.209,351.019a34.309,34.309,0,0,1-29.682-17.172L34.411,344.865A56.331,56.331,0,0,0,111.4,365.528V365.5l-11.043-19.117A34.059,34.059,0,0,1,83.209,351.019Z" transform="translate(-26.833 -260.328)" fill="#12b347"/>
  <path id="Path_3" data-name="Path 3" d="M284.188,409.922V409.9l-11.043-19.117A34.06,34.06,0,0,1,256,395.414v22.06A56.28,56.28,0,0,0,284.188,409.922Z" transform="translate(-199.624 -304.722)" fill="#0f993e"/>
  <path id="Path_4" data-name="Path 4" d="M22.06,156.281a34.061,34.061,0,0,1,4.634-17.143L7.578,128.119a56.118,56.118,0,0,0,0,56.324l19.116-11.018A34.061,34.061,0,0,1,22.06,156.281Z" transform="translate(0 -99.905)" fill="#ffd500"/>
  <path id="Path_5" data-name="Path 5" d="M83.209,22.06A34.158,34.158,0,0,1,105,29.882a3.663,3.663,0,0,0,4.929-.222l10.41-10.41a3.7,3.7,0,0,0-.212-5.418A56.253,56.253,0,0,0,34.411,28.214L53.527,39.233A34.309,34.309,0,0,1,83.209,22.06Z" transform="translate(-26.833 0)" fill="#ff4b26"/>
  <path id="Path_6" data-name="Path 6" d="M277.787,29.882a3.663,3.663,0,0,0,4.929-.222l10.41-10.41a3.7,3.7,0,0,0-.212-5.418A56.206,56.206,0,0,0,256,0V22.06A34.158,34.158,0,0,1,277.787,29.882Z" transform="translate(-199.624 0)" fill="#d93f21"/>
</svg>
