<svg xmlns="http://www.w3.org/2000/svg" xmlns:xlink="http://www.w3.org/1999/xlink" width="1920" height="1080.001" viewBox="0 0 1920 1080.001">
  <defs>
    <linearGradient id="linear-gradient" y1="0.478" x2="1" y2="0.478" gradientUnits="objectBoundingBox">
      <stop offset="0" stop-color="#2a2c7d"/>
      <stop offset="1" stop-color="#6552a1"/>
    </linearGradient>
  </defs>
  <path id="hero-bg-desktop" d="M1981.287,1117.331H1726.923l-31.407-223.475,285.771-40.163V1117.33Zm-797.758,0H853.358l7.029-134.122,323.141-45.415V1117.33Zm-367.222,0H209.339l110.65-304.007,223.485-27.44,181-22.224L824.548,960.071l-8.241,157.259Zm-646.343,0H61.287V845.088l217.484-26.7L169.964,1117.33Zm1519.6,0H1220.53V932.593l216.626-30.444a258.9,258.9,0,0,0,50.564-12.38,255.591,255.591,0,0,0,85.621-51.083,258.425,258.425,0,0,0,59.08-78.4c1.864-3.816,3.656-7.728,5.325-11.625ZM858.929,946.049h0L763.552,758.86,944.035,736.7l-.06-.484.52.326,171.326-274.179,31.067,221.055a258.954,258.954,0,0,0,12.38,50.564,255.6,255.6,0,0,0,51.084,85.62,258.416,258.416,0,0,0,78.4,59.081c3.8,1.856,7.709,3.648,11.626,5.325L858.929,946.049ZM1401.24,867.5a218.181,218.181,0,0,1-77.286-14.144A220.817,220.817,0,0,1,1209.038,754.1a218.547,218.547,0,0,1-15.987-36.224A221.107,221.107,0,0,1,1181.97,633.8a218.684,218.684,0,0,1,21.863-82.421,220.977,220.977,0,0,1,84.716-92.393,218.624,218.624,0,0,1,82.246-29.031,221.532,221.532,0,0,1,30.743-2.157,218.178,218.178,0,0,1,77.285,14.144A220.817,220.817,0,0,1,1593.738,541.2a218.566,218.566,0,0,1,15.987,36.224,220.888,220.888,0,0,1,9.354,39.63c16.87,120.035-67.061,231.415-187.1,248.285A221.652,221.652,0,0,1,1401.24,867.5Zm289.126-10.281h0l-34.341-244.344,0-.017q-.066-.487-.134-.973a258.947,258.947,0,0,0-12.379-50.564,255.583,255.583,0,0,0-51.084-85.62,258.418,258.418,0,0,0-78.4-59.08c-3.8-1.858-7.712-3.65-11.625-5.326l331.75-46.624,65.1,463.193-208.878,29.356Zm245.518-34.506h0l-65.1-463.192,110.5-15.53V816.329l-45.4,6.381Zm-1874.6-14.9h0V485.091l316.964-96.906L398.129,490.45,292.974,779.361,61.287,807.809Zm272.9-33.509h0L436.407,493.464,431.285,467.1l465.837-142.42.527.028.01-.192.233-.071-.2-.641,5.029-95.97,172.715-52.8,32.37,230.326L922.4,702.078l-383.437,47.08L334.192,774.3Zm830.84-227.66-53.766-382.56L1525.848,37.33h455.439V306.624l-615.667,86.526a258.891,258.891,0,0,0-50.563,12.379,255.613,255.613,0,0,0-85.62,51.083,258.434,258.434,0,0,0-59.08,78.4c-1.857,3.8-3.648,7.71-5.324,11.622ZM61.287,446.4h0V37.33H310.052l61.1,314.335L61.287,446.4Zm362.9-15.816h0L413.83,377.308,865.071,239.35l-3.006,57.361L424.185,430.585Zm-17.455-89.8h0L347.744,37.33H875.659l-8.527,162.7-460.4,140.759ZM904.786,188.517h0L912.71,37.33H1399.3L904.786,188.517Z" transform="translate(-61.287 -37.33)" fill="url(#linear-gradient)"/>
</svg>
