<svg xmlns="http://www.w3.org/2000/svg" xmlns:xlink="http://www.w3.org/1999/xlink" width="1140.573" height="808.612" viewBox="0 0 1140.573 808.612">
  <defs>
    <linearGradient id="linear-gradient" x1="0.5" y1="1" x2="0.5" gradientUnits="objectBoundingBox">
      <stop offset="0" stop-color="gray" stop-opacity="0.251"/>
      <stop offset="0.54" stop-color="gray" stop-opacity="0.122"/>
      <stop offset="1" stop-color="gray" stop-opacity="0.102"/>
    </linearGradient>
    <linearGradient id="linear-gradient-2" y1="1.406" x2="0.893" y2="-0.13" gradientUnits="objectBoundingBox">
      <stop offset="0" stop-color="#2a2c7d"/>
      <stop offset="1" stop-color="#8370bf"/>
    </linearGradient>
    <linearGradient id="linear-gradient-3" x1="0.81" y1="-0.015" x2="0.151" y2="0.936" gradientUnits="objectBoundingBox">
      <stop offset="0" stop-color="#ffb8e4"/>
      <stop offset="1" stop-color="#b3568f"/>
    </linearGradient>
    <linearGradient id="linear-gradient-4" x1="0.844" y1="0.128" x2="0.006" y2="0.868" gradientUnits="objectBoundingBox">
      <stop offset="0" stop-color="#ff88d1"/>
      <stop offset="1" stop-color="#b3568f"/>
    </linearGradient>
    <linearGradient id="linear-gradient-5" x1="1.11" y1="1.11" x2="0.02" gradientUnits="objectBoundingBox">
      <stop offset="0" stop-color="#fba8db"/>
      <stop offset="1" stop-color="#b3568f"/>
    </linearGradient>
  </defs>
  <g id="login-new" transform="translate(-296.427 -58.658)">
    <g id="login" transform="translate(296.428 80)">
      <path id="Path_1295" data-name="Path 1295" d="M38.48,470.82c20.16-32.93,65.75-27.19,98.08-10s64.59,42.85,100.17,37.92c30-4.16,54.6-30.32,67.89-60.5s17.19-64.21,20.93-97.54q7.05-62.81,14.09-125.7c1.72-15.33,3.75-31.51,12.37-43.64,11.39-16,32.27-20.92,50.13-16.11s33.09,17.71,46.12,32.1C490,233.43,513.65,295.72,550.14,347c7.43,10.44,15.82,20.76,26.92,25.8,16,7.25,34.37,2.12,50-5.95,51-26.29,85.26-79.94,118.93-130,16.38-24.33,36.35-50.35,63.6-53C838.26,181,863.15,205.43,880,231.3c54.08,83.24,65.67,196.88,131,269.48,8.11,9,17.06,17.32,27.37,22.91a70.646,70.646,0,0,0,10.6,4.65c57,19.73,76,98.93,33.84,145.89-.91,1-1.84,2-2.78,3-6.26,6.61-13.35,12.86-21.81,14.83-7.87,1.82-16-.28-23.8-2.55-49.86-14.55-99.12-36.79-150.67-35.71-50.16,1-97.74,24.17-147.34,32.51-33.35,5.61-67.28,4.49-101,3.28q-168.46-6.06-336.85-14.1c-55.72-2.56-111.46-5-167.17-7.85-42.92-2.23-70.26-7.14-75.24-56.95C51.79,567.07,12.63,513.06,38.48,470.82Z" transform="translate(-29.72 -56.36)" fill="#422c9a" opacity="0.1"/>
      <ellipse id="Ellipse_207" data-name="Ellipse 207" cx="269.99" cy="37.73" rx="269.99" ry="37.73" transform="translate(519.91 711.81)" fill="#30374e"/>
      <path id="Path_1381" data-name="Path 1381" d="M966.7,785.29s46.74-58.16,43.64-116.41a113.05,113.05,0,0,1,18.54-69.06,190.185,190.185,0,0,1,22-27" transform="translate(-29.72 -56.36)" fill="none" stroke="#535461" stroke-miterlimit="10" stroke-width="2"/>
      <path id="Path_1382" data-name="Path 1382" d="M1049.11,536.14c-3.34,8.11,1.66,37.68,1.66,37.68s24.37-17.48,27.71-25.59a15.88,15.88,0,1,0-29.37-12.09Z" transform="translate(-29.72 -56.36)" fill="#422c9a"/>
      <path id="Path_1383" data-name="Path 1383" d="M1006.33,571.08c1.61,8.62,21.88,30.72,21.88,30.72s11-27.91,9.35-36.54a15.884,15.884,0,1,0-31.23,5.82Z" transform="translate(-29.72 -56.36)" fill="#422c9a"/>
      <path id="Path_1384" data-name="Path 1384" d="M975.79,648.3c5.74,6.63,34.4,15.48,34.4,15.48s-4.64-29.63-10.38-36.27a15.878,15.878,0,1,0-24,20.792Z" transform="translate(-29.72 -56.36)" fill="#422c9a"/>
      <path id="Path_1385" data-name="Path 1385" d="M965.84,711.93c4.53,7.51,31.28,21.07,31.28,21.07s.44-30-4.09-37.5a15.884,15.884,0,0,0-27.19,16.43Z" transform="translate(-29.72 -56.36)" fill="#422c9a"/>
      <path id="Path_1386" data-name="Path 1386" d="M1058.4,616.07c-8.14,3.25-37.66-2.05-37.66-2.05s17.72-24.19,25.87-27.45a15.884,15.884,0,0,1,11.79,29.5Z" transform="translate(-29.72 -56.36)" fill="#422c9a"/>
      <path id="Path_1387" data-name="Path 1387" d="M1045.82,690.34c-8.74.67-35.32-13.22-35.32-13.22s24.14-17.79,32.89-18.46a15.888,15.888,0,1,1,2.43,31.683Z" transform="translate(-29.72 -56.36)" fill="#422c9a"/>
      <path id="Path_1388" data-name="Path 1388" d="M1023.69,760.84c-8.51,2.14-37.05-7.06-37.05-7.06s20.79-21.61,29.3-23.74a15.88,15.88,0,0,1,7.75,30.8Z" transform="translate(-29.72 -56.36)" fill="#422c9a"/>
      <path id="Path_1389" data-name="Path 1389" d="M1049.11,536.14c-3.34,8.11,1.66,37.68,1.66,37.68s24.37-17.48,27.71-25.59a15.88,15.88,0,1,0-29.37-12.09Z" transform="translate(-29.72 -56.36)" opacity="0.25"/>
      <path id="Path_1390" data-name="Path 1390" d="M1006.33,571.08c1.61,8.62,21.88,30.72,21.88,30.72s11-27.91,9.35-36.54a15.884,15.884,0,1,0-31.23,5.82Z" transform="translate(-29.72 -56.36)" opacity="0.25"/>
      <path id="Path_1391" data-name="Path 1391" d="M975.79,648.3c5.74,6.63,34.4,15.48,34.4,15.48s-4.64-29.63-10.38-36.27a15.878,15.878,0,1,0-24,20.792Z" transform="translate(-29.72 -56.36)" opacity="0.25"/>
      <path id="Path_1392" data-name="Path 1392" d="M965.84,711.93c4.53,7.51,31.28,21.07,31.28,21.07s.44-30-4.09-37.5a15.884,15.884,0,0,0-27.19,16.43Z" transform="translate(-29.72 -56.36)" opacity="0.25"/>
      <path id="Path_1393" data-name="Path 1393" d="M1058.4,616.07c-8.14,3.25-37.66-2.05-37.66-2.05s17.72-24.19,25.87-27.45a15.884,15.884,0,0,1,11.79,29.5Z" transform="translate(-29.72 -56.36)" opacity="0.25"/>
      <path id="Path_1394" data-name="Path 1394" d="M1045.82,690.34c-8.74.67-35.32-13.22-35.32-13.22s24.14-17.79,32.89-18.46a15.888,15.888,0,1,1,2.43,31.683Z" transform="translate(-29.72 -56.36)" opacity="0.25"/>
      <path id="Path_1395" data-name="Path 1395" d="M1023.69,760.84c-8.51,2.14-37.05-7.06-37.05-7.06s20.79-21.61,29.3-23.74a15.88,15.88,0,0,1,7.75,30.8Z" transform="translate(-29.72 -56.36)" opacity="0.25"/>
      <path id="Path_1396" data-name="Path 1396" d="M967.12,782.86s66.3-34.24,87.07-88.74a113,113,0,0,1,44.94-55.63,189.909,189.909,0,0,1,31-15.76" transform="translate(-29.72 -56.36)" fill="none" stroke="#535461" stroke-miterlimit="10" stroke-width="2"/>
      <path id="Path_1397" data-name="Path 1397" d="M1143.42,588.46c-6.34,6.07-13.75,35.13-13.75,35.13s29.36-6.11,35.7-12.17a15.9,15.9,0,0,0-21.95-23Z" transform="translate(-29.72 -56.36)" fill="#422c9a"/>
      <path id="Path_1398" data-name="Path 1398" d="M1090.16,603.07c-2,8.54,7.55,37,7.55,37S1119,619,1121.06,610.41a15.88,15.88,0,1,0-30.9-7.34Z" transform="translate(-29.72 -56.36)" fill="#422c9a"/>
      <path id="Path_1399" data-name="Path 1399" d="M1030.94,661.29c2.56,8.39,25.18,28.09,25.18,28.09s7.77-29,5.21-37.35a15.885,15.885,0,1,0-30.39,9.26Z" transform="translate(-29.72 -56.36)" fill="#422c9a"/>
      <path id="Path_1400" data-name="Path 1400" d="M996.06,715.43c1.1,8.71,20.06,31.94,20.06,31.94s12.56-27.23,11.45-35.94a15.881,15.881,0,1,0-31.51,4Z" transform="translate(-29.72 -56.36)" fill="#422c9a"/>
      <path id="Path_1401" data-name="Path 1401" d="M1119.53,665.3c-8.77-.32-33.6-17.13-33.6-17.13s26-14.93,34.77-14.61a15.881,15.881,0,1,1-1.17,31.74Z" transform="translate(-29.72 -56.36)" fill="#422c9a"/>
      <path id="Path_1402" data-name="Path 1402" d="M1077.93,728.1c-8.27-2.93-26.94-26.4-26.94-26.4s29.29-6.47,37.55-3.54a15.882,15.882,0,0,1-10.61,29.94Z" transform="translate(-29.72 -56.36)" fill="#422c9a"/>
      <path id="Path_1403" data-name="Path 1403" d="M1029.12,783.59c-8.64-1.49-31-21.47-31-21.47s27.77-11.32,36.41-9.83a15.881,15.881,0,0,1-5.4,31.3Z" transform="translate(-29.72 -56.36)" fill="#422c9a"/>
      <path id="Path_1404" data-name="Path 1404" d="M1061.39,750.72,1010,676.19s-1-18.45-4.32-22.76-.72-13.9-.72-13.9,3.6-5.27.48-5.75-.48-12.23-.48-12.23l-.24-18.69s2.88-18,.48-22.28a7.07,7.07,0,0,1,.24-7.67s2.88-10.31,0-12.94-2.16-18.7-1.44-31.4-5.05-19.89-5.05-21.81-19-20.61-19-22.28-12-8.63-19.21-10.55-10.81-3.35-10.57-4.31-11.29-4.79-11.29-4.79-10.09-.72-13.94-5.76-15.59-6.48-15.93-6.53c-.07-.33-.15-.67-.22-1s-.15-.72-.22-1.08c.91-1.53,1.75-3.09,2.51-4.7.23-.49.45-1,.66-1.46,4.21-.19,8.53-1.09,11.83-3.67a16.11,16.11,0,0,0,5.75-11.49,25.19,25.19,0,0,0-2.81-12.77c-2.1-4.32-5.19-8.79-4.13-13.47.47-2,1.68-3.8,2.3-5.78,1.17-3.75.09-7.87-1.73-11.35s-4.35-6.54-6.37-9.91a38.7,38.7,0,0,1-5.07-14c-.41-2.6-.57-5.34-1.88-7.63a14.21,14.21,0,0,0-4.21-4.25,42.07,42.07,0,0,0-25.82-7.83c-6.54.23-13.06,2-19.55,1.19-3.91-.48-7.64-1.87-11.42-3-8.06-2.38-17.35-3.36-24.37,1.25s-9.81,13.68-14.56,20.77c-4.2,6.28-10.36,11.54-13.56,18.18a1.43,1.43,0,0,1,.1-.38,21.752,21.752,0,0,0-1.79,4.84c-1.22,5.22-.2,10.68,1.07,15.89.65,2.69,1.55,5.61,3.88,7.1s5.63,1.16,8.39,1.65c-.1.45-.22.91-.32,1.37a54.9,54.9,0,0,0,38.09,64v1.46a36.323,36.323,0,0,1-.25,4.12h0s-24.15-5-30.64-1.6-19.22,6-21.14,7.9-6.72.48-11,11.75-4.8,22.76-10.33,28-8.4,8.87-8.64,12.71.72,4.79-1.45,6-5.28,6.23-4.32,8.15c0,0,1.2,4.79-2.64,7.18s-3.37,7.19-3.37,7.19-1.44,5.28-4.8,6.47-5.53,9.11-5.53,9.11L730.52,596l-21.59-23.9a9.1,9.1,0,0,0-12.85-.66L685.48,581a20.94,20.94,0,0,0-10.61,6.32,27.349,27.349,0,0,0-5.49,8.18l-5.81,5.22A14.75,14.75,0,0,0,662.08,617l13.83,15.29.09.13c-5.23.66-9.85,2.34-13.38,5.45-20.65,18.21-20.9,35-17.77,42.65s29.3,37.15,29.3,37.15,15.21,19.77,37.17,30.29h0l-.17.17c-.43.46-.86,1-1.28,1.5l-.36.46-.33.46-.39.58c-.11.15-.21.31-.31.47s-.28.45-.41.69l-.27.46c-.16.3-.33.61-.49.93l-.16.31c-.2.42-.4.85-.59,1.3-.07.16-.13.33-.2.49-.12.31-.25.63-.37,1s-.15.41-.22.62-.21.62-.31.94-.14.45-.2.67-.2.7-.29,1.06-.11.42-.17.65c-.13.55-.26,1.12-.37,1.72a4.229,4.229,0,0,1-.12.68q-.12.6-.21,1.23c-.05.29-.08.58-.12.87s-.1.79-.15,1.19l-.09.92c0,.44-.08.9-.11,1.36a4.74,4.74,0,0,1-.05.84c0,.76-.08,1.52-.09,2.32-.48,28,1.16,32.11,1.16,32.11s3.39,8.93,12.75,9.57a16.3,16.3,0,0,0,4.11-.22c12.49-2.16,41.79-7.19,52.12-5.27,6.21,1.15,17.71-.55,25.9-2.1l2.15-.41,1.5,4.76,4.75-1.3,4,2.33,2.55,1.46c4.74,16.08,24,10.6,24,10.6L843,826l46.36,1.2s10,6,16.41,7.88a15.232,15.232,0,0,0,2.33.51,105.216,105.216,0,0,0,12.92.24c3.55-.09,6.3-.24,6.3-.24s-.47-12.59-1.15-26.68c17.72-.74,33.43-1.85,42.94-3.52,24.76-4.35,35.09-26.86,38.89-38.89a113.169,113.169,0,0,1,2.43,14.93,106.765,106.765,0,0,0,3.85,12.94,43.73,43.73,0,0,0,5.28,9.58c18.26-6.23,7.21-15.57,3.36-19.65s2.65-7.43,2.65-7.43,5-3.35,4.56-6.47-.72-6.47,15.61-6.23S1061.39,750.72,1061.39,750.72Zm-253.66-153c.21,1.37,2.49,16.14,4.55,20,.43.82.6,3.73.54,7.89-9.68-.77-19.76-1.18-19.76-1.18a2.32,2.32,0,0,1,.52,1.23l-1.52-.34-2.21-.54,17.83-27.12Zm-35.32,56.2,16.75,2.66,1.41.22a55.127,55.127,0,0,0-.87,7.91c0,.25.38.55.92.9a21.573,21.573,0,0,0-.33,4c.27,1.33,8.1,4.19,17.08,6.57-.12.48-.24.94-.36,1.37h0c-7.93-4.17-20.43-6.12-21.87-9.22s-44-18-44-18-1.55-.82-4.23-2.12l11.2,2.12,3.08-.31a167.912,167.912,0,0,0,21.22,3.88Z" transform="translate(-29.72 -56.36)" fill="url(#linear-gradient)"/>
      <path id="Path_1405" data-name="Path 1405" d="M1006.71,761.15s-6.66,40.23-40.47,46.18-146.66,4.76-146.66,4.76-64.52-9.28-87.85-63.8S693.4,672.1,713.4,671.15s127.85,36.43,134,36.9S1012.66,625.2,1006.71,761.15Z" transform="translate(-29.72 -56.36)" fill="#434175"/>
      <path id="Path_1406" data-name="Path 1406" d="M1006.71,761.15s-6.66,40.23-40.47,46.18-146.66,4.76-146.66,4.76-64.52-9.28-87.85-63.8S693.4,672.1,713.4,671.15s127.85,36.43,134,36.9S1012.66,625.2,1006.71,761.15Z" transform="translate(-29.72 -56.36)" opacity="0.05"/>
      <path id="Path_1407" data-name="Path 1407" d="M704.07,805.9s3.37,8.88,12.64,9.51a16.432,16.432,0,0,0,4.07-.22c12.38-2.14,41.43-7.14,51.66-5.24,6.16,1.15,17.55-.55,25.66-2.08,5.4-1,9.34-2,9.34-2s-9.52-31.66-10.72-32.61-42.85-25.95-42.85-25.95l-33-2.37h-.1s-6.11.41-11.18,6.57c-3.49,4.21-6.48,11.13-6.68,22.47C702.45,801.85,704.07,805.9,704.07,805.9Z" transform="translate(-29.72 -56.36)" fill="#565387"/>
      <path id="Path_1408" data-name="Path 1408" d="M704.07,805.9s3.37,8.88,12.64,9.51a135.545,135.545,0,0,1-9-13.08l.17-23.09c-1.47-17.29,6.62-28.36,13-34.27h-.1s-17.38,1.18-17.86,29S704.07,805.9,704.07,805.9Z" transform="translate(-29.72 -56.36)" opacity="0.05"/>
      <path id="Path_1409" data-name="Path 1409" d="M847.2,755.43l30.71-24,48.33-47.62s-5.22-.25-13.09-.59c-2,1.25-7.45,5.18-7.65,10-.24,5.82-13.07.4-19.73,3.73s-39.28,45.08-45,44.81-10.23-2.9-12.62,1.15c0,.09-.11.17-.17.26Z" transform="translate(-29.72 -56.36)" opacity="0.1"/>
      <path id="Path_1410" data-name="Path 1410" d="M709.6,751.53c1.09.53,2.19,1,3.32,1.52,23.34,10,52.14,31,54.29,34.76,1.3,2.32,18,12.46,30.89,20.06,5.4-1,9.34-2,9.34-2s-9.52-31.66-10.72-32.61-42.85-25.95-42.85-25.95l-33-2.37h-.1S714.67,745.37,709.6,751.53Z" transform="translate(-29.72 -56.36)" opacity="0.1"/>
      <path id="Path_1411" data-name="Path 1411" d="M644.84,683.29c3.09,7.62,29,36.91,29,36.91s16.42,21.42,39.76,31.42,52.14,31,54.28,34.76c1.38,2.45,20,13.65,33.08,21.35l2.93,1.71,6.5,3.77,3.44,2s8-6.4,15.91-12.84,15.63-12.75,15.76-13.11c.23-.71,3.32-8.81,2.61-9.28-.37-.25-2-3.55-5-7.37a33.819,33.819,0,0,0-12.13-10c-11-5-15.71-16.38-15.71-16.38s-1-.76-2.63-1.76c-2.82-1.78-7.35-4.34-10.7-4.77-5.25-.66-15-11.37-15-11.37s-6.67-4.29-9.29-9.76c-2.5-5.22-39.42-30.58-42.84-32.92l89.51,57.48,21.42,13.77,30.71-24,48.34-47.62s-6.5-.32-16-.72c-23.49-1-65.21-2.61-70.48-1.42a40.168,40.168,0,0,1-13.1.85s-11.88.54-19.74-3.61-20.25-6.09-21.68-9.16-43.57-17.85-43.57-17.85S682.85,622.9,662.37,641,641.74,675.68,644.84,683.29Z" transform="translate(-29.72 -56.36)" fill="#434175"/>
      <path id="Path_1412" data-name="Path 1412" d="M829.82,508.55l7.38,24.52,9.52,55.23,35,2.38,10.13-16.8L902,557.11s6.3-22.32,10.83-43.91c4-19.1,6.62-37.64,2.26-39.65-3.86-1.79-6.4-8.22-8-15.14-.21-.85-.4-1.72-.58-2.59a134.606,134.606,0,0,1-2.32-17.75s-73.33-3.8-63.09,26.43a48.18,48.18,0,0,1,2.76,16.08,38.244,38.244,0,0,1-.25,4.09,34.3,34.3,0,0,1-13.79,23.88Z" transform="translate(-29.72 -56.36)" fill="#ee8e9e"/>
      <path id="Path_1413" data-name="Path 1413" d="M814.58,504.5l2.62,41.66,5.95,35.47,6.67,16.43,5.95,89.88s57.41,6.64,71.37-.12a6.139,6.139,0,0,0,2.53-2C926.53,660.39,921,586.63,921,586.63L927.43,539l-4.29-24.72-10.35-1.1-8-.85s-1.8,2.22-4.4,5.65c-7.06,9.32-20,27.65-19.17,35.3,1.18,10.48-1.43,21.19-5.48,22.86s-7.38,4.52-8.09,1.67-1.43-3.57-.72-7.62-3.1-16.43-3.1-16.43-6.42-14.52-6-20.71-.71-13.34-2.62-15-4.52-3.34-2.38-11-9.39-22.45-9.39-22.45Z" transform="translate(-29.72 -56.36)" fill="#e3e8f4"/>
      <path id="Path_1414" data-name="Path 1414" d="M890.41,608.55l2.38,71.19,13.75,7.62a6.15,6.15,0,0,0,2.53-2c16.87-25.47,11.34-99.22,11.34-99.22l6.43-47.62-4.29-24.71-10.36-1.1c4-19.1,6.62-37.64,2.27-39.65-3.87-1.79-6.41-8.22-8.06-15.14h0l-7.4,50.4s.62,4.54.84,9.22c.17,3.48.11,7-.6,8.87-1.67,4.29-.48,11.91-.48,11.91-4.29,7.56-6.43,21.57-7.48,35.1C889.87,591.41,890.41,608.55,890.41,608.55Z" transform="translate(-29.72 -56.36)" opacity="0.1"/>
      <path id="Path_1415" data-name="Path 1415" d="M906.63,456.82s12,1.49,15.8,6.49S936.24,469,936.24,469s11.43,3.81,11.19,4.76,3.33,2.39,10.48,4.29,19,8.81,19,10.48,18.81,20.23,18.81,22.14,5.72,9,5,21.66-1.43,28.57,1.43,31.19,0,12.86,0,12.86A7,7,0,0,0,1002,584c2.38,4.29-.47,22.15-.47,22.15l.23,18.57s-2.62,11.66.48,12.14-.48,5.71-.48,5.71-2.62,9.53.72,13.81,4.28,22.62,4.28,22.62l51,74s.72,13.57-15.47,13.33-16,3.1-15.48,6.19-4.52,6.43-4.52,6.43-6.43,3.33-2.62,7.38,14.76,13.33-3.33,19.52a43.16,43.16,0,0,1-5.24-9.52,107.732,107.732,0,0,1-3.81-12.85s-1.67-18.1-5-20.48-2.86-13.81-2.86-13.81,4.76-9.28-1.9-13.09S894.1,678.77,894.1,678.77l-2.38-71.19s-1.67-52.61,8.33-70.23c0,0-1.19-7.62.48-11.9s-.24-18.1-.24-18.1Z" transform="translate(-29.72 -56.36)" fill="#565387"/>
      <path id="Path_1416" data-name="Path 1416" d="M844.23,485.38s-23.93-4.93-30.36-1.6-19,6-21,7.86-6.67.48-10.95,11.67-4.77,22.61-10.24,27.85-8.33,8.81-8.57,12.62.71,4.76-1.43,6-5.24,6.19-4.29,8.1S807,601.63,807,601.63s2.39,16,4.53,20-2.38,59.76-7.14,63.57,32.14,3.46,32.14,3.46,1.66-36.55,3.09-38.46-1-41-1-41-.24-33.33,2.86-42.14S844.23,529,844.23,529s2.74-17.57,6.07-21.67S844.23,485.38,844.23,485.38Z" transform="translate(-29.72 -56.36)" opacity="0.1"/>
      <path id="Path_1417" data-name="Path 1417" d="M843.52,484.67s-23.94-4.93-30.37-1.6-19,5.95-20.95,7.86-6.66.47-11,11.66-4.76,22.62-10.24,27.86-8.33,8.81-8.57,12.62.72,4.76-1.42,5.95-5.24,6.19-4.29,8.09,49.52,43.81,49.52,43.81,2.38,16,4.52,20-2.38,59.75-7.14,63.56,32.14,3.46,32.14,3.46,1.67-36.55,3.1-38.45-1-41-1-41-.23-33.33,2.86-42.14,2.75-38.1,2.75-38.1,2.74-17.57,6.06-21.66S843.52,484.67,843.52,484.67Z" transform="translate(-29.72 -56.36)" fill="#565387"/>
      <path id="Path_1418" data-name="Path 1418" d="M841,464.5a48.18,48.18,0,0,1,2.76,16.08,54.63,54.63,0,0,0,62.65-24.76,134.618,134.618,0,0,1-2.32-17.75S830.77,434.27,841,464.5Z" transform="translate(-29.72 -56.36)" opacity="0.1"/>
      <path id="Path_1419" data-name="Path 1419" d="M804.82,426.88A54.52,54.52,0,1,0,806,415.55a54.52,54.52,0,0,0-1.18,11.33Z" transform="translate(-29.72 -56.36)" fill="#ee8e9e"/>
      <path id="Path_1420" data-name="Path 1420" d="M769.82,553.06l-13.09,4.05s1.19,4.76-2.62,7.14-3.33,7.15-3.33,7.15-1.43,5.23-4.76,6.42-5.48,9-5.48,9l-10.95,12.62s-4.05,3.33-3.33,5-4.29,2.14-4.29,2.14L724.59,649l22.62,4.29,14-1.43,11.43-4.29,10-6L787.2,630l20-30.47Z" transform="translate(-29.72 -56.36)" fill="#565387"/>
      <path id="Path_1421" data-name="Path 1421" d="M725.3,610s-29-41.91-50.71-19.29,8.81,59.28,15.95,58.09,41.19-3.09,41.19-3.09Z" transform="translate(-29.72 -56.36)" fill="#ee8e9e"/>
      <rect id="Rectangle_214" data-name="Rectangle 214" width="61.42" height="69.8" rx="12.62" transform="translate(626.155 557.123) rotate(-42.05)" fill="#30374e"/>
      <rect id="Rectangle_215" data-name="Rectangle 215" width="61.42" height="69.8" rx="12.62" transform="translate(626.155 557.123) rotate(-42.05)" opacity="0.1"/>
      <rect id="Rectangle_216" data-name="Rectangle 216" width="61.42" height="69.8" rx="12.62" transform="translate(626.973 553.672) rotate(-42.05)" fill="#30374e"/>
      <circle id="Ellipse_209" data-name="Ellipse 209" cx="13.57" cy="13.57" r="13.57" transform="translate(658.82 547.17)" fill="#422c9a"/>
      <circle id="Ellipse_210" data-name="Ellipse 210" cx="13.57" cy="13.57" r="13.57" transform="translate(658.82 547.17)" opacity="0.1"/>
      <circle id="Ellipse_211" data-name="Ellipse 211" cx="13.57" cy="13.57" r="13.57" transform="translate(659.58 545.45)" fill="#422c9a"/>
      <path id="Path_1422" data-name="Path 1422" d="M706.5,618.77c-.24,31.43,64.76,38.09,64.76,38.09l16.6,2.64,7.44,1.18L798.4,630s-3.41-.51-7.67-1.5c-6.29-1.47-14.44-4-16.15-7.55C771.73,615,706.73,587.35,706.5,618.77Z" transform="translate(-29.72 -56.36)" fill="#ee8e9e"/>
      <path id="Path_1423" data-name="Path 1423" d="M806,415.55a6.47,6.47,0,0,1,4,1.78c1.84,1.95,1.94,5.41,4.33,6.61a4.92,4.92,0,0,0,2.84.33c6.33-.9,10-8,16.07-10,3.46-1.12,7.27-.39,10.65.91a7.93,7.93,0,0,1,3.53,2.27c2,2.63.61,6.5,1.55,9.69,1.31,4.42,6.59,6.18,11.16,6.76s9.72.9,12.77,4.35c2.16,2.45,2.71,6,2.27,9.21a7.29,7.29,0,0,0,0,3.41c1.26,3.57,7.44,3,9.05.22,1.18-2.05.82-3.75,3.6-4.32,1.88-.39,4.09.4,5.83,1a42.709,42.709,0,0,0,15.08,2.32A54.53,54.53,0,1,0,806,415.55Z" transform="translate(-29.72 -56.36)" opacity="0.1"/>
      <path id="Path_1424" data-name="Path 1424" d="M875.14,449.43a7.29,7.29,0,0,1,0-3.41c.43-3.23-.11-6.77-2.27-9.21-3-3.45-8.2-3.78-12.77-4.35s-9.85-2.33-11.16-6.75c-.94-3.19.48-7.07-1.55-9.7a7.8,7.8,0,0,0-3.52-2.26c-3.39-1.31-7.2-2-10.66-.92-6.07,2-9.74,9.12-16.07,10a4.92,4.92,0,0,1-2.84-.33c-2.39-1.2-2.49-4.66-4.33-6.6-2.89-3.06-8.38-1.09-11.92-3.36-2.31-1.49-3.2-4.38-3.84-7.05-1.26-5.18-2.27-10.61-1.06-15.79,2.07-8.86,10-14.93,15-22.49,4.71-7.05,7.35-16,14.43-20.64s16.17-3.61,24.15-1.24c3.74,1.11,7.44,2.49,11.31,3,6.44.79,12.9-1,19.38-1.18a41.62,41.62,0,0,1,25.59,7.77,14.16,14.16,0,0,1,4.18,4.23c1.29,2.28,1.46,5,1.85,7.58a38.748,38.748,0,0,0,5,13.93c2,3.35,4.51,6.39,6.32,9.85s2.87,7.55,1.71,11.27c-.61,2-1.82,3.73-2.27,5.74-1.06,4.65,2,9.09,4.09,13.38a25.1,25.1,0,0,1,2.78,12.69,16,16,0,0,1-5.7,11.41c-3.37,2.64-7.8,3.52-12.07,3.66a42.78,42.78,0,0,1-15.38-2.31c-1.75-.6-4-1.39-5.83-1-2.78.57-2.42,2.27-3.6,4.32C882.57,452.47,876.4,453,875.14,449.43Z" transform="translate(-29.72 -56.36)" fill="#434175"/>
      <path id="Path_1425" data-name="Path 1425" d="M845.77,756.86l30.71-24,48.34-47.62s-6.5-.32-16-.72c-1.73,1.76-3.27,4-3.37,6.5-.24,5.82-13.07.41-19.73,3.74s-39.28,45.07-45,44.8-10.23-2.9-12.62,1.15a2.468,2.468,0,0,1-.17.27,6.77,6.77,0,0,1-3.63,2.15Z" transform="translate(-29.72 -56.36)" opacity="0.1"/>
      <path id="Path_1426" data-name="Path 1426" d="M783.87,755.19l15.43,49.26,2.42,7.74,7.35-2,16.2-4.45,72.16-19.82a62.866,62.866,0,0,0,26-6.93c13.75-7.48,29.26-11.24,44.84-9.78,9.54.89,20.15-3.22,29-19.48,0,0,20-59-30.48-76s-52.88,9-52.88,9-.26.14-.68.42c-2,1.25-7.45,5.18-7.65,10-.24,5.82-13.07.4-19.73,3.73s-39.28,45.08-45,44.81-10.23-2.9-12.62,1.15c0,.09-.11.17-.17.26-1.76,2.43-7.06,3-10.57,3.09-1.91.06-3.3,0-3.3,0l-.45.14L810,747.37Z" transform="translate(-29.72 -56.36)" fill="#434175"/>
      <path id="Path_1427" data-name="Path 1427" d="M787.86,659.5l7.44,1.18L798.4,630s-3.41-.51-7.67-1.5C791.86,632.75,789.3,649.32,787.86,659.5Z" transform="translate(-29.72 -56.36)" opacity="0.1"/>
      <path id="Path_1428" data-name="Path 1428" d="M982.54,516s22.14-6.43,16.66,56.43S952.78,675,952.78,675s-47.14,20.71-68.33,17.38a363.181,363.181,0,0,0-36.66-4,53.79,53.79,0,0,0-21.43-5.71c-11.91-.48-36.9-7.86-37.38-10.24s6.19-37.38,3.33-40c0,0,33.33,1.37,36.67,3.78s8.09.68,11.66,0,14.53-10.21,36.19-1.87c0,0,7.38.71,10.24-1.19s7.44-.48,7.44-.48S899,631,899.69,630s6.42,0,6.42,0a2.54,2.54,0,0,0,3.58-1.67,15.564,15.564,0,0,1,3.33-5.23s6.43-36.19,18.57-49.76c0,0,3.57-3.1,2.62-6.91S954,508.37,982.54,516Z" transform="translate(-29.72 -56.36)" opacity="0.1"/>
      <path id="Path_1429" data-name="Path 1429" d="M982,511.16s22.14-6.43,16.67,56.43S952.19,670.2,952.19,670.2s-47.14,20.71-68.33,17.38-36.66-4.05-36.66-4.05a53.72,53.72,0,0,0-21.43-5.71c-11.9-.48-36.9-7.86-37.38-10.24s6.19-37.38,3.34-40c0,0,33.33,1.37,36.66,3.78s8.1.68,11.67,0,14.52-10.2,36.19-1.87c0,0,7.38.71,10.23-1.19s7.45-.48,7.45-.48,4.46-1.67,5.17-2.62,6.43,0,6.43,0a2.53,2.53,0,0,0,3.57-1.66,15.538,15.538,0,0,1,3.33-5.24s6.43-36.19,18.57-49.76c0,0,3.57-3.1,2.62-6.9S953.38,503.54,982,511.16Z" transform="translate(-29.72 -56.36)" fill="#565387"/>
      <path id="Path_1430" data-name="Path 1430" d="M810,747.37l31.44,38c.12-.11.2-.19.2-.22.24-.72,3.33-8.81,2.62-9.29s-6.19-12.38-17.14-17.38c-6.69-3-11.07-8.49-13.46-12.25Z" transform="translate(-29.72 -56.36)" opacity="0.1"/>
      <path id="Path_1431" data-name="Path 1431" d="M810.43,813.21l3.44,2s8-6.4,15.91-12.84,15.63-12.75,15.76-13.11c.23-.71,3.32-8.81,2.61-9.28-.37-.25-2-3.55-5-7.37-21.32-6-7.75,8.83-5.94,9.51,0,0-26-6-27.38,22.31A33.36,33.36,0,0,0,810.43,813.21Z" transform="translate(-29.72 -56.36)" opacity="0.1"/>
      <path id="Path_1432" data-name="Path 1432" d="M836.72,825.19l4.53,2.62,46,1.19s9.86,6,16.26,7.82a13.926,13.926,0,0,0,2.31.51,103.276,103.276,0,0,0,12.8.24c3.52-.09,6.25-.24,6.25-.24s-2.18-58-3.82-64c-.78-2.92-4.63-2.28-8.43-.82a55.191,55.191,0,0,0-8.23,4.17s-19.52,1.89-22.62,3.57-11.9-1-17.38,0-15.23-6.45-15.23-6.45c-26.67-8.8-11.67,7.62-9.77,8.34,0,0-25.94-6-27.37,22.31S836.72,825.19,836.72,825.19Z" transform="translate(-29.72 -56.36)" fill="#565387"/>
      <path id="Path_1433" data-name="Path 1433" d="M903.15,802.81c.5,12,9.85,26.89,15.42,34.76,3.52-.09,6.25-.24,6.25-.24s-2.18-58-3.82-64c-.78-2.92-4.63-2.28-8.43-.82C908,781.11,902.75,793.14,903.15,802.81Z" transform="translate(-29.72 -56.36)" fill="#565387"/>
      <path id="Path_1434" data-name="Path 1434" d="M903.15,802.81c.5,12,9.85,26.89,15.42,34.76,3.52-.09,6.25-.24,6.25-.24s-2.18-58-3.82-64c-.78-2.92-4.63-2.28-8.43-.82C908,781.11,902.75,793.14,903.15,802.81Z" transform="translate(-29.72 -56.36)" opacity="0.1"/>
      <path id="Path_1435" data-name="Path 1435" d="M895.29,804.4c3.16,11.58,3.13,24.57,8.17,32.42a13.923,13.923,0,0,0,2.31.51,103.275,103.275,0,0,0,12.8.24c3.52-.09,6.25-.24,6.25-.24s-2.18-58-3.82-64c-.78-2.92-4.63-2.28-8.43-.82a55.189,55.189,0,0,0-8.23,4.17S891.25,789.58,895.29,804.4Z" transform="translate(-29.72 -56.36)" opacity="0.05"/>
      <path id="Path_1436" data-name="Path 1436" d="M736.77,686.94s22.82,7.41,42.16,33.73Z" transform="translate(-29.72 -56.36)" opacity="0.1"/>
      <g id="Group_320" data-name="Group 320" opacity="0.1">
        <path id="Path_1437" data-name="Path 1437" d="M922.23,401.26a4.664,4.664,0,0,1-.14.5,16.137,16.137,0,0,1-.79,2A14.931,14.931,0,0,1,922.23,401.26Z" transform="translate(-29.72 -56.36)"/>
        <path id="Path_1438" data-name="Path 1438" d="M793.11,389.71a21.461,21.461,0,0,1,1.77-4.81c-.12.41-.25.82-.35,1.24-1.21,5.18-.2,10.61,1.06,15.79.65,2.67,1.53,5.56,3.84,7.05,3.55,2.27,9,.29,11.92,3.35,1.84,1.95,1.94,5.41,4.34,6.61a4.91,4.91,0,0,0,2.84.33c6.32-.9,10-8,16.07-10,3.46-1.12,7.26-.39,10.65.92a7.8,7.8,0,0,1,3.52,2.26c2,2.63.61,6.51,1.55,9.69,1.31,4.42,6.59,6.18,11.16,6.75s9.72.9,12.77,4.36c2.16,2.44,2.71,6,2.27,9.21a7.419,7.419,0,0,0,0,3.41c1.26,3.57,7.44,3,9,.22,1.18-2.05.83-3.75,3.61-4.32,1.87-.39,4.08.4,5.82,1a42.779,42.779,0,0,0,15.38,2.31c4.27-.15,8.71-1,12.07-3.66a14,14,0,0,0,3.7-4.5A15.141,15.141,0,0,1,921,445c-3.36,2.64-7.79,3.52-12.07,3.66a42.69,42.69,0,0,1-15.37-2.31c-1.75-.6-4-1.39-5.83-1-2.78.57-2.43,2.27-3.6,4.32-1.62,2.82-7.79,3.35-9.06-.22a7.419,7.419,0,0,1,0-3.41c.44-3.23-.1-6.77-2.26-9.21-3.06-3.45-8.21-3.78-12.78-4.35s-9.85-2.33-11.15-6.75c-.95-3.19.48-7.07-1.55-9.7a7.88,7.88,0,0,0-3.53-2.26c-3.39-1.31-7.19-2-10.65-.92-6.08,2-9.75,9.12-16.07,10a4.91,4.91,0,0,1-2.84-.33c-2.4-1.2-2.5-4.66-4.34-6.6-2.89-3.06-8.37-1.09-11.91-3.36-2.32-1.49-3.2-4.38-3.85-7.05C792.9,400.32,791.89,394.89,793.11,389.71Z" transform="translate(-29.72 -56.36)"/>
      </g>
      <path id="Path_1439" data-name="Path 1439" d="M925.92,580.26c-4.36,5.89-9.34,11.34-13.2,17.57s-6.59,13.5-5.78,20.78c4-4.1,5.82-9.76,8.34-14.9,4.26-8.7,10.64-16.08,16-24.08,1-1.53,7.61-10.35,4.28-10.77C932.82,568.51,927.41,578.25,925.92,580.26Z" transform="translate(-29.72 -56.36)" opacity="0.1"/>
    </g>
    <g id="undraw_emails_re_cqen" transform="translate(180.788 58.652)">
      <path id="Path_1445" data-name="Path 1445" d="M664.11,849.18,427.82,754.069A57.663,57.663,0,0,1,395.9,679.13L636.644,81.024A57.663,57.663,0,0,1,711.583,49.1l236.291,95.111A57.663,57.663,0,0,1,979.8,219.15L739.05,817.255a57.663,57.663,0,0,1-74.94,31.925Z" transform="translate(-216.035 -44.932)" fill="#3f3d56"/>
      <path id="Path_1446" data-name="Path 1446" d="M938.553,159.734l-26.3-10.587a9.553,9.553,0,0,0-12.417,5.29,19.531,19.531,0,0,1-25.387,10.815L745.81,113.473a19.531,19.531,0,0,1-10.815-25.387,9.553,9.553,0,0,0-5.29-12.417l-23.192-9.335a43.741,43.741,0,0,0-56.837,24.213L410.639,684.4a43.741,43.741,0,0,0,24.213,56.838l232.039,93.4a43.741,43.741,0,0,0,56.837-24.213L962.766,216.571A43.741,43.741,0,0,0,938.553,159.734Z" transform="translate(-216.035 -44.932)" fill="url(#linear-gradient-2)"/>
      <path id="Path_1447" data-name="Path 1447" d="M848.577,137.371l-72.57-29.211a2.794,2.794,0,1,1,2.086-5.184l72.57,29.21a2.794,2.794,0,1,1-2.087,5.184Z" transform="translate(-216.035 -44.932)" fill="#fff"/>
      <circle id="Ellipse_212" data-name="Ellipse 212" cx="2.235" cy="2.235" r="2.235" transform="translate(642.754 92.202)" fill="#fff"/>
      <path id="Path_1448" data-name="Path 1448" d="M908.443,402.406a5.035,5.035,0,0,1-2.787-6.543l36.722-91.231a5.029,5.029,0,0,1,9.331,3.756l-36.722,91.231a5.035,5.035,0,0,1-6.543,2.787Z" transform="translate(-216.035 -44.932)" fill="#3f3d56"/>
      <path id="Path_1449" data-name="Path 1449" d="M590.34,196.059a5.035,5.035,0,0,1-2.787-6.543l8.346-20.734a5.029,5.029,0,1,1,9.331,3.756l-8.346,20.734a5.035,5.035,0,0,1-6.543,2.787Z" transform="translate(-216.035 -44.932)" fill="#3f3d56"/>
      <g id="Group_321" data-name="Group 321" transform="translate(212.784 -79.247) rotate(22)">
        <rect id="Rectangle_217" data-name="Rectangle 217" width="270" height="97" rx="7" transform="translate(295.212 485.348)" fill="#47418e"/>
        <rect id="Rectangle_218" data-name="Rectangle 218" width="270" height="21" rx="7" transform="translate(295.212 592.348)" fill="#47418e"/>
        <rect id="Rectangle_219" data-name="Rectangle 219" width="270" height="21" rx="7" transform="translate(295.212 623.348)" fill="#47418e"/>
        <rect id="Rectangle_220" data-name="Rectangle 220" width="270" height="21" rx="7" transform="translate(295.212 654.348)" fill="#47418e"/>
      </g>
      <path id="Path_1450" data-name="Path 1450" d="M574.9,234.418a5.035,5.035,0,0,1-2.787-6.543l8.346-20.734a5.029,5.029,0,0,1,9.331,3.756l-8.346,20.734a5.035,5.035,0,0,1-6.543,2.787Z" transform="translate(-216.035 -44.932)" fill="#3f3d56"/>
      <circle id="Ellipse_215" data-name="Ellipse 215" cx="92.272" cy="92.272" r="92.272" transform="translate(378.396 313.282)" fill="#433f8f"/>
      <path id="Path_1460" data-name="Path 1460" d="M437.354,518.029A12.074,12.074,0,0,0,423.22,506.07l-20.776-37.543L392.1,488.28,413.415,520.9a12.14,12.14,0,0,0,23.939-2.875Z" transform="translate(-216.035 -44.932)" fill="#9e616a"/>
      <path id="Path_1461" data-name="Path 1461" d="M423.93,366.384l-21.365-1.5s-2.632-.358-9.869,11.119-32.046,69.676-32.046,69.676l43.464,63.087,14.117-14.053-25.238-50.763,24.191-33.974Z" transform="translate(-216.035 -44.932)" fill="#cacaca"/>
      <path id="Path_1462" data-name="Path 1462" d="M659.466,434.585a10.483,10.483,0,0,1-14.034-7.837l-36.854-5.426,12.9-14.436,33.02,7.366a10.539,10.539,0,0,1,4.971,20.333Z" transform="translate(-216.035 -44.932)" fill="#9e616a"/>
      <path id="Path_1463" data-name="Path 1463" d="M301.766,793.352h15.749l7.492-60.746H301.764Z" fill="#9e616a"/>
      <path id="Path_1464" data-name="Path 1464" d="M513.784,833.142h4.433l17.307-7.038,9.276,7.037h0A19.766,19.766,0,0,1,564.565,852.9v.643l-50.781,0Z" transform="translate(-216.035 -44.932)" fill="#2f2e41"/>
      <path id="Path_1465" data-name="Path 1465" d="M206.766,793.352h15.749l7.492-60.746H206.764Z" fill="#9e616a"/>
      <path id="Path_1466" data-name="Path 1466" d="M418.784,833.142h4.433l17.306-7.038,9.276,7.037h0A19.766,19.766,0,0,1,469.565,852.9v.643l-50.78,0Z" transform="translate(-216.035 -44.932)" fill="#2f2e41"/>
      <path id="Path_1467" data-name="Path 1467" d="M212.841,494.222l-10.409,62.744,3.5,201.693h25.619l39.36-213.346,28.313,209.839,25.759-1.115,12.855-211.81-11.551-54.065Z" fill="#2f2e41"/>
      <path id="Path_1468" data-name="Path 1468" d="M523.006,352.559l-27.42-4.04-5.83-15.137-38.63-.053-8.68,19.765-39.475,11.918,32.705,112.347s-18.024,41.752-13.591,41.931,6.617,6.518,3.525,9.848-9.3,1.212-6.194,6.271a23.623,23.623,0,0,1,3.5,9.036s130.8,27.925,123.554-8.084c-.9-4.476-11.83-66.492-11.83-66.492s9.517-10.531,5.449-14.716-1.919-48.384-1.919-48.384Z" transform="translate(-216.035 -44.932)" fill="#cacaca"/>
      <path id="Path_1469" data-name="Path 1469" d="M302.483,312.537l4.488-4.909,60.97,35.75,51.59,20.575,1,18-67-8-47.42-23.187Z" fill="#cacaca"/>
      <path id="Path_1470" data-name="Path 1470" d="M501.565,289.971a32.275,32.275,0,0,1-32.275,32.275,33.134,33.134,0,0,1-7.549-.883,32.287,32.287,0,1,1,39.823-31.392Z" transform="translate(-216.035 -44.932)" fill="#9e616a"/>
      <path id="Path_1471" data-name="Path 1471" d="M477.935,316.143l-23.181,4.471a15.015,15.015,0,0,1-6.623.275c-3.448-.908-5.759-4.09-7.523-7.189a68.075,68.075,0,0,1-7.244-47.81c.792-3.6,2.484-7.714,6.092-8.446,1.048-.213,2.233-.129,3.063-.8,1.222-.994.82-3.1-.38-4.121a8.157,8.157,0,0,0-4.425-1.438,11.186,11.186,0,0,1,8.273-3.935l-6.2-3.445c2.987-2.072,7-1.883,10.522-.988s6.914,2.412,10.533,2.751c4.544.426,9.028-1.034,13.557-1.6a35.542,35.542,0,0,1,34.333,17.089,15.431,15.431,0,0,1,2.281,6.427,7.391,7.391,0,0,1-2.307,6.208c-2.538,2.135-6.537,1.821-9,4.047-1.9,1.716-2.367,4.486-2.474,7.041s.014,5.223-1.08,7.534-3.951,4.048-6.235,2.9c-.1-3.164-3.748-5.4-6.846-4.751s-5.385,3.47-6.277,6.508-.627,6.284-.239,9.426.893,6.321.457,9.456" transform="translate(-216.035 -44.932)" fill="#2f2e41"/>
      <circle id="Ellipse_216" data-name="Ellipse 216" cx="8.436" cy="8.436" r="8.436" transform="translate(457.394 400.588)" fill="#433f8f"/>
      <g id="Logo" transform="translate(437.467 104.448) rotate(22)">
        <path id="Path_250" data-name="Path 250" d="M29.007,34.856H13.346a6.185,6.185,0,0,0,2.282,4.356,7.221,7.221,0,0,0,4.823,1.763,8.661,8.661,0,0,0,5.7-2.126,3.411,3.411,0,0,1,2.126-.882,2.4,2.4,0,0,1,2.489,2.489,3.008,3.008,0,0,1-1.037,2.23A12.8,12.8,0,0,1,20.5,46.058a13.5,13.5,0,0,1-9.62-3.526,12.388,12.388,0,0,1-3.76-9.49A12.7,12.7,0,0,1,20.295,19.713a11.858,11.858,0,0,1,7.935,2.723,12.212,12.212,0,0,1,3.941,8.012q.1,1.037.1,1.3Q32.275,34.856,29.007,34.856ZM13.346,30.4H26.1a6.283,6.283,0,0,0-1.5-4.3,5.49,5.49,0,0,0-4.356-1.711,6.956,6.956,0,0,0-4.719,1.711A6.149,6.149,0,0,0,13.346,30.4Zm43.588,8.038a8.956,8.956,0,0,0,1.893-5.653,8.744,8.744,0,0,0-1.893-5.6A6.343,6.343,0,0,0,51.67,24.8a6.49,6.49,0,0,0-5.29,2.489,8.652,8.652,0,0,0-2.023,5.6,8.45,8.45,0,0,0,2.023,5.549,6.544,6.544,0,0,0,5.29,2.437A6.289,6.289,0,0,0,56.934,38.435Zm4.823-14.987a13.349,13.349,0,0,1,3.4,9.335,13.858,13.858,0,0,1-3.345,9.438,11.213,11.213,0,0,1-8.894,3.838,10.842,10.842,0,0,1-4.823-1.089,8.225,8.225,0,0,1-3.423-2.956h-.1V54.77a3.238,3.238,0,0,1-.985,2.723,3.382,3.382,0,0,1-4.253,0,3.238,3.238,0,0,1-.985-2.723V23.292a3.075,3.075,0,0,1,.959-2.567,3.2,3.2,0,0,1,2-.752,3.334,3.334,0,0,1,2.048.726,3.065,3.065,0,0,1,.959,2.593v.622h.156a9.072,9.072,0,0,1,3.293-2.956,10.651,10.651,0,0,1,5.316-1.245A11.219,11.219,0,0,1,61.757,23.447Zm32.127,0V42.532a3,3,0,0,1-.959,2.541,3.267,3.267,0,0,1-2,.726,3.685,3.685,0,0,1-1.219-.207,2.6,2.6,0,0,1-1.167-.985,3.431,3.431,0,0,1-.57-2.074V41.339h-.1a7.836,7.836,0,0,1-2.982,3.345,8.475,8.475,0,0,1-4.745,1.374q-4.564,0-6.871-2.93A11.169,11.169,0,0,1,70.962,36V23.447a3.238,3.238,0,0,1,.985-2.723,3.382,3.382,0,0,1,4.253,0,3.238,3.238,0,0,1,.985,2.723V34.234q0,6.638,4.667,6.638a5.066,5.066,0,0,0,4.3-2,7.662,7.662,0,0,0,1.5-4.745V23.447a3.238,3.238,0,0,1,.985-2.723,3.382,3.382,0,0,1,4.253,0A3.238,3.238,0,0,1,93.884,23.447Zm19.344,21.729a6.749,6.749,0,0,1-3.06.674q-4.564,0-6.3-2.36a10.681,10.681,0,0,1-1.737-6.457V25.418h-2.023a2.6,2.6,0,0,1-2.178-.8,2.715,2.715,0,0,1-.622-1.685,3.122,3.122,0,0,1,.182-1.037,2.125,2.125,0,0,1,.856-.985,3.037,3.037,0,0,1,1.763-.467h2.023v-4.3a3.1,3.1,0,0,1,.985-2.619,3.237,3.237,0,0,1,4.149,0,3.1,3.1,0,0,1,.985,2.619v4.3h3.889a2.6,2.6,0,0,1,2.178.8,2.715,2.715,0,0,1,.622,1.685,3.122,3.122,0,0,1-.182,1.037,2.125,2.125,0,0,1-.856.985,3.037,3.037,0,0,1-1.763.467h-3.889V36.983q0,3.734,2.386,3.734a8.528,8.528,0,0,0,.985-.1,5.949,5.949,0,0,1,.726-.052,2.253,2.253,0,0,1,1.737.7,2.329,2.329,0,0,1,.648,1.634A2.46,2.46,0,0,1,113.228,45.176Zm26.189-10.32H123.755a6.185,6.185,0,0,0,2.282,4.356,7.221,7.221,0,0,0,4.823,1.763,8.661,8.661,0,0,0,5.7-2.126,3.412,3.412,0,0,1,2.126-.882,2.4,2.4,0,0,1,2.489,2.489,3.008,3.008,0,0,1-1.037,2.23,12.8,12.8,0,0,1-9.231,3.371,13.5,13.5,0,0,1-9.62-3.526,12.388,12.388,0,0,1-3.76-9.49A12.7,12.7,0,0,1,130.7,19.713a11.858,11.858,0,0,1,7.935,2.723,12.212,12.212,0,0,1,3.941,8.012q.1,1.037.1,1.3Q142.684,34.856,139.417,34.856ZM123.755,30.4h12.758a6.283,6.283,0,0,0-1.5-4.3,5.49,5.49,0,0,0-4.356-1.711,6.956,6.956,0,0,0-4.719,1.711A6.149,6.149,0,0,0,123.755,30.4Z" transform="translate(59.679 -1.936)" fill="#fcfbff"/>
        <path id="Path_245" data-name="Path 245" d="M69.122.313v-21.3c0-1.491-6.255.578-5.495,0S71.985-29.6,72.859-29.6s8.255,8.033,9.016,8.611-5.568-1.491-5.568,0V.592a14.655,14.655,0,0,1-4.59,11.294,16.5,16.5,0,0,1-11.661,4.249,16.5,16.5,0,0,1-11.661-4.249A14.655,14.655,0,0,1,43.8.592l-.04-8.68a3.677,3.677,0,0,1,1.14-3.1,3.976,3.976,0,0,1,2.452-.867,3.976,3.976,0,0,1,2.452.867,3.677,3.677,0,0,1,1.14,3.1l.04,8.4A10.6,10.6,0,0,0,53.156,7.05q2.167,2.768,6.9,2.768t6.9-2.768A10.6,10.6,0,0,0,69.122.313Z" transform="translate(176.713 29.601)" fill="url(#linear-gradient-3)"/>
        <path id="Path_249" data-name="Path 249" d="M9.545.443a8.956,8.956,0,0,0,1.893-5.653,8.744,8.744,0,0,0-1.893-5.6A6.343,6.343,0,0,0,4.281-13.2a6.49,6.49,0,0,0-5.29,2.489,8.652,8.652,0,0,0-2.023,5.6A8.45,8.45,0,0,0-1.008.443a6.544,6.544,0,0,0,5.29,2.437A6.289,6.289,0,0,0,9.545.443Zm4.823-14.987a13.349,13.349,0,0,1,3.4,9.335A13.858,13.858,0,0,1,14.42,4.229,11.213,11.213,0,0,1,5.526,8.067,10.842,10.842,0,0,1,.7,6.978,8.225,8.225,0,0,1-2.72,4.022h-.1V16.779A3.238,3.238,0,0,1-3.809,19.5a3.436,3.436,0,0,1-2.126.752A3.436,3.436,0,0,1-8.061,19.5a3.238,3.238,0,0,1-.985-2.723V-14.7a3.075,3.075,0,0,1,.959-2.567,3.2,3.2,0,0,1,2-.752,3.334,3.334,0,0,1,2.048.726A3.065,3.065,0,0,1-3.083-14.7v.622h.156A9.072,9.072,0,0,1,.366-17.033a10.651,10.651,0,0,1,5.316-1.245A11.219,11.219,0,0,1,14.368-14.544Z" transform="translate(266.231 36.055)" fill="#fcfbff"/>
        <g id="Star" transform="translate(0 0)">
          <path id="Path_247" data-name="Path 247" d="M662.454,6906.306l13.628,9.816-10.135,31.217-12.791-7.229,9.3-33.8,4.915-16.2h35.858s15.291,7.718,14.019,18.509-19.106,23.331-19.106,23.331l-5.165-15.8,13.67-9.817-16.952-.027-5.171-15.876-5.216,15.891-16.593-.015" transform="translate(-653.157 -6890.104)" fill="url(#linear-gradient-4)"/>
          <path id="Path_248" data-name="Path 248" d="M706.795,6962.554l27.076,19.479-9.817,11.052-30.928-20.693Z" transform="translate(-675.43 -6930.477)" fill="url(#linear-gradient-5)"/>
        </g>
      </g>
      <path id="Polygon_1" data-name="Polygon 1" d="M39.584,11.9a8,8,0,0,1,13.833,0l32.6,56.08A8,8,0,0,1,79.1,80H13.9A8,8,0,0,1,6.987,67.98Z" transform="matrix(-0.375, 0.927, -0.927, -0.375, 537.218, 380.894)" fill="#fff"/>
    </g>
  </g>
</svg>
