<svg xmlns="http://www.w3.org/2000/svg" xmlns:xlink="http://www.w3.org/1999/xlink" width="245.227" height="54.061" viewBox="0 0 245.227 54.061">
  <defs>
    <linearGradient id="linear-gradient" x1="0.81" y1="-0.015" x2="0.151" y2="0.936" gradientUnits="objectBoundingBox">
      <stop offset="0" stop-color="#ffb8e4"/>
      <stop offset="1" stop-color="#b3568f"/>
    </linearGradient>
    <linearGradient id="linear-gradient-2" x1="0.844" y1="0.128" x2="0.006" y2="0.868" gradientUnits="objectBoundingBox">
      <stop offset="0" stop-color="#ff88d1"/>
      <stop offset="1" stop-color="#b3568f"/>
    </linearGradient>
    <linearGradient id="linear-gradient-3" x1="1.11" y1="1.11" x2="0.02" gradientUnits="objectBoundingBox">
      <stop offset="0" stop-color="#fba8db"/>
      <stop offset="1" stop-color="#b3568f"/>
    </linearGradient>
  </defs>
  <g id="Logo" transform="translate(0 0)">
    <path id="Path_250" data-name="Path 250" d="M26.02,31.84H12.5a5.34,5.34,0,0,0,1.97,3.762,6.235,6.235,0,0,0,4.165,1.523,7.479,7.479,0,0,0,4.926-1.836,2.946,2.946,0,0,1,1.836-.761,2.069,2.069,0,0,1,2.149,2.149,2.6,2.6,0,0,1-.9,1.926,11.057,11.057,0,0,1-7.971,2.911,11.657,11.657,0,0,1-8.307-3.045,10.7,10.7,0,0,1-3.247-8.195A10.969,10.969,0,0,1,18.5,18.765a10.239,10.239,0,0,1,6.851,2.351,10.545,10.545,0,0,1,3.4,6.919q.09.9.09,1.12Q28.841,31.84,26.02,31.84ZM12.5,27.989H23.512a5.425,5.425,0,0,0-1.3-3.717,4.741,4.741,0,0,0-3.762-1.478,6.007,6.007,0,0,0-4.075,1.478A5.31,5.31,0,0,0,12.5,27.989ZM50.134,34.93a7.733,7.733,0,0,0,1.634-4.881,7.55,7.55,0,0,0-1.634-4.836,5.477,5.477,0,0,0-4.545-2.06A5.6,5.6,0,0,0,41.021,25.3a7.471,7.471,0,0,0-1.746,4.836,7.3,7.3,0,0,0,1.746,4.791,5.65,5.65,0,0,0,4.568,2.1A5.431,5.431,0,0,0,50.134,34.93ZM54.3,21.989a11.526,11.526,0,0,1,2.933,8.06,11.966,11.966,0,0,1-2.888,8.15,9.683,9.683,0,0,1-7.68,3.314,9.362,9.362,0,0,1-4.165-.94,7.1,7.1,0,0,1-2.955-2.552h-.09V49.036a2.8,2.8,0,0,1-.851,2.351,2.92,2.92,0,0,1-3.672,0,2.8,2.8,0,0,1-.851-2.351V21.854a2.655,2.655,0,0,1,.828-2.217,2.762,2.762,0,0,1,1.724-.649,2.879,2.879,0,0,1,1.769.627,2.646,2.646,0,0,1,.828,2.239v.537h.134a7.834,7.834,0,0,1,2.844-2.552,9.2,9.2,0,0,1,4.59-1.075A9.688,9.688,0,0,1,54.3,21.989Zm27.741,0V38.468a2.588,2.588,0,0,1-.828,2.194,2.821,2.821,0,0,1-1.724.627,3.182,3.182,0,0,1-1.052-.179,2.246,2.246,0,0,1-1.008-.851,2.962,2.962,0,0,1-.493-1.791v-1.03h-.09a6.766,6.766,0,0,1-2.575,2.888,7.318,7.318,0,0,1-4.1,1.187,7.093,7.093,0,0,1-5.933-2.53,9.645,9.645,0,0,1-1.993-6.157V21.989a2.8,2.8,0,0,1,.851-2.351,2.92,2.92,0,0,1,3.672,0,2.8,2.8,0,0,1,.851,2.351V31.3q0,5.732,4.03,5.732a4.374,4.374,0,0,0,3.717-1.724,6.616,6.616,0,0,0,1.3-4.1V21.989a2.8,2.8,0,0,1,.851-2.351,2.92,2.92,0,0,1,3.672,0A2.8,2.8,0,0,1,82.04,21.989Zm16.7,18.763a5.828,5.828,0,0,1-2.642.582q-3.941,0-5.441-2.037a9.223,9.223,0,0,1-1.5-5.575V23.69H87.413A2.244,2.244,0,0,1,85.533,23,2.344,2.344,0,0,1,85,21.541a2.7,2.7,0,0,1,.157-.9,1.835,1.835,0,0,1,.739-.851,2.623,2.623,0,0,1,1.523-.4H89.16V15.675a2.677,2.677,0,0,1,.851-2.261,2.8,2.8,0,0,1,3.582,0,2.677,2.677,0,0,1,.851,2.261v3.717H97.8a2.244,2.244,0,0,1,1.881.694,2.344,2.344,0,0,1,.537,1.455,2.7,2.7,0,0,1-.157.9,1.835,1.835,0,0,1-.739.851,2.622,2.622,0,0,1-1.523.4H94.444v9.986q0,3.224,2.06,3.224a7.364,7.364,0,0,0,.851-.09,5.137,5.137,0,0,1,.627-.045,1.946,1.946,0,0,1,1.5.6,2.011,2.011,0,0,1,.56,1.411A2.124,2.124,0,0,1,98.743,40.752Zm22.614-8.911H107.833A5.34,5.34,0,0,0,109.8,35.6a6.235,6.235,0,0,0,4.165,1.523,7.479,7.479,0,0,0,4.926-1.836,2.946,2.946,0,0,1,1.836-.761,2.069,2.069,0,0,1,2.149,2.149,2.6,2.6,0,0,1-.9,1.926,11.057,11.057,0,0,1-7.971,2.911,11.657,11.657,0,0,1-8.307-3.045,10.7,10.7,0,0,1-3.247-8.195,10.969,10.969,0,0,1,11.374-11.509,10.239,10.239,0,0,1,6.851,2.351,10.545,10.545,0,0,1,3.4,6.919q.09.9.09,1.12Q124.178,31.84,121.357,31.84Zm-13.524-3.851h11.016a5.425,5.425,0,0,0-1.3-3.717,4.741,4.741,0,0,0-3.762-1.478,6.007,6.007,0,0,0-4.075,1.478A5.31,5.31,0,0,0,107.833,27.989Z" transform="translate(50.56 -3.414)" fill="#fcfbff"/>
    <path id="Path_245" data-name="Path 245" d="M65.66-3.771V-22.165c0-1.287-5.4.5-4.745,0S68.132-29.6,68.887-29.6s7.128,6.937,7.785,7.436-4.808-1.287-4.808,0V-3.53A12.654,12.654,0,0,1,67.9,6.223a14.243,14.243,0,0,1-10.07,3.669A14.243,14.243,0,0,1,47.762,6.223,12.654,12.654,0,0,1,43.8-3.53l-.035-7.5a3.175,3.175,0,0,1,.985-2.679,3.433,3.433,0,0,1,2.117-.748,3.433,3.433,0,0,1,2.117.748,3.175,3.175,0,0,1,.985,2.679L50-3.771a9.148,9.148,0,0,0,1.871,5.818q1.871,2.39,5.958,2.39t5.958-2.39A9.148,9.148,0,0,0,65.66-3.771Z" transform="translate(146.615 29.601)" fill="url(#linear-gradient)"/>
    <path id="Path_249" data-name="Path 249" d="M7.007-2.112A7.733,7.733,0,0,0,8.642-6.993,7.55,7.55,0,0,0,7.007-11.83a5.477,5.477,0,0,0-4.545-2.06A5.6,5.6,0,0,0-2.106-11.74,7.471,7.471,0,0,0-3.852-6.9,7.3,7.3,0,0,0-2.106-2.112a5.65,5.65,0,0,0,4.568,2.1A5.431,5.431,0,0,0,7.007-2.112Zm4.165-12.941A11.526,11.526,0,0,1,14.1-6.993a11.966,11.966,0,0,1-2.888,8.15A9.683,9.683,0,0,1,3.537,4.47,9.362,9.362,0,0,1-.628,3.53,7.1,7.1,0,0,1-3.583.977h-.09V11.993a2.8,2.8,0,0,1-.851,2.351,2.967,2.967,0,0,1-1.836.649A2.967,2.967,0,0,1-8.2,14.344a2.8,2.8,0,0,1-.851-2.351V-15.188A2.655,2.655,0,0,1-8.218-17.4a2.762,2.762,0,0,1,1.724-.649,2.879,2.879,0,0,1,1.769.627A2.646,2.646,0,0,1-3.9-15.188v.537h.134A7.834,7.834,0,0,1-.919-17.2a9.2,9.2,0,0,1,4.59-1.075A9.688,9.688,0,0,1,11.172-15.054Z" transform="translate(231.122 33.628)" fill="#fcfbff"/>
    <g id="Star">
      <path id="Path_247" data-name="Path 247" d="M661.185,6904.094l11.768,8.477-8.751,26.956-11.044-6.242,8.028-29.19,4.244-13.991h30.963s13.2,6.664,12.105,15.982-16.5,20.146-16.5,20.146l-4.46-13.644,11.8-8.477-14.638-.024-4.465-13.708-4.5,13.721-14.328-.013" transform="translate(-653.157 -6890.104)" fill="url(#linear-gradient-2)"/>
      <path id="Path_248" data-name="Path 248" d="M704.928,6962.554l23.38,16.819-8.477,9.543-26.706-17.868Z" transform="translate(-677.845 -6934.856)" fill="url(#linear-gradient-3)"/>
    </g>
  </g>
</svg>
