<svg id="navigation-shopping-cart" xmlns="http://www.w3.org/2000/svg" width="22.492" height="19.768" viewBox="0 0 22.492 19.768">
  <path id="Path_254" data-name="Path 254" d="M7.246,13.179H19.2a.659.659,0,0,0,.634-.478l2.636-9.225a.659.659,0,0,0-.634-.84H5.727L5.256.516A.659.659,0,0,0,4.612,0H.659a.659.659,0,0,0,0,1.318H4.084L6.463,12.024a1.977,1.977,0,0,0,.785,3.791H19.2a.659.659,0,0,0,0-1.318H7.248a.659.659,0,0,1,0-1.318ZM20.959,3.954,18.7,11.861H7.777L6.02,3.954Zm0,0" transform="translate(0 0)" fill="#fff"/>
  <path id="Path_255" data-name="Path 255" d="M150,361.977A1.977,1.977,0,1,0,151.977,360,1.979,1.979,0,0,0,150,361.977Zm1.977-.659a.659.659,0,1,1-.659.659A.66.66,0,0,1,151.977,361.318Zm0,0" transform="translate(-143.411 -344.186)" fill="#fff"/>
  <path id="Path_256" data-name="Path 256" d="M362,361.977A1.977,1.977,0,1,0,363.977,360,1.979,1.979,0,0,0,362,361.977Zm1.977-.659a.659.659,0,1,1-.659.659A.66.66,0,0,1,363.977,361.318Zm0,0" transform="translate(-346.098 -344.186)" fill="#fff"/>
</svg>
