<svg width="297" height="194" viewBox="0 0 297 194" fill="none" xmlns="http://www.w3.org/2000/svg">
<path d="M13.1134 178.703C14.3662 179.142 15.7114 179.252 17.0193 179.022C18.3272 178.793 19.5538 178.232 20.5807 177.393C23.1962 175.206 24.0164 171.605 24.6834 168.269L26.6569 158.403L22.5252 161.237C19.5537 163.275 16.5155 165.378 14.4583 168.33C12.401 171.281 11.5035 175.311 13.156 178.505" fill="#E6E6E6"/>
<path d="M13.7513 191.335C13.2313 187.561 12.6962 183.739 13.0619 179.924C13.3859 176.537 14.4235 173.229 16.5359 170.515C17.6572 169.078 19.0215 167.846 20.5677 166.876C20.9707 166.623 21.3418 167.259 20.9405 167.511C18.2652 169.195 16.1959 171.682 15.031 174.613C13.7444 177.872 13.5378 181.425 13.7594 184.888C13.8934 186.982 14.178 189.062 14.4639 191.139C14.4865 191.233 14.4724 191.332 14.4245 191.416C14.3766 191.5 14.2984 191.563 14.2059 191.592C14.1114 191.617 14.0108 191.604 13.9257 191.556C13.8407 191.508 13.7781 191.428 13.7516 191.335L13.7513 191.335Z" fill="#F2F2F2"/>
<path d="M17.4945 185.28C18.0317 186.093 18.7703 186.755 19.6391 187.202C20.5078 187.649 21.4774 187.865 22.4545 187.83C24.966 187.712 27.059 185.966 28.9429 184.309L34.5163 179.407L30.8278 179.232C28.1751 179.105 25.4541 178.986 22.9275 179.802C20.401 180.618 18.0709 182.578 17.609 185.183" fill="#E6E6E6"/>
<path d="M12.2814 193.505C14.785 189.092 17.6888 184.188 22.8778 182.621C24.3205 182.186 25.8332 182.031 27.3346 182.162C27.8078 182.203 27.6896 182.929 27.2174 182.889C24.7007 182.681 22.1889 183.343 20.1048 184.763C18.0993 186.123 16.5377 188.013 15.2162 190.018C14.4066 191.246 13.6814 192.526 12.9563 193.804C12.7246 194.213 12.047 193.918 12.2814 193.505Z" fill="#F2F2F2"/>
<path d="M187.015 100.35H77.1569V193.553H187.015V100.35Z" fill="white"/>
<path d="M187.334 193.871H76.8375V100.032H187.334V193.871ZM77.4762 193.235H186.696V100.668H77.4762V193.235Z" fill="#3F3D56"/>
<path d="M145.818 118.482H118.354V193.553H145.818V118.482Z" fill="#B3568F"/>
<path d="M145.818 118.482H118.354V193.553H145.818V118.482Z" fill="#B3568F"/>
<path opacity="0.2" d="M77.4761 107.189V122.311L187.015 129.297L186.692 110.638L77.4761 107.189Z" fill="black"/>
<path d="M193.402 91.7614H70.7698V118.482H193.402V91.7614Z" fill="white"/>
<path d="M193.721 118.8H70.4504V91.4432H193.721V118.8ZM71.0891 118.164H193.083V92.0794H71.0891V118.164Z" fill="#3F3D56"/>
<path d="M145.818 89.2166H118.354V118.164H145.818V89.2166Z" fill="#B3568F"/>
<path d="M129.145 63.9774C136.395 74.6819 129.564 91.8987 129.564 91.8987C129.564 91.8987 110.98 91.7599 103.73 81.0554C96.4799 70.3508 103.311 53.1341 103.311 53.1341C103.311 53.1341 121.896 53.2729 129.145 63.9774Z" fill="#B3568F"/>
<path d="M132.472 63.9774C125.222 74.6819 132.053 91.8987 132.053 91.8987C132.053 91.8987 150.637 91.7599 157.887 81.0554C165.137 70.3508 158.306 53.1341 158.306 53.1341C158.306 53.1341 139.721 53.2729 132.472 63.9774Z" fill="#B3568F"/>
<path d="M112.925 72.0392C114.512 72.0392 115.799 70.7574 115.799 69.1763C115.799 67.5952 114.512 66.3134 112.925 66.3134C111.337 66.3134 110.05 67.5952 110.05 69.1763C110.05 70.7574 111.337 72.0392 112.925 72.0392Z" fill="#3F3D56"/>
<path d="M130.17 100.986C131.757 100.986 133.044 99.7045 133.044 98.1233C133.044 96.5422 131.757 95.2604 130.17 95.2604C128.582 95.2604 127.296 96.5422 127.296 98.1233C127.296 99.7045 128.582 100.986 130.17 100.986Z" fill="#3F3D56"/>
<path d="M130.17 163.652C131.757 163.652 133.044 162.37 133.044 160.789C133.044 159.208 131.757 157.926 130.17 157.926C128.582 157.926 127.296 159.208 127.296 160.789C127.296 162.37 128.582 163.652 130.17 163.652Z" fill="#3F3D56"/>
<path d="M120.589 81.5822C121.647 81.5822 122.505 80.7277 122.505 79.6736C122.505 78.6195 121.647 77.765 120.589 77.765C119.531 77.765 118.673 78.6195 118.673 79.6736C118.673 80.7277 119.531 81.5822 120.589 81.5822Z" fill="#3F3D56"/>
<path d="M149.331 65.3591C150.389 65.3591 151.247 64.5046 151.247 63.4505C151.247 62.3964 150.389 61.5419 149.331 61.5419C148.273 61.5419 147.415 62.3964 147.415 63.4505C147.415 64.5046 148.273 65.3591 149.331 65.3591Z" fill="#3F3D56"/>
<path d="M136.876 110.211C137.934 110.211 138.792 109.357 138.792 108.302C138.792 107.248 137.934 106.394 136.876 106.394C135.818 106.394 134.96 107.248 134.96 108.302C134.96 109.357 135.818 110.211 136.876 110.211Z" fill="#3F3D56"/>
<path d="M125.379 135.023C126.438 135.023 127.296 134.168 127.296 133.114C127.296 132.06 126.438 131.206 125.379 131.206C124.321 131.206 123.463 132.06 123.463 133.114C123.463 134.168 124.321 135.023 125.379 135.023Z" fill="#3F3D56"/>
<path d="M135.279 143.611C136.338 143.611 137.196 142.757 137.196 141.703C137.196 140.649 136.338 139.794 135.279 139.794C134.221 139.794 133.363 140.649 133.363 141.703C133.363 142.757 134.221 143.611 135.279 143.611Z" fill="#3F3D56"/>
<path d="M133.044 179.557C134.102 179.557 134.96 178.702 134.96 177.648C134.96 176.594 134.102 175.739 133.044 175.739C131.986 175.739 131.128 176.594 131.128 177.648C131.128 178.702 131.986 179.557 133.044 179.557Z" fill="#3F3D56"/>
<path d="M251.216 190.039L247.712 190.039L246.044 176.575L251.217 176.575L251.216 190.039Z" fill="#FFB7B7"/>
<path d="M252.11 193.423L240.81 193.422V193.28C240.81 192.118 241.274 191.004 242.098 190.182C242.923 189.361 244.042 188.899 245.208 188.899H245.208L252.11 188.899L252.11 193.423Z" fill="#2F2E41"/>
<path d="M259.775 190.039L263.28 190.039L264.947 176.575L259.774 176.575L259.775 190.039Z" fill="#FFB7B7"/>
<path d="M258.881 188.9L265.783 188.899H265.783C266.949 188.899 268.068 189.361 268.893 190.182C269.718 191.004 270.181 192.118 270.181 193.28V193.422L258.881 193.423L258.881 188.9Z" fill="#2F2E41"/>
<path d="M250.437 84.8234C251.942 81.8058 250.707 78.1442 247.677 76.645C244.648 75.1457 240.972 76.3765 239.466 79.3941C237.961 82.4117 239.197 86.0733 242.226 87.5726C245.256 89.0718 248.932 87.841 250.437 84.8234Z" fill="#FFB7B7"/>
<path d="M240.441 124.08C240.441 124.08 238.507 132.107 239.474 135.961C240.441 139.814 243.343 166.145 243.343 166.145L245.277 187.017L253.014 187.659L252.047 163.255L253.014 142.062L258.494 162.613V187.089L266.7 187.411L266.876 155.548C266.876 155.548 267.521 130.502 263.33 127.291C259.139 124.08 258.494 123.438 258.494 123.438L240.441 124.08Z" fill="#2F2E41"/>
<path d="M252.121 88.7582L259.462 92.6115L260.429 126.007C260.429 126.007 256.238 123.438 249.79 126.649C243.343 129.86 239.152 127.612 239.152 127.612L243.02 113.162L241.409 93.8959L243.714 91.8116L252.121 88.7582Z" fill="#CBCBCB"/>
<path d="M243.715 91.2038L242.376 92.2903C242.376 92.2903 233.994 96.4647 233.672 99.3547L239.474 115.089C239.474 115.089 241.086 118.621 239.797 119.905C238.507 121.19 237.218 124.401 237.54 126.006C237.862 127.612 235.606 134.355 238.185 134.355C240.764 134.355 246.889 118.942 246.567 112.841C246.244 106.74 246.021 90.7594 243.715 91.2038Z" fill="#2F2E41"/>
<path d="M249.35 89.12L252.303 88.6306C252.303 88.6306 263.263 91.5206 264.875 96.3372L260.362 107.576C260.362 107.576 263.586 128.127 262.619 128.127H261.652C261.652 128.127 264.231 130.053 262.619 130.696C261.007 131.338 257.138 136.475 256.171 134.228C255.204 131.98 249.401 105.328 250.046 99.5482C250.691 93.7683 248.777 89.7255 249.35 89.12Z" fill="#2F2E41"/>
<path d="M250.631 76.135L250.918 75.5598L249.475 74.8454C249.475 74.8454 247.882 72.2646 245.001 72.9899C242.119 73.7151 240.823 74.1492 240.823 74.1492L239.383 74.8708L240.106 75.587L238.809 76.0211L239.675 76.4497L238.667 77.0267L239.21 79.9843C239.21 79.9843 240.111 77.7411 241.843 78.5983C243.575 79.4556 246.744 78.1552 246.744 78.1552L249.497 83.4616C249.497 83.4616 250.064 81.6014 251.077 82.0974C251.077 82.0974 253.664 77.9942 250.631 76.135Z" fill="#2F2E41"/>
<path d="M259.598 132.481C259.439 132.094 259.367 131.676 259.387 131.258C259.407 130.84 259.519 130.431 259.715 130.061C259.911 129.691 260.186 129.368 260.52 129.115C260.855 128.862 261.242 128.685 261.652 128.597L262.893 118.498L266.937 121.923L265.139 130.988C265.241 131.685 265.084 132.396 264.696 132.985C264.308 133.575 263.717 134.002 263.034 134.186C262.351 134.37 261.624 134.298 260.991 133.984C260.357 133.669 259.862 133.135 259.598 132.481V132.481Z" fill="#FFB7B7"/>
<path d="M242.304 131.786C242.421 131.384 242.448 130.961 242.384 130.548C242.319 130.134 242.164 129.74 241.93 129.392C241.696 129.045 241.388 128.752 241.028 128.536C240.668 128.32 240.265 128.185 239.847 128.141L237.538 118.23L233.882 122.063L236.636 130.887C236.607 131.591 236.84 132.281 237.288 132.826C237.736 133.371 238.37 133.733 239.069 133.844C239.767 133.955 240.483 133.807 241.079 133.427C241.675 133.048 242.111 132.464 242.304 131.786H242.304Z" fill="#FFB7B7"/>
<path d="M259.754 93.7203C259.754 93.7203 263.945 92.1148 265.234 96.9314C266.524 101.748 268.136 111.381 268.136 111.381C268.216 116.738 267.93 116.738 268.136 121.978L267.168 126.794L261.688 126.152L261.927 113.891L259.109 101.427L259.754 93.7203Z" fill="#2F2E41"/>
<path d="M236.573 97.428L234.586 97.6397C234.586 97.6397 232.704 99.0336 232.704 102.245C232.704 105.456 232.382 115.089 232.382 115.089C232.382 115.089 232.199 115.314 233.672 123.438C234.389 127.397 235.629 129.266 235.629 129.266L239.631 125.564L239.152 116.052L240.441 110.915L236.573 97.428Z" fill="#2F2E41"/>
<path d="M296.681 193.871H0.319355C0.234657 193.871 0.153427 193.838 0.0935366 193.778C0.033646 193.718 0 193.637 0 193.553C0 193.469 0.033646 193.388 0.0935366 193.328C0.153427 193.268 0.234657 193.235 0.319355 193.235H296.681C296.765 193.235 296.847 193.268 296.906 193.328C296.966 193.388 297 193.469 297 193.553C297 193.637 296.966 193.718 296.906 193.778C296.847 193.838 296.765 193.871 296.681 193.871Z" fill="#3F3D56"/>
<path d="M73.6587 99.3209C77.5439 99.3209 80.6934 96.1837 80.6934 92.3138C80.6934 88.444 77.5439 85.3068 73.6587 85.3068C69.7736 85.3068 66.6241 88.444 66.6241 92.3138C66.6241 96.1837 69.7736 99.3209 73.6587 99.3209Z" fill="#FFB8B8"/>
<path d="M71.1189 133.775C71.0303 133.775 70.9413 133.772 70.8519 133.764C70.4095 133.727 69.9798 133.598 69.5912 133.384C69.2025 133.17 68.8635 132.877 68.5965 132.524C68.3294 132.17 68.1404 131.765 68.0416 131.334C67.9429 130.903 67.9367 130.456 68.0236 130.022C68.0441 129.921 68.0699 129.822 68.1009 129.724L57.7183 117.492C57.38 117.091 57.1807 116.591 57.1501 116.068C57.1194 115.544 57.259 115.025 57.548 114.587L57.5669 114.564L66.9125 105.385C67.4227 104.884 68.1118 104.605 68.8283 104.61C69.5447 104.615 70.2298 104.904 70.7329 105.412C71.2359 105.92 71.5157 106.607 71.5106 107.32C71.5056 108.034 71.2161 108.716 70.7059 109.217C70.6942 109.229 70.6824 109.24 70.6704 109.252L63.9017 115.661L71.3118 127.507C71.4521 127.515 71.5918 127.532 71.7297 127.558C72.4962 127.711 73.1785 128.141 73.6441 128.767C74.1097 129.392 74.3254 130.168 74.2493 130.942C74.1731 131.717 73.8106 132.436 73.2322 132.96C72.6537 133.483 71.9005 133.774 71.1189 133.775H71.1189Z" fill="#FFB8B8"/>
<path d="M85.2447 189.834H88.7564L90.4266 176.343L85.2441 176.343L85.2447 189.834Z" fill="#FFB8B8"/>
<path d="M84.3492 188.692L91.2644 188.692H91.2646C92.4334 188.692 93.5543 189.154 94.3808 189.977C95.2072 190.8 95.6715 191.917 95.6716 193.081V193.224L84.3494 193.224L84.3492 188.692Z" fill="#2F2E41"/>
<path d="M50.3434 184.998L53.3607 186.788L61.7252 176.047L57.2725 173.406L50.3434 184.998Z" fill="#FFB8B8"/>
<path d="M50.1604 183.56L56.1021 187.084L56.1024 187.084C57.1066 187.68 57.8322 188.648 58.1195 189.777C58.4068 190.905 58.2323 192.101 57.6343 193.102L57.6342 193.102L57.561 193.224L47.8326 187.455L50.1604 183.56Z" fill="#2F2E41"/>
<path d="M89.5848 185.069H85.6528C85.3344 185.069 85.0272 184.952 84.7905 184.74C84.5537 184.528 84.4044 184.236 84.3712 183.921L80.4072 146.806C80.3972 146.712 80.3566 146.625 80.2917 146.556C80.2268 146.488 80.1412 146.443 80.048 146.428C79.9549 146.413 79.8594 146.429 79.7764 146.474C79.6933 146.519 79.6272 146.589 79.5884 146.675L72.4372 162.447L59.7765 183.011C59.6126 183.274 59.3589 183.47 59.0618 183.563C58.7647 183.655 58.4441 183.638 58.1586 183.515L53.1008 181.298C52.9335 181.225 52.7839 181.117 52.6617 180.981C52.5395 180.846 52.4476 180.686 52.392 180.513C52.3365 180.34 52.3186 180.156 52.3395 179.976C52.3604 179.795 52.4197 179.62 52.5134 179.464L64.1521 160.053L67.7216 143.698C66.599 136.605 71.4118 126.06 71.4606 125.954L71.4844 125.903L84.7414 120.742L84.8079 120.823C90.0361 137.912 93.2219 156.303 90.8696 183.893C90.8406 184.213 90.6929 184.51 90.4554 184.728C90.2178 184.945 89.9075 185.067 89.5848 185.069V185.069Z" fill="#2F2E41"/>
<path d="M70.9503 127.631L70.8886 127.502C70.8591 127.44 67.9113 121.247 65.6389 114.628C65.2022 113.348 65.0371 111.992 65.1541 110.645C65.2711 109.298 65.6676 107.991 66.3185 106.804C66.9779 105.606 67.88 104.557 68.9677 103.724C70.0553 102.891 71.3048 102.292 72.637 101.965V101.965C74.9498 101.413 77.3847 101.706 79.4982 102.793C81.6116 103.879 83.263 105.685 84.1515 107.882C85.954 112.372 85.3795 117.164 84.8389 120.933L84.8281 121.009L84.7592 121.041L70.9503 127.631Z" fill="#B3568F"/>
<path d="M82.1881 88.3558H71.0179V83.5059C73.4696 82.5357 75.8687 81.7106 77.319 83.5059C78.6104 83.5059 79.8488 84.0168 80.7619 84.9264C81.6751 85.8359 82.1881 87.0695 82.1881 88.3558H82.1881Z" fill="#2F2E41"/>
<path d="M70.3994 82.65C63.7217 82.65 61.8525 90.9874 61.8525 95.6909C61.8525 98.314 63.0435 99.2522 64.915 99.5697L65.576 96.0586L67.1239 99.7207C67.6497 99.7234 68.2019 99.7132 68.7745 99.7026L69.2993 98.6262L70.4698 99.6833C75.1574 99.6903 78.9462 100.371 78.9462 95.6909C78.9462 90.9874 77.307 82.65 70.3994 82.65Z" fill="#2F2E41"/>
<path d="M100.082 91.9812C100.124 92.0586 100.163 92.1383 100.199 92.2202C100.379 92.6245 100.471 93.0622 100.469 93.5044C100.467 93.9466 100.371 94.3834 100.188 94.7862C100.005 95.189 99.7382 95.5487 99.4057 95.8417C99.0732 96.1348 98.6823 96.3545 98.2585 96.4865C98.1599 96.5169 98.0598 96.5421 97.9586 96.562L92.1602 111.502C91.9685 111.99 91.6238 112.404 91.1774 112.682C90.731 112.959 90.2065 113.086 89.6819 113.044L89.6528 113.038L77.0852 109.27C76.3998 109.063 75.8246 108.594 75.4861 107.966C75.1476 107.337 75.0734 106.601 75.2799 105.918C75.4863 105.235 75.9565 104.662 76.5872 104.324C77.2178 103.986 77.9572 103.911 78.6431 104.116C78.6587 104.121 78.6744 104.126 78.69 104.131L87.5822 106.975L94.4665 94.8178C94.4057 94.6917 94.3538 94.5614 94.3113 94.4279C94.0781 93.6849 94.1305 92.882 94.4582 92.1752C94.7859 91.4685 95.3656 90.9082 96.0847 90.6033C96.8039 90.2983 97.6111 90.2705 98.3497 90.5251C99.0883 90.7797 99.7056 91.2987 100.082 91.9812L100.082 91.9812Z" fill="#FFB8B8"/>
<path d="M211.802 54.035C207.104 47.7725 198.505 46.2611 194.232 49.4415C189.96 52.6218 188.978 61.2639 193.676 67.5263C198.025 73.323 205.904 74.9039 210.243 72.7322C210.229 72.8 210.228 72.8698 210.241 72.9379L210.485 74.1427C210.504 74.2346 210.546 74.3201 210.607 74.3913C210.668 74.4625 210.747 74.5169 210.835 74.5494C210.923 74.5819 211.018 74.5913 211.111 74.5769C211.204 74.5625 211.292 74.5246 211.366 74.4669L213.438 72.8547C213.512 72.7971 213.57 72.7215 213.607 72.6351C213.643 72.5488 213.657 72.4546 213.647 72.3614C213.636 72.2683 213.602 72.1793 213.548 72.1029C213.493 72.0266 213.42 71.9653 213.335 71.9251L212.221 71.3971C212.181 71.3796 212.14 71.3667 212.098 71.3588C215.443 67.8364 216.16 59.8442 211.802 54.035Z" fill="#CCCCCC"/>
<path d="M201.526 51.6705C203.824 52.0341 205.894 53.2627 207.309 55.1027C208.724 56.9427 209.376 59.2536 209.13 61.5584C209.08 62.0864 209.908 62.083 209.958 61.5584C210.195 59.0742 209.48 56.5926 207.957 54.6113C206.434 52.63 204.215 51.2954 201.746 50.8754C201.225 50.7871 201.001 51.5816 201.526 51.6705Z" fill="white"/>
<path d="M54.9922 61.8895C59.0996 55.2278 57.3338 46.7103 52.7886 43.9298C48.2433 41.1494 39.818 43.4327 35.7106 50.0944C31.9087 56.2607 33.3437 64.1374 36.9726 67.3522C36.9042 67.3643 36.8387 67.3893 36.7797 67.4259L35.746 68.0973C35.6672 68.1485 35.6029 68.2189 35.5591 68.3018C35.5153 68.3848 35.4935 68.4775 35.4958 68.5711C35.4981 68.6648 35.5243 68.7564 35.5721 68.8371C35.6199 68.9178 35.6876 68.985 35.7688 69.0323L38.0382 70.3546C38.1194 70.4019 38.2114 70.4277 38.3054 70.4297C38.3995 70.4316 38.4925 70.4096 38.5756 70.3657C38.6587 70.3217 38.7291 70.2574 38.7802 70.1787C38.8313 70.1 38.8614 70.0097 38.8676 69.9162L38.9485 68.6896C38.9504 68.6468 38.9472 68.6039 38.939 68.5619C43.4607 70.3572 51.182 68.0692 54.9922 61.8895Z" fill="#CCCCCC"/>
<path d="M53.4025 51.5039C53.9121 53.7655 53.5305 56.1356 52.3365 58.125C51.1425 60.1145 49.2273 61.5714 46.9861 62.195C46.4749 62.3433 46.784 63.1086 47.2918 62.9613C49.697 62.263 51.7483 60.6849 53.0343 58.5433C54.3202 56.4017 54.7458 53.855 54.2256 51.4139C54.1155 50.899 53.2916 50.9851 53.4025 51.5039Z" fill="white"/>
<path d="M260.359 13.655C260.015 5.84476 253.763 -0.226044 248.434 0.00646107C243.105 0.238966 237.409 6.83107 237.753 14.6413C238.071 21.8707 243.689 27.5953 248.503 28.2338C248.453 28.282 248.413 28.3392 248.385 28.4025L247.906 29.5354C247.869 29.6218 247.856 29.716 247.866 29.8091C247.876 29.9022 247.91 29.9912 247.965 30.0675C248.02 30.1438 248.093 30.205 248.178 30.2452C248.263 30.2854 248.357 30.3033 248.45 30.2972L251.074 30.1265C251.168 30.1204 251.259 30.0905 251.338 30.0396C251.417 29.9887 251.481 29.9186 251.525 29.8359C251.57 29.7531 251.592 29.6605 251.59 29.5668C251.588 29.4731 251.562 29.3815 251.515 29.3006L250.892 28.2393C250.869 28.2028 250.843 28.1691 250.812 28.1388C255.568 27.1033 260.677 20.9001 260.359 13.655Z" fill="#B3568F"/>
<path d="M253.202 5.93837C254.896 7.52758 255.912 9.70391 256.042 12.0181C256.171 14.3324 255.404 16.6078 253.898 18.3748C253.558 18.7829 254.244 19.2444 254.582 18.839C256.182 16.9187 256.994 14.4669 256.855 11.9753C256.716 9.48372 255.636 7.13659 253.833 5.40462C253.452 5.03949 252.818 5.57054 253.202 5.93837Z" fill="white"/>
<path d="M211.341 36.2025C209.287 36.0737 207.293 35.4617 205.522 34.4169C203.751 33.3721 202.254 31.9242 201.154 30.1918C200.845 29.7007 200.443 29.161 200.656 28.5565C200.73 28.3248 200.882 28.125 201.085 27.9898C201.288 27.8547 201.531 27.7922 201.775 27.8125C202.404 27.8888 202.81 28.5022 202.888 29.0899C202.976 29.7566 202.504 30.28 201.921 30.5278C200.496 31.1331 199.059 30.1976 197.898 29.451C195.254 27.7499 192.346 26.2115 189.142 26.0176C186.177 25.8382 182.998 26.996 181.349 29.5567C181.061 30.0046 181.777 30.4186 182.064 29.9728C183.699 27.4333 187.005 26.5212 189.88 26.9137C191.593 27.183 193.247 27.7423 194.77 28.5675C195.56 28.9759 196.326 29.4287 197.077 29.9046C197.791 30.4011 198.549 30.8335 199.34 31.1966C200.659 31.7365 202.406 31.6943 203.328 30.4513C204.187 29.2917 203.523 27.3612 202.085 27.0352C201.769 26.9732 201.443 26.9902 201.136 27.0846C200.829 27.1791 200.55 27.3479 200.324 27.5762C200.099 27.8044 199.934 28.0848 199.843 28.3923C199.753 28.6997 199.741 29.0246 199.808 29.3379C199.952 30.0207 200.468 30.689 200.868 31.2472C202.068 32.9295 203.633 34.3221 205.445 35.3224C207.258 36.3227 209.273 36.9053 211.341 37.0271C211.874 37.0534 211.872 36.2287 211.341 36.2025H211.341Z" fill="#CCCCCC"/>
</svg>
