<svg id="pricing-arrow" xmlns="http://www.w3.org/2000/svg" width="20.446" height="20.446" viewBox="0 0 20.446 20.446">
  <path id="Path_264" data-name="Path 264" d="M19.076,5.092a10.18,10.18,0,0,0-3.721-3.72A10,10,0,0,0,10.223,0,10,10,0,0,0,5.092,1.371a10.178,10.178,0,0,0-3.721,3.72A10,10,0,0,0,0,10.223a10,10,0,0,0,1.371,5.132,10.18,10.18,0,0,0,3.721,3.721,10,10,0,0,0,5.132,1.371,10,10,0,0,0,5.132-1.371,10.178,10.178,0,0,0,3.72-3.721,10,10,0,0,0,1.371-5.132A10,10,0,0,0,19.076,5.092Zm-2.037,5.984a.864.864,0,0,1-.852.852H9.5l2.516,2.516a.868.868,0,0,1,0,1.2l-1.211,1.211a.868.868,0,0,1-1.2,0L4.792,12.033,3.581,10.822a.868.868,0,0,1,0-1.2L4.792,8.413,9.611,3.594a.869.869,0,0,1,1.2,0L12.02,4.805a.836.836,0,0,1,0,1.2L9.5,8.519h6.682a.864.864,0,0,1,.852.852v1.7Z" fill="#7661b9"/>
</svg>
