<svg xmlns="http://www.w3.org/2000/svg" xmlns:xlink="http://www.w3.org/1999/xlink" width="2005.696" height="1141.851" viewBox="0 0 2005.696 1141.851">
  <defs>
    <filter id="Exclusion_3" x="1058.622" y="315.882" width="685.533" height="685.533" filterUnits="userSpaceOnUse">
      <feOffset dy="11" input="SourceAlpha"/>
      <feGaussianBlur stdDeviation="17.5" result="blur"/>
      <feFlood flood-opacity="0.11"/>
      <feComposite operator="in" in2="blur"/>
      <feComposite in="SourceGraphic"/>
    </filter>
  </defs>
  <g id="road" transform="translate(61.287 37.33)" opacity="0.1">
    <rect id="Rectangle_15" data-name="Rectangle 15" width="37" height="690" transform="matrix(0.94, 0.342, -0.342, 0.94, 340.351, 443.479)" fill="#fff"/>
    <rect id="Rectangle_20" data-name="Rectangle 20" width="37" height="902.913" transform="matrix(0.122, 0.993, -0.993, 0.122, 878.239, 662.645)" fill="#fff"/>
    <rect id="Rectangle_28" data-name="Rectangle 28" width="37" height="1590.913" transform="translate(1460.11 -37.33) rotate(73)" fill="#fff"/>
    <rect id="Rectangle_29" data-name="Rectangle 29" width="37" height="496.246" transform="translate(825.786 251.736) rotate(73)" fill="#fff"/>
    <rect id="Rectangle_32" data-name="Rectangle 32" width="37" height="531.246" transform="translate(1879.152 817.793) rotate(172)" fill="#fff"/>
    <rect id="Rectangle_31" data-name="Rectangle 31" width="37" height="380.016" transform="translate(1053.208 357.333) rotate(32)" fill="#fff"/>
    <rect id="Rectangle_16" data-name="Rectangle 16" width="37" height="486" transform="translate(246.067 -13.879) rotate(-11)" fill="#fff"/>
    <rect id="Rectangle_30" data-name="Rectangle 30" width="37" height="290.911" transform="matrix(0.999, 0.052, -0.052, 0.999, 814.637, -5.067)" fill="#fff"/>
    <rect id="Rectangle_18" data-name="Rectangle 18" width="37" height="242" transform="matrix(0.891, -0.454, 0.454, 0.891, 657.898, 715.955)" fill="#fff"/>
    <rect id="Rectangle_19" data-name="Rectangle 19" width="37" height="173" transform="translate(763.782 912.815) rotate(3)" fill="#fff"/>
    <g transform="matrix(1, 0, 0, 1, -61.29, -37.33)" filter="url(#Exclusion_3)">
      <path id="Exclusion_3-2" data-name="Exclusion 3" d="M257,514a258.9,258.9,0,0,1-51.794-5.221,255.592,255.592,0,0,1-91.9-38.67A257.749,257.749,0,0,1,20.2,357.036,255.706,255.706,0,0,1,5.221,308.795a259.506,259.506,0,0,1,0-103.589,255.592,255.592,0,0,1,38.67-91.9A257.752,257.752,0,0,1,156.964,20.2,255.706,255.706,0,0,1,205.206,5.221a259.506,259.506,0,0,1,103.589,0,255.591,255.591,0,0,1,91.9,38.67A257.752,257.752,0,0,1,493.8,156.964a255.7,255.7,0,0,1,14.975,48.242,259.506,259.506,0,0,1,0,103.589,255.591,255.591,0,0,1-38.67,91.9A257.749,257.749,0,0,1,357.036,493.8a255.7,255.7,0,0,1-48.242,14.975A258.9,258.9,0,0,1,257,514Zm0-476.831C135.785,37.169,37.169,135.785,37.169,257S135.785,476.831,257,476.831,476.831,378.215,476.831,257,378.215,37.169,257,37.169Z" transform="translate(1111.12 428.92) rotate(-8)" fill="#fff"/>
    </g>
    <rect id="Rectangle_23" data-name="Rectangle 23" width="37" height="542.578" transform="translate(1010.09 108.789) rotate(-8)" fill="#fff"/>
    <rect id="Rectangle_24" data-name="Rectangle 24" width="37" height="514.339" transform="translate(1558.099 580.691) rotate(-8)" fill="#fff"/>
    <rect id="Rectangle_27" data-name="Rectangle 27" width="37" height="217.347" transform="translate(1122.242 870.168)" fill="#fff"/>
    <rect id="Rectangle_25" data-name="Rectangle 25" width="37" height="601.609" transform="translate(780.114 948.546) rotate(-98)" fill="#fff"/>
    <rect id="Rectangle_26" data-name="Rectangle 26" width="37" height="638.65" transform="translate(1309.483 392.46) rotate(-98)" fill="#fff"/>
    <rect id="Rectangle_33" data-name="Rectangle 33" width="37" height="349.325" transform="translate(1598.483 861.549) rotate(-98)" fill="#fff"/>
    <rect id="Rectangle_17" data-name="Rectangle 17" width="37" height="499.344" transform="matrix(0.122, 0.993, -0.993, 0.122, 477.677, 711.828)" fill="#fff"/>
    <g id="points">
      <circle id="Ellipse_6" data-name="Ellipse 6" cx="10" cy="10" r="10" transform="translate(1504 765)" fill="#0f993e"/>
      <circle id="Ellipse_9" data-name="Ellipse 9" cx="10" cy="10" r="10" transform="translate(727 821)" fill="#0f993e"/>
      <circle id="Ellipse_11" data-name="Ellipse 11" cx="10" cy="10" r="10" transform="translate(1718 306)" fill="#ffd500"/>
      <circle id="Ellipse_12" data-name="Ellipse 12" cx="10" cy="10" r="10" transform="translate(1811 530)" fill="#d93f21"/>
      <circle id="Ellipse_10" data-name="Ellipse 10" cx="10" cy="10" r="10" transform="translate(1132 1001)" fill="#167ee6"/>
      <circle id="Ellipse_7" data-name="Ellipse 7" cx="10" cy="10" r="10" transform="translate(1035 220)" fill="#0f993e"/>
      <circle id="Ellipse_8" data-name="Ellipse 8" cx="10" cy="10" r="10" transform="translate(1045 279)" fill="#d93f21"/>
    </g>
  </g>
</svg>
