<svg xmlns="http://www.w3.org/2000/svg" width="1920" height="810.001" viewBox="0 0 1920 810.001">
  <path id="road-bg-800" d="M4584.287,847.331H4329.923l-31.407-167.606L4584.287,649.6V847.33Zm-797.758,0H3456.343l6.767-100.562,323.419-34.09V847.33Zm-366.9,0H2812.338l110.65-228.005,404.484-37.248,100.094,147.335-7.933,117.919Zm872.927,0H3823.53V708.777l216.625-22.833a332.253,332.253,0,0,0,50.565-9.284,300.913,300.913,0,0,0,45.688-16.158,266.215,266.215,0,0,0,39.933-22.155,229.7,229.7,0,0,0,33.3-27.277,194.639,194.639,0,0,0,25.783-31.525c1.862-2.858,3.654-5.791,5.325-8.719Zm-1519.595,0H2664.288V643.148l217.484-20.027L2772.964,847.33ZM3461.93,718.869l-95.377-140.391,180.483-16.621-.06-.363.521.244L3718.822,356.1l31.067,165.79a155.594,155.594,0,0,0,12.379,37.924,175.551,175.551,0,0,0,21.543,34.265,208.137,208.137,0,0,0,29.54,29.95,247,247,0,0,0,36.37,24.973,284.8,284.8,0,0,0,42.033,19.338c3.789,1.389,7.7,2.733,11.624,3.994Zm542.312-58.913a289.732,289.732,0,0,1-39.655-2.724,278.4,278.4,0,0,1-37.631-7.884,259.037,259.037,0,0,1-34.838-12.608,232.428,232.428,0,0,1-31.278-16.9,201.787,201.787,0,0,1-26.949-20.756,171.714,171.714,0,0,1-21.852-24.179,147.127,147.127,0,0,1-15.987-27.167,132.158,132.158,0,0,1-9.355-29.722,123.829,123.829,0,0,1,1.8-54.074,141.04,141.04,0,0,1,23.933-49.088,177.462,177.462,0,0,1,28.942-30.287,213.851,213.851,0,0,1,37.369-24.762,249.25,249.25,0,0,1,44.556-18,280.578,280.578,0,0,1,50.5-10,294.563,294.563,0,0,1,30.741-1.618,289.724,289.724,0,0,1,39.655,2.725,278.377,278.377,0,0,1,37.631,7.884A259.046,259.046,0,0,1,4116.66,353.4a232.413,232.413,0,0,1,31.277,16.9,201.75,201.75,0,0,1,26.949,20.757,171.745,171.745,0,0,1,21.853,24.179,147.166,147.166,0,0,1,15.987,27.167,132.181,132.181,0,0,1,9.354,29.722,123.824,123.824,0,0,1-1.8,54.074,141.036,141.036,0,0,1-23.934,49.089,177.482,177.482,0,0,1-28.941,30.287,213.839,213.839,0,0,1-37.37,24.761,249.213,249.213,0,0,1-44.555,18,280.551,280.551,0,0,1-50.5,10A294.439,294.439,0,0,1,4004.241,659.956Zm289.124-7.712h0l-34.339-183.258-.029-.15-.012-.066c-.032-.175-.064-.35-.1-.525a155.582,155.582,0,0,0-12.379-37.922,175.458,175.458,0,0,0-21.543-34.268,208.208,208.208,0,0,0-29.539-29.949,247.07,247.07,0,0,0-36.371-24.974,284.927,284.927,0,0,0-42.032-19.336c-3.813-1.4-7.725-2.741-11.627-3.995l331.75-34.967,65.1,347.394-208.878,22.016Zm245.518-25.878h0l-65.1-347.394,110.5-11.648V621.579l-45.4,4.786Zm-1874.6-11.175h0V373.152l316.964-72.68,19.878,76.7L2895.975,593.853,2782.859,604.27l-118.571,10.92Zm272.9-25.131h0L3039.407,379.43l-5.123-19.768,465.844-106.818.521.022.009-.144.234-.053-.2-.484,4.84-71.931,172.906-39.647,32.371,172.745L3525.4,535.891l-588.21,54.167ZM3768.03,419.314l-53.765-286.921L4128.851,37.33h455.437V239.3L3968.62,304.195a332.232,332.232,0,0,0-50.562,9.284,300.946,300.946,0,0,0-45.688,16.157,266.266,266.266,0,0,0-39.932,22.155,229.514,229.514,0,0,0-33.3,27.278,194.459,194.459,0,0,0-25.783,31.525c-1.863,2.859-3.655,5.792-5.325,8.718ZM2664.287,344.133h0V37.33h248.764l61.1,235.751-309.865,71.052Zm362.9-11.862-10.355-39.957,451.65-103.562-2.894,42.994-438.4,100.525Zm-17.456-67.347h0L2950.745,37.33h527.924l-8.206,121.95L3009.73,264.924Zm497.788-114.141h0l7.634-113.453H4002.3l-494.78,113.453Z" transform="translate(-2664.287 -37.33)" opacity="0.1"/>
</svg>
