<svg xmlns="http://www.w3.org/2000/svg" width="1920.001" height="1080" viewBox="0 0 1920.001 1080">
  <path id="road-bg" d="M3786.529,1117.331h-330.17l7.028-134.122,323.142-45.415V1117.33Zm-367.221,0H2812.339l110.65-304.006,223.487-27.441,181-22.224,100.078,196.413-8.241,157.258Zm1164.981,0H4329.924l-31.408-223.474,285.771-40.163V1117.33Zm-291.728,0H3823.529V932.593l216.626-30.445a258.822,258.822,0,0,0,50.564-12.38,255.628,255.628,0,0,0,85.621-51.082,258.436,258.436,0,0,0,59.081-78.4c1.862-3.811,3.653-7.722,5.324-11.625l51.814,368.672Zm-1519.6,0H2664.287V845.088l217.485-26.7L2772.965,1117.33ZM3461.93,946.049,3366.553,758.86l180.483-22.16-.059-.484.52.325,171.326-274.179,31.067,221.054a259.005,259.005,0,0,0,12.379,50.565,255.608,255.608,0,0,0,51.085,85.621,258.434,258.434,0,0,0,78.4,59.081c3.794,1.854,7.705,3.645,11.625,5.325L3461.93,946.049h0ZM4004.24,867.5a218.177,218.177,0,0,1-77.285-14.144A220.812,220.812,0,0,1,3812.039,754.1a218.506,218.506,0,0,1-15.987-36.223,221.1,221.1,0,0,1-11.082-84.07,218.7,218.7,0,0,1,21.863-82.421,220.981,220.981,0,0,1,84.716-92.393,218.629,218.629,0,0,1,82.247-29.031,221.7,221.7,0,0,1,30.742-2.157,218.163,218.163,0,0,1,77.285,14.144A220.827,220.827,0,0,1,4196.739,541.2a218.569,218.569,0,0,1,15.987,36.224,221.107,221.107,0,0,1,11.082,84.069,218.682,218.682,0,0,1-21.863,82.421,220.978,220.978,0,0,1-84.716,92.393,218.631,218.631,0,0,1-82.246,29.031A221.646,221.646,0,0,1,4004.24,867.5Zm289.126-10.281h0l-34.34-244.344-.139-.99a258.825,258.825,0,0,0-12.378-50.565,255.594,255.594,0,0,0-51.084-85.62,258.361,258.361,0,0,0-78.4-59.08c-3.786-1.851-7.7-3.644-11.624-5.327l331.75-46.623,65.1,463.192-208.878,29.356Zm245.519-34.506-65.1-463.194,110.5-15.529V816.329l-45.4,6.381Zm-1874.6-14.9h0V485.092l316.964-96.905,19.878,102.263L2895.974,779.362,2664.287,807.81Zm272.9-33.509h0l102.216-280.837-5.124-26.359,465.839-142.42.526.028.009-.191.234-.072-.2-.64,5.03-95.971,172.716-52.8,32.369,230.327L3525.4,702.078l-383.437,47.08L2937.192,774.3Zm830.84-227.66-53.765-382.56L4128.848,37.33h455.44V306.624L3968.621,393.15a259,259,0,0,0-50.563,12.378,255.6,255.6,0,0,0-85.62,51.084,258.385,258.385,0,0,0-59.081,78.4c-1.855,3.793-3.646,7.7-5.325,11.622ZM2664.287,446.4h0V37.33h248.765l61.1,314.335L2664.287,446.4Zm362.9-15.816h0l-10.356-53.277L3468.071,239.35l-3.006,57.362L3027.186,430.585Zm-17.455-89.8L2950.744,37.33h527.914l-8.526,162.7-460.4,140.758h0Zm498.055-152.27h0L3515.71,37.33H4002.3l-494.51,151.187Z" transform="translate(-2664.287 -37.33)" opacity="0.1"/>
</svg>
