<svg xmlns="http://www.w3.org/2000/svg" xmlns:xlink="http://www.w3.org/1999/xlink" width="86" height="86" viewBox="0 0 86 86">
  <defs>
    <linearGradient id="linear-gradient" x1="0.15" y1="0.869" x2="0.862" y2="0.088" gradientUnits="objectBoundingBox">
      <stop offset="0" stop-color="#b3568f"/>
      <stop offset="1" stop-color="#ee80c4"/>
    </linearGradient>
  </defs>
  <g id="why-us-authenticity" transform="translate(-54 -3934.959)">
    <circle id="Ellipse_146" data-name="Ellipse 146" cx="39" cy="39" r="39" transform="translate(58 3938.959)" fill="#fff"/>
    <path id="Exclusion_2" data-name="Exclusion 2" d="M43,86a42.8,42.8,0,0,1-24.042-7.344A43.126,43.126,0,0,1,3.379,59.738,42.943,42.943,0,0,1,7.344,18.958,43.126,43.126,0,0,1,26.263,3.379,42.943,42.943,0,0,1,67.042,7.344,43.126,43.126,0,0,1,82.621,26.262a42.944,42.944,0,0,1-3.965,40.779A43.126,43.126,0,0,1,59.738,82.621,42.731,42.731,0,0,1,43,86ZM43,5.4A37.6,37.6,0,1,0,80.6,43,37.642,37.642,0,0,0,43,5.4Z" transform="translate(54 3934.959)" fill="url(#linear-gradient)"/>
    <g id="diploma" transform="translate(71.474 3952.682)">
      <path id="Path_165" data-name="Path 165" d="M51.011,25.505a25.4,25.4,0,0,1-6.058,16.5q-.628.742-1.314,1.435-.283.286-.574.562-.629.6-1.3,1.152-.451.375-.921.728A25.534,25.534,0,1,1,51.011,25.505Z" fill="#1f4e7d"/>
      <path id="Path_166" data-name="Path 166" d="M52.333,22.521A25.508,25.508,0,0,1,6.115,34.178,25.332,25.332,0,0,1,1.67,22.521a25.507,25.507,0,0,1,50.663,0Z" transform="translate(-1.496)" fill="#456d9e"/>
      <path id="Path_167" data-name="Path 167" d="M62.365,34.655V62.88A25.426,25.426,0,0,1,57.8,70.764H18.9A25.441,25.441,0,0,1,14.34,62.88V34.655A2.554,2.554,0,0,1,16.895,32.1H59.809A2.555,2.555,0,0,1,62.365,34.655Z" transform="translate(-12.847 -28.758)" fill="#c5cae3"/>
      <path id="Path_168" data-name="Path 168" d="M44.337,91.632V64.978A2.882,2.882,0,0,1,47.219,62.1H83.234a2.882,2.882,0,0,1,2.882,2.882V91.632a2.882,2.882,0,0,1-2.882,2.882H47.219A2.882,2.882,0,0,1,44.337,91.632Z" transform="translate(-39.721 -55.632)" fill="#f2f4ff"/>
      <path id="Path_169" data-name="Path 169" d="M185.657,97.464H172.409a1.041,1.041,0,0,1-1.041-1.041h0a1.041,1.041,0,0,1,1.041-1.041h13.248a1.041,1.041,0,0,1,1.041,1.041h0A1.041,1.041,0,0,1,185.657,97.464Z" transform="translate(-153.528 -85.452)" fill="#683c8c"/>
      <path id="Path_170" data-name="Path 170" d="M89.811,311.649H76.563a1.041,1.041,0,0,1-1.041-1.041h0a1.041,1.041,0,0,1,1.041-1.041H89.811a1.041,1.041,0,0,1,1.041,1.041h0A1.041,1.041,0,0,1,89.811,311.649Z" transform="translate(-67.66 -277.34)" fill="#683c8c"/>
      <path id="Path_171" data-name="Path 171" d="M109.767,151.662h-33.2a1.041,1.041,0,0,1-1.041-1.041h0a1.041,1.041,0,0,1,1.041-1.041h33.2a1.041,1.041,0,0,1,1.041,1.041h0A1.041,1.041,0,0,1,109.767,151.662Z" transform="translate(-67.66 -134.008)" fill="#683c8c"/>
      <path id="Path_172" data-name="Path 172" d="M109.767,204.556h-33.2a1.041,1.041,0,0,1-1.041-1.041h0a1.041,1.041,0,0,1,1.041-1.041h33.2a1.041,1.041,0,0,1,1.041,1.041h0A1.041,1.041,0,0,1,109.767,204.556Z" transform="translate(-67.66 -181.396)" fill="#683c8c"/>
      <path id="Path_173" data-name="Path 173" d="M342.295,290.092V301.93q-.629.6-1.3,1.152-.451.375-.921.728l-1.086-.761a1.462,1.462,0,0,0-1.682,0l-2.456,1.722a.54.54,0,0,1-.851-.442V287.9h0A16.446,16.446,0,0,1,342.295,290.092Z" transform="translate(-299.23 -257.928)" fill="#ffe26b"/>
      <path id="Path_174" data-name="Path 174" d="M342.29,290.088v8.473a2.733,2.733,0,0,1-1.151,1.375c-.864.358-2-.41-3-.41s-2.134.767-3,.41a2.726,2.726,0,0,1-1.15-1.373V287.9h0A16.457,16.457,0,0,1,342.29,290.088Z" transform="translate(-299.224 -257.924)" fill="#feb247"/>
      <path id="Path_175" data-name="Path 175" d="M317.568,260.075c0-.994.768-2.134.41-3-.371-.9-1.734-1.154-2.409-1.829s-.934-2.038-1.83-2.409c-.864-.358-2,.41-3,.41s-2.134-.768-3-.41c-.9.371-1.154,1.734-1.83,2.409s-2.038.934-2.409,1.829c-.358.864.41,2,.41,3s-.768,2.134-.41,3c.371.9,1.734,1.155,2.409,1.83s.934,2.038,1.83,2.409c.864.358,2-.41,3-.41s2.134.768,3,.41c.9-.371,1.154-1.734,1.83-2.409s2.038-.934,2.409-1.83C318.337,262.208,317.568,261.069,317.568,260.075Z" transform="translate(-271.824 -226.432)" fill="#fd5b67"/>
      <circle id="Ellipse_31" data-name="Ellipse 31" cx="4.827" cy="4.827" r="4.827" transform="translate(34.091 28.816)" fill="#ef297b"/>
    </g>
  </g>
</svg>
