<svg xmlns="http://www.w3.org/2000/svg" xmlns:xlink="http://www.w3.org/1999/xlink" width="86" height="86" viewBox="0 0 86 86">
  <defs>
    <linearGradient id="linear-gradient" x1="0.15" y1="0.869" x2="0.862" y2="0.088" gradientUnits="objectBoundingBox">
      <stop offset="0" stop-color="#b3568f"/>
      <stop offset="1" stop-color="#ee80c4"/>
    </linearGradient>
  </defs>
  <g id="why-us-quality" transform="translate(-54 -3934.747)">
    <circle id="Ellipse_146" data-name="Ellipse 146" cx="39" cy="39" r="39" transform="translate(58 3938.747)" fill="#fff"/>
    <path id="Exclusion_2" data-name="Exclusion 2" d="M43,86a42.8,42.8,0,0,1-24.042-7.344A43.126,43.126,0,0,1,3.379,59.738,42.943,42.943,0,0,1,7.344,18.958,43.126,43.126,0,0,1,26.263,3.379,42.943,42.943,0,0,1,67.042,7.344,43.126,43.126,0,0,1,82.621,26.262a42.944,42.944,0,0,1-3.965,40.779A43.126,43.126,0,0,1,59.738,82.621,42.731,42.731,0,0,1,43,86ZM43,5.4A37.6,37.6,0,1,0,80.6,43,37.642,37.642,0,0,0,43,5.4Z" transform="translate(54 3934.747)" fill="url(#linear-gradient)"/>
    <g id="medal" transform="translate(73.281 3950.415)">
      <path id="Path_193" data-name="Path 193" d="M51.675,221.248,39.592,244.013,50.565,243l5.311,9.656,12.083-22.765Z" transform="translate(-39.592 -197.327)" fill="#e95454"/>
      <g id="Group_16" data-name="Group 16" transform="translate(9.982 23.921)">
        <path id="Path_194" data-name="Path 194" d="M135.405,276.511a1.543,1.543,0,0,0-.725-1.976l-.7-.37a1.487,1.487,0,0,1,1.431-2.607l1.965,1.043a1.24,1.24,0,0,0,1.681-.522l.048-.093a1.173,1.173,0,0,0-.452-1.654l-5.878-3.119a1.548,1.548,0,0,1-.733-1.977,1.491,1.491,0,0,1,2.048-.685l5.453,2.894a1.254,1.254,0,0,0,1.69-.519l.031-.08.009-.017a1.306,1.306,0,0,0-.538-1.777l-3.058-1.623a1.548,1.548,0,0,1-.728-1.986,1.5,1.5,0,0,1,2.048-.685l3.378,1.794a1.261,1.261,0,0,0,1.713-.581.08.08,0,0,0,.009-.017.082.082,0,0,0,.009-.017,1.26,1.26,0,0,0-.479-1.744l-3.645-1.934a1.544,1.544,0,0,1-.725-1.972,1.491,1.491,0,0,1,2.048-.685l8.992,4.773L138.218,283.14l-3.33-6.053A1.415,1.415,0,0,0,135.405,276.511Z" transform="translate(-131.92 -251.732)" fill="#ed6362"/>
        <path id="Path_195" data-name="Path 195" d="M226.083,221.248l12.083,22.765L227.194,243l-5.311,9.656L209.8,229.891Z" transform="translate(-201.38 -221.248)" fill="#ed6362"/>
      </g>
      <path id="Path_196" data-name="Path 196" d="M224.714,276.525a1.543,1.543,0,0,1,.725-1.976l.7-.37a1.487,1.487,0,0,0-1.431-2.607l-1.965,1.043a1.24,1.24,0,0,1-1.681-.522l-.048-.093a1.173,1.173,0,0,1,.451-1.654l5.88-3.121a1.548,1.548,0,0,0,.733-1.977,1.491,1.491,0,0,0-2.048-.685l-5.453,2.894a1.254,1.254,0,0,1-1.69-.519l-.031-.08-.009-.017a1.306,1.306,0,0,1,.538-1.777l3.058-1.623a1.548,1.548,0,0,0,.728-1.986,1.5,1.5,0,0,0-2.048-.685l-3.382,1.8a1.261,1.261,0,0,1-1.713-.581,27.437,27.437,0,0,1-.017-.035,1.26,1.26,0,0,1,.479-1.744l3.645-1.934a1.544,1.544,0,0,0,.725-1.972,1.491,1.491,0,0,0-2.048-.685l-8.992,4.773L221.9,283.156l3.33-6.053A1.44,1.44,0,0,1,224.714,276.525Z" transform="translate(-191.412 -227.826)" fill="#e95454"/>
      <circle id="Ellipse_32" data-name="Ellipse 32" cx="20.19" cy="20.19" r="20.19" transform="translate(3.195 0)" fill="#ffcc5b"/>
      <path id="Path_197" data-name="Path 197" d="M92.557,30.374H79.763a1.818,1.818,0,0,1-1.811-1.811l.014-.125V28.41A1.891,1.891,0,0,1,79.86,26.5h8.867a2.243,2.243,0,0,0,2.282-2.046,2.168,2.168,0,0,0-2.157-2.268H79.458a1.828,1.828,0,0,1-1.8-1.908v-.055a1.828,1.828,0,0,1,1.8-1.908h9.829a2.238,2.238,0,0,0,2.268-2.033A2.16,2.16,0,0,0,89.4,14.016H82.2a20.187,20.187,0,0,0,0,37.343h9.139a2.238,2.238,0,0,0,2.268-2.033,2.159,2.159,0,0,0-2.157-2.266l-10.4,0a2.151,2.151,0,0,1-2.149-2.268,2.234,2.234,0,0,1,2.27-2.036h4.031a2.154,2.154,0,0,0-.062-4.307h-6.11a1.8,1.8,0,0,1-1.8-1.811v-.152a1.7,1.7,0,0,1,1.7-1.811H92.433a2.242,2.242,0,0,0,2.282-2.033A2.161,2.161,0,0,0,92.557,30.374Z" transform="translate(-66.434 -12.501)" fill="#fdbc4b"/>
      <path id="Path_198" data-name="Path 198" d="M137,82.262a14.411,14.411,0,1,1,14.412-14.41A14.429,14.429,0,0,1,137,82.262Z" transform="translate(-113.611 -47.662)" fill="#ffdb70"/>
      <path id="Path_199" data-name="Path 199" d="M244.792,68.194a14.418,14.418,0,0,0-13.585-14.37h-1.342a1.708,1.708,0,0,0-1.73,1.55,1.648,1.648,0,0,0,1.645,1.73l7.93,0a1.64,1.64,0,0,1,1.638,1.73,1.7,1.7,0,0,1-1.732,1.553h-3.074a1.643,1.643,0,0,0,.047,3.285h4.66a1.37,1.37,0,0,1,1.37,1.38v.114a1.3,1.3,0,0,1-1.3,1.38H229.031a1.711,1.711,0,0,0-1.74,1.55,1.648,1.648,0,0,0,1.645,1.73h9.757a1.385,1.385,0,0,1,1.38,1.38l-.01.1v.021a1.443,1.443,0,0,1-1.444,1.455h-6.764a1.712,1.712,0,0,0-1.74,1.56,1.654,1.654,0,0,0,1.645,1.73h7.163a1.394,1.394,0,0,1,1.37,1.455v.042a1.394,1.394,0,0,1-1.37,1.455h-7.5a1.708,1.708,0,0,0-1.73,1.55,1.647,1.647,0,0,0,1.645,1.73h1.977A14.435,14.435,0,0,0,244.792,68.194Z" transform="translate(-206.995 -48.005)" fill="#fff" opacity="0.2"/>
      <path id="Path_200" data-name="Path 200" d="M175.255,96.921h-7.009l-2.168-6.667a.931.931,0,0,0-1.77,0l-2.166,6.667h-7.009a.93.93,0,0,0-.547,1.683l5.671,4.121-2.166,6.667a.931.931,0,0,0,1.432,1.04l5.671-4.121,5.671,4.121a.931.931,0,0,0,1.432-1.04l-2.166-6.667L175.8,98.6A.931.931,0,0,0,175.255,96.921Z" transform="translate(-141.809 -79.923)" fill="#ec9922"/>
    </g>
  </g>
</svg>
