<svg xmlns="http://www.w3.org/2000/svg" xmlns:xlink="http://www.w3.org/1999/xlink" width="86" height="86" viewBox="0 0 86 86">
  <defs>
    <linearGradient id="linear-gradient" x1="0.15" y1="0.869" x2="0.862" y2="0.088" gradientUnits="objectBoundingBox">
      <stop offset="0" stop-color="#b3568f"/>
      <stop offset="1" stop-color="#ee80c4"/>
    </linearGradient>
  </defs>
  <g id="why-us-personalization" transform="translate(-54 -3935.133)">
    <circle id="Ellipse_146" data-name="Ellipse 146" cx="39" cy="39" r="39" transform="translate(58 3939.133)" fill="#fff"/>
    <path id="Exclusion_2" data-name="Exclusion 2" d="M43,86a42.8,42.8,0,0,1-24.042-7.344A43.126,43.126,0,0,1,3.379,59.738,42.943,42.943,0,0,1,7.344,18.958,43.126,43.126,0,0,1,26.263,3.379,42.943,42.943,0,0,1,67.042,7.344,43.126,43.126,0,0,1,82.621,26.262a42.944,42.944,0,0,1-3.965,40.779A43.126,43.126,0,0,1,59.738,82.621,42.731,42.731,0,0,1,43,86ZM43,5.4A37.6,37.6,0,1,0,80.6,43,37.642,37.642,0,0,0,43,5.4Z" transform="translate(54 3935.133)" fill="url(#linear-gradient)"/>
    <g id="target" transform="translate(72.068 3953.541)">
      <path id="Path_176" data-name="Path 176" d="M41.022,26.165A20.5,20.5,0,0,0,38.3,19.1a.725.725,0,0,0-1.13-.132l-2.052,2.051-3.612-.78a.726.726,0,0,0-.666.2l-9.119,9.119a.282.282,0,0,1-.4,0l-.133-.133a.282.282,0,0,1,0-.4L30.307,19.9a.726.726,0,0,0,.2-.666l-.78-3.612L31.8,13.548a.726.726,0,0,0-.127-1.127,20.68,20.68,0,1,0-6.209,37.65.725.725,0,0,0,.508-.441A11.874,11.874,0,0,1,33.913,42.7h0c.107-.028.215-.055.325-.081L34.3,42.6c.085-.02.171-.038.258-.056l.087-.018.243-.045.081-.014c.1-.018.21-.034.316-.049h.006c.107-.015.214-.028.321-.04l.087-.009.236-.022.108-.008.229-.014.1-.005.119,0h.024a.726.726,0,0,0,.173-.027.727.727,0,0,0,.172.027h.038a.726.726,0,0,0,.588-.3l.017-.025a.725.725,0,0,0-.63-1.127l-.031,0a.719.719,0,0,0-.157.026.723.723,0,0,0-.168-.026A5.112,5.112,0,0,1,31.6,35.8v-4.99a5.079,5.079,0,0,1,5.073-5.073,5,5,0,0,1,3.175,1.126.726.726,0,0,0,1.169-.7Z" transform="translate(0 -8.42)" fill="#f2464f"/>
      <path id="Path_177" data-name="Path 177" d="M81.329,70.667a15.735,15.735,0,0,0-2.07-4.138.726.726,0,0,0-.441-.293l-1.679-.362a.726.726,0,0,0-.666.2L67.354,75.19a.282.282,0,0,1-.4,0l-.133-.133a.282.282,0,0,1,0-.4l9.119-9.119a.726.726,0,0,0,.2-.666l-.371-1.717a.725.725,0,0,0-.288-.437A15.79,15.79,0,1,0,78.472,85.66a.725.725,0,0,0-.008-.936,5.06,5.06,0,0,1-1.225-3.292v-4.99a5.116,5.116,0,0,1,3.611-4.856.726.726,0,0,0,.479-.92Z" transform="translate(-45.635 -54.055)" fill="#efe7e4"/>
      <path id="Path_178" data-name="Path 178" d="M119.9,113.756a.725.725,0,0,0-1.082-.062l-6.481,6.481h0a.282.282,0,0,1-.4,0l-.133-.133a.282.282,0,0,1,0-.4l6.494-6.494a.726.726,0,0,0-.053-1.074,10.967,10.967,0,1,0,4.023,8.489A10.852,10.852,0,0,0,119.9,113.756Z" transform="translate(-90.619 -99.041)" fill="#f2464f"/>
      <path id="Path_179" data-name="Path 179" d="M163.749,164.919a.726.726,0,0,0-1.13-.131l-2.835,2.835h0a.282.282,0,0,1-.4,0l-.133-.133a.282.282,0,0,1,0-.4l2.861-2.86a.726.726,0,0,0-.111-1.117,5.879,5.879,0,1,0,1.747,1.8Z" transform="translate(-138.065 -146.489)" fill="#efe7e4"/>
      <g id="Group_14" data-name="Group 14" transform="translate(28.206 0)">
        <path id="Path_180" data-name="Path 180" d="M299.815,5.159l-.863-4A.726.726,0,0,0,297.729.8l-6.247,6.247a.726.726,0,0,0-.2.666l.863,4a.726.726,0,0,0,1.222.36l6.247-6.247A.725.725,0,0,0,299.815,5.159Z" transform="translate(-291.27 -0.589)" fill="#f7cb4f"/>
        <path id="Path_181" data-name="Path 181" d="M327.935,59.346a.725.725,0,0,0-.543-.5l-4-.863a.726.726,0,0,0-.666.2l-6.247,6.247a.726.726,0,0,0,.36,1.222l4,.863a.725.725,0,0,0,.666-.2l6.247-6.247A.725.725,0,0,0,327.935,59.346Z" transform="translate(-313.847 -52.406)" fill="#f7cb4f"/>
      </g>
      <path id="Path_182" data-name="Path 182" d="M341.493,71.808l2.128.459a.725.725,0,0,0,.666-.2l6.247-6.247a.726.726,0,0,0-.36-1.222l-1.214-.262Z" transform="translate(-308.424 -58.167)" fill="#f4b008"/>
      <path id="Path_183" data-name="Path 183" d="M221.425,43.691l-1.558-1.558a.726.726,0,0,0-1.026,0L203.479,57.5a1.735,1.735,0,0,0,0,2.451l.133.133a1.733,1.733,0,0,0,2.451,0l15.362-15.362a.726.726,0,0,0,0-1.026Z" transform="translate(-183.318 -37.918)" fill="#546f7a"/>
      <path id="Path_184" data-name="Path 184" d="M258.862,335.821h-.02c-6.977.1-12.871,5.808-12.871,12.474v3.8a.727.727,0,0,0,.727.726h24.308a.727.727,0,0,0,.727-.726v-3.8C271.733,341.629,265.839,335.917,258.862,335.821Z" transform="translate(-222.153 -303.358)" fill="#68b9d8"/>
      <path id="Path_185" data-name="Path 185" d="M366.492,335.821h-.02a12.974,12.974,0,0,0-1.331.087c6.379.747,11.54,6.149,11.54,12.387v3.8a.727.727,0,0,1-.727.726h2.681a.727.727,0,0,0,.727-.726v-3.8C379.363,341.629,373.469,335.917,366.492,335.821Z" transform="translate(-329.783 -303.358)" fill="#3695b2"/>
      <path id="Path_186" data-name="Path 186" d="M347.2,377.893l-1.651-7.163a.742.742,0,0,0-.723-.575h-2.847a.742.742,0,0,0-.723.575l-1.651,7.163a.741.741,0,0,0,.222.713l3.074,2.813a.742.742,0,0,0,1,0l3.074-2.813A.742.742,0,0,0,347.2,377.893Z" transform="translate(-306.7 -334.367)" fill="#f2464f"/>
      <g id="Group_15" data-name="Group 15" transform="translate(32.683 32.463)">
        <path id="Path_187" data-name="Path 187" d="M368.117,385.735l-1.589-6.9h-2.75l1.618,7.02-2.647,2.422,1.072.981a.742.742,0,0,0,1,0l3.074-2.813A.742.742,0,0,0,368.117,385.735Z" transform="translate(-360.304 -374.672)" fill="#d3333c"/>
        <path id="Path_188" data-name="Path 188" d="M343.739,339.988l1.787-3.48a13.038,13.038,0,0,0-3.989-.685h-.02a13.042,13.042,0,0,0-4.006.691l1.8,3.474Z" transform="translate(-337.511 -335.822)" fill="#d3333c"/>
      </g>
      <path id="Path_189" data-name="Path 189" d="M375.453,336.969l-2.074,4.054h2.755l1.787-3.48A13.138,13.138,0,0,0,375.453,336.969Z" transform="translate(-337.222 -304.395)" fill="#af273b"/>
      <path id="Path_190" data-name="Path 190" d="M318.034,164.406a6.541,6.541,0,0,0-6.535,6.533v5a6.535,6.535,0,0,0,13.07,0v-5A6.541,6.541,0,0,0,318.034,164.406Z" transform="translate(-281.334 -148.542)" fill="#ffc89f"/>
      <path id="Path_191" data-name="Path 191" d="M366.445,164.406a6.531,6.531,0,0,0-1.345.14,6.544,6.544,0,0,1,5.191,6.393v5a6.544,6.544,0,0,1-5.191,6.393,6.536,6.536,0,0,0,7.88-6.393v-5A6.541,6.541,0,0,0,366.445,164.406Z" transform="translate(-329.745 -148.542)" fill="#f7b081"/>
      <path id="Path_192" data-name="Path 192" d="M324.569,173.448V170.94a6.535,6.535,0,0,0-13.07,0v2.507l.72,0c5.083,0,6.935-3.431,6.935-3.431s1.294,3.414,4.7,3.43Z" transform="translate(-281.334 -148.543)"/>
    </g>
  </g>
</svg>
