<svg xmlns="http://www.w3.org/2000/svg" xmlns:xlink="http://www.w3.org/1999/xlink" width="459.732" height="459.733" viewBox="0 0 459.732 459.733">
  <defs>
    <filter id="Ellipse_150" x="412.855" y="0" width="46.876" height="46.876" filterUnits="userSpaceOnUse">
      <feOffset dy="3" input="SourceAlpha"/>
      <feGaussianBlur stdDeviation="3" result="blur"/>
      <feFlood flood-opacity="0.161"/>
      <feComposite operator="in" in2="blur"/>
      <feComposite in="SourceGraphic"/>
    </filter>
    <filter id="Ellipse_151" x="0" y="0" width="46.876" height="46.876" filterUnits="userSpaceOnUse">
      <feOffset dy="3" input="SourceAlpha"/>
      <feGaussianBlur stdDeviation="3" result="blur-2"/>
      <feFlood flood-opacity="0.161"/>
      <feComposite operator="in" in2="blur-2"/>
      <feComposite in="SourceGraphic"/>
    </filter>
    <filter id="Ellipse_152" x="0" y="412.856" width="46.876" height="46.876" filterUnits="userSpaceOnUse">
      <feOffset dy="3" input="SourceAlpha"/>
      <feGaussianBlur stdDeviation="3" result="blur-3"/>
      <feFlood flood-opacity="0.161"/>
      <feComposite operator="in" in2="blur-3"/>
      <feComposite in="SourceGraphic"/>
    </filter>
    <filter id="Ellipse_153" x="412.855" y="412.856" width="46.876" height="46.876" filterUnits="userSpaceOnUse">
      <feOffset dy="3" input="SourceAlpha"/>
      <feGaussianBlur stdDeviation="3" result="blur-4"/>
      <feFlood flood-opacity="0.161"/>
      <feComposite operator="in" in2="blur-4"/>
      <feComposite in="SourceGraphic"/>
    </filter>
  </defs>
  <g id="why-us-image" transform="translate(4139.459 -4526.497) rotate(45)">
    <path id="Path_1036" data-name="Path 1036" d="M0,0V543.028" transform="translate(596.636 5854.122)" fill="none" stroke="#fff" stroke-linecap="round" stroke-width="2" stroke-dasharray="8 11"/>
    <line id="Line_33" data-name="Line 33" y2="543.028" transform="translate(868.15 6125.636) rotate(90)" fill="none" stroke="#fff" stroke-linecap="round" stroke-width="2" stroke-dasharray="8 11"/>
    <g transform="matrix(0.71, -0.71, 0.71, 0.71, 273.68, 6127.76)" filter="url(#Ellipse_150)">
      <circle id="Ellipse_150-2" data-name="Ellipse 150" cx="10.209" cy="10.209" r="10.209" transform="translate(436.29 6) rotate(45)" fill="#fff"/>
    </g>
    <g transform="matrix(0.71, -0.71, 0.71, 0.71, 273.68, 6127.76)" filter="url(#Ellipse_151)">
      <circle id="Ellipse_151-2" data-name="Ellipse 151" cx="10.209" cy="10.209" r="10.209" transform="translate(23.44 6) rotate(45)" fill="#fff"/>
    </g>
    <g transform="matrix(0.71, -0.71, 0.71, 0.71, 273.68, 6127.76)" filter="url(#Ellipse_152)">
      <circle id="Ellipse_152-2" data-name="Ellipse 152" cx="10.209" cy="10.209" r="10.209" transform="translate(23.44 418.86) rotate(45)" fill="#fff"/>
    </g>
    <g transform="matrix(0.71, -0.71, 0.71, 0.71, 273.68, 6127.76)" filter="url(#Ellipse_153)">
      <circle id="Ellipse_153-2" data-name="Ellipse 153" cx="10.209" cy="10.209" r="10.209" transform="translate(436.29 418.86) rotate(45)" fill="#fff"/>
    </g>
  </g>
</svg>
