<svg xmlns="http://www.w3.org/2000/svg" xmlns:xlink="http://www.w3.org/1999/xlink" width="459.732" height="459.733" viewBox="0 0 459.732 459.733">
  <defs>
    <filter id="Ellipse_150" x="412.855" y="0" width="46.876" height="46.876" filterUnits="userSpaceOnUse">
      <feOffset dy="3" input="SourceAlpha"/>
      <feGaussianBlur stdDeviation="3" result="blur"/>
      <feFlood flood-opacity="0.161"/>
      <feComposite operator="in" in2="blur"/>
      <feComposite in="SourceGraphic"/>
    </filter>
    <filter id="Ellipse_151" x="0" y="0" width="46.876" height="46.876" filterUnits="userSpaceOnUse">
      <feOffset dy="3" input="SourceAlpha"/>
      <feGaussianBlur stdDeviation="3" result="blur-2"/>
      <feFlood flood-opacity="0.161"/>
      <feComposite operator="in" in2="blur-2"/>
      <feComposite in="SourceGraphic"/>
    </filter>
    <filter id="Ellipse_152" x="0" y="412.856" width="46.876" height="46.876" filterUnits="userSpaceOnUse">
      <feOffset dy="3" input="SourceAlpha"/>
      <feGaussianBlur stdDeviation="3" result="blur-3"/>
      <feFlood flood-opacity="0.161"/>
      <feComposite operator="in" in2="blur-3"/>
      <feComposite in="SourceGraphic"/>
    </filter>
    <filter id="Ellipse_153" x="412.855" y="412.856" width="46.876" height="46.876" filterUnits="userSpaceOnUse">
      <feOffset dy="3" input="SourceAlpha"/>
      <feGaussianBlur stdDeviation="3" result="blur-4"/>
      <feFlood flood-opacity="0.161"/>
      <feComposite operator="in" in2="blur-4"/>
      <feComposite in="SourceGraphic"/>
    </filter>
    <filter id="Path_1037" x="83.866" y="84.663" width="292" height="292" filterUnits="userSpaceOnUse">
      <feOffset dy="3" input="SourceAlpha"/>
      <feGaussianBlur stdDeviation="3" result="blur-5"/>
      <feFlood flood-opacity="0.161"/>
      <feComposite operator="in" in2="blur-5"/>
      <feComposite in="SourceGraphic"/>
    </filter>
    <linearGradient id="linear-gradient" x1="0.81" y1="-0.015" x2="0.151" y2="0.936" gradientUnits="objectBoundingBox">
      <stop offset="0" stop-color="#ffb8e4"/>
      <stop offset="1" stop-color="#b3568f"/>
    </linearGradient>
    <linearGradient id="linear-gradient-2" x1="0.844" y1="0.128" x2="0.006" y2="0.868" gradientUnits="objectBoundingBox">
      <stop offset="0" stop-color="#ff88d1"/>
      <stop offset="1" stop-color="#b3568f"/>
    </linearGradient>
    <linearGradient id="linear-gradient-3" x1="1.11" y1="1.11" x2="0.02" gradientUnits="objectBoundingBox">
      <stop offset="0" stop-color="#fba8db"/>
      <stop offset="1" stop-color="#b3568f"/>
    </linearGradient>
  </defs>
  <g id="why-us-image" transform="translate(-730.134 -1368.222)">
    <g id="Group_267" data-name="Group 267" transform="translate(4869.593 -3158.275) rotate(45)">
      <path id="Path_1036" data-name="Path 1036" d="M0,0V543.028" transform="translate(596.636 5854.122)" fill="none" stroke="#fff" stroke-linecap="round" stroke-width="2" stroke-dasharray="8 11"/>
      <line id="Line_33" data-name="Line 33" y2="543.028" transform="translate(868.15 6125.636) rotate(90)" fill="none" stroke="#fff" stroke-linecap="round" stroke-width="2" stroke-dasharray="8 11"/>
      <g transform="matrix(0.71, -0.71, 0.71, 0.71, 273.68, 6127.76)" filter="url(#Ellipse_150)">
        <circle id="Ellipse_150-2" data-name="Ellipse 150" cx="10.209" cy="10.209" r="10.209" transform="translate(436.29 6) rotate(45)" fill="#fff"/>
      </g>
      <g transform="matrix(0.71, -0.71, 0.71, 0.71, 273.68, 6127.76)" filter="url(#Ellipse_151)">
        <circle id="Ellipse_151-2" data-name="Ellipse 151" cx="10.209" cy="10.209" r="10.209" transform="translate(23.44 6) rotate(45)" fill="#fff"/>
      </g>
      <g transform="matrix(0.71, -0.71, 0.71, 0.71, 273.68, 6127.76)" filter="url(#Ellipse_152)">
        <circle id="Ellipse_152-2" data-name="Ellipse 152" cx="10.209" cy="10.209" r="10.209" transform="translate(23.44 418.86) rotate(45)" fill="#fff"/>
      </g>
      <g transform="matrix(0.71, -0.71, 0.71, 0.71, 273.68, 6127.76)" filter="url(#Ellipse_153)">
        <circle id="Ellipse_153-2" data-name="Ellipse 153" cx="10.209" cy="10.209" r="10.209" transform="translate(436.29 418.86) rotate(45)" fill="#fff"/>
      </g>
    </g>
    <g id="Group_268" data-name="Group 268">
      <g id="Group_266" data-name="Group 266" transform="translate(0 -4472.115)">
        <g transform="matrix(1, 0, 0, 1, 730.13, 5840.34)" filter="url(#Path_1037)">
          <g id="Path_1037-2" data-name="Path 1037" transform="translate(92.87 90.66)" fill="#fff">
            <path d="M 137 273 C 127.7719268798828 273 118.5499267578125 272.0703430175781 109.590217590332 270.2369689941406 C 100.8586807250977 268.4502258300781 92.27007293701172 265.7841796875 84.06296539306641 262.3128662109375 C 76.00464630126953 258.9044494628906 68.23228454589844 254.6857452392578 60.96182250976562 249.77392578125 C 53.7601432800293 244.9085693359375 46.98799896240234 239.3210296630859 40.83346557617188 233.1665344238281 C 34.67896270751953 227.0119934082031 29.09142875671387 220.2398529052734 24.22607231140137 213.0381774902344 C 19.31425094604492 205.7677154541016 15.09553527832031 197.995361328125 11.68714332580566 189.9370422363281 C 8.215821266174316 181.7299346923828 5.549785614013672 173.1413269042969 3.763035774230957 164.4097900390625 C 1.929642915725708 155.4500732421875 1 146.2280731201172 1 137 C 1 127.7719268798828 1.929642915725708 118.5499267578125 3.763035774230957 109.590217590332 C 5.549785614013672 100.8586807250977 8.215821266174316 92.27007293701172 11.68714332580566 84.06296539306641 C 15.09553527832031 76.00464630126953 19.31425094604492 68.23228454589844 24.22607231140137 60.96182250976562 C 29.09142875671387 53.7601432800293 34.67896270751953 46.98799896240234 40.83346557617188 40.83346557617188 C 46.98799896240234 34.67896270751953 53.7601432800293 29.09142875671387 60.96182250976562 24.22607231140137 C 68.23228454589844 19.31425094604492 76.00464630126953 15.09553527832031 84.06296539306641 11.68714332580566 C 92.27007293701172 8.215821266174316 100.8586807250977 5.549785614013672 109.590217590332 3.763035774230957 C 118.5499267578125 1.929642915725708 127.7719268798828 1 137 1 C 146.2280731201172 1 155.4500732421875 1.929642915725708 164.4097900390625 3.763035774230957 C 173.1413269042969 5.549785614013672 181.7299346923828 8.215821266174316 189.9370422363281 11.68714332580566 C 197.995361328125 15.09553527832031 205.7677154541016 19.31425094604492 213.0381774902344 24.22607231140137 C 220.2398529052734 29.09142875671387 227.0119934082031 34.67896270751953 233.1665344238281 40.83346557617188 C 239.3210296630859 46.98799896240234 244.9085693359375 53.7601432800293 249.77392578125 60.96182250976562 C 254.6857452392578 68.23228454589844 258.9044494628906 76.00464630126953 262.3128662109375 84.06296539306641 C 265.7841796875 92.27007293701172 268.4502258300781 100.8586807250977 270.2369689941406 109.590217590332 C 272.0703430175781 118.5499267578125 273 127.7719268798828 273 137 C 273 146.2280731201172 272.0703430175781 155.4500732421875 270.2369689941406 164.4097900390625 C 268.4502258300781 173.1413269042969 265.7841796875 181.7299346923828 262.3128662109375 189.9370422363281 C 258.9044494628906 197.995361328125 254.6857452392578 205.7677154541016 249.77392578125 213.0381774902344 C 244.9085693359375 220.2398529052734 239.3210296630859 227.0119934082031 233.1665344238281 233.1665344238281 C 227.0119934082031 239.3210296630859 220.2398529052734 244.9085693359375 213.0381774902344 249.77392578125 C 205.7677154541016 254.6857452392578 197.995361328125 258.9044494628906 189.9370422363281 262.3128662109375 C 181.7299346923828 265.7841796875 173.1413269042969 268.4502258300781 164.4097900390625 270.2369689941406 C 155.4500732421875 272.0703430175781 146.2280731201172 273 137 273 Z" stroke="none"/>
            <path d="M 137 2 C 127.839111328125 2 118.6845703125 2.92279052734375 109.7906799316406 4.74273681640625 C 101.1238250732422 6.5162353515625 92.59886169433594 9.16253662109375 84.45252990722656 12.608154296875 C 76.45364379882812 15.99139404296875 68.73857116699219 20.17900085449219 61.5216064453125 25.05471801757812 C 54.37271118164062 29.8843994140625 47.65010070800781 35.43107604980469 41.54057312011719 41.54057312011719 C 35.43107604980469 47.65010070800781 29.8843994140625 54.37271118164062 25.05471801757812 61.5216064453125 C 20.17900085449219 68.73857116699219 15.99139404296875 76.45364379882812 12.608154296875 84.45252990722656 C 9.16253662109375 92.59886169433594 6.5162353515625 101.1238250732422 4.74273681640625 109.7906799316406 C 2.92279052734375 118.6845703125 2 127.839111328125 2 137 C 2 146.160888671875 2.92279052734375 155.3154296875 4.74273681640625 164.2093200683594 C 6.5162353515625 172.8761749267578 9.16253662109375 181.4011535644531 12.608154296875 189.5474548339844 C 15.99139404296875 197.5463562011719 20.17900085449219 205.2614288330078 25.05471801757812 212.4783935546875 C 29.8843994140625 219.6272888183594 35.43107604980469 226.3498840332031 41.54057312011719 232.4594268798828 C 47.65010070800781 238.5689239501953 54.37271118164062 244.1156005859375 61.5216064453125 248.9452819824219 C 68.73857116699219 253.8209991455078 76.45364379882812 258.0086059570312 84.45252990722656 261.391845703125 C 92.59886169433594 264.8374633789062 101.1238250732422 267.4837646484375 109.7906799316406 269.2572631835938 C 118.6845703125 271.0772094726562 127.839111328125 272 137 272 C 146.160888671875 272 155.3154296875 271.0772094726562 164.2093200683594 269.2572631835938 C 172.8761749267578 267.4837646484375 181.4011535644531 264.8374633789062 189.5474548339844 261.391845703125 C 197.5463562011719 258.0086059570312 205.2614288330078 253.8209991455078 212.4783935546875 248.9452819824219 C 219.6272888183594 244.1156005859375 226.3498840332031 238.5689239501953 232.4594268798828 232.4594268798828 C 238.5689239501953 226.3498840332031 244.1156005859375 219.6272888183594 248.9452819824219 212.4783935546875 C 253.8209991455078 205.2614288330078 258.0086059570312 197.5463562011719 261.391845703125 189.5474548339844 C 264.8374633789062 181.4011535644531 267.4837646484375 172.8761749267578 269.2572631835938 164.2093200683594 C 271.0772094726562 155.3154296875 272 146.160888671875 272 137 C 272 127.839111328125 271.0772094726562 118.6845703125 269.2572631835938 109.7906799316406 C 267.4837646484375 101.1238250732422 264.8374633789062 92.59886169433594 261.391845703125 84.45252990722656 C 258.0086059570312 76.45364379882812 253.8209991455078 68.73857116699219 248.9452819824219 61.5216064453125 C 244.1156005859375 54.37271118164062 238.5689239501953 47.65010070800781 232.4594268798828 41.54057312011719 C 226.3498840332031 35.43107604980469 219.6272888183594 29.8843994140625 212.4783935546875 25.05471801757812 C 205.2614288330078 20.17900085449219 197.5463562011719 15.99139404296875 189.5474548339844 12.608154296875 C 181.4011535644531 9.16253662109375 172.8761749267578 6.5162353515625 164.2093200683594 4.74273681640625 C 155.3154296875 2.92279052734375 146.160888671875 2 137 2 M 137 0 C 212.6629943847656 0 274 61.33700561523438 274 137 C 274 212.6629943847656 212.6629943847656 274 137 274 C 61.33700561523438 274 0 212.6629943847656 0 137 C 0 61.33700561523438 61.33700561523438 0 137 0 Z" stroke="none" fill="#433f8f"/>
          </g>
        </g>
        <circle id="Ellipse_149" data-name="Ellipse 149" cx="122" cy="122" r="122" transform="translate(838 5946)" fill="#462da2"/>
      </g>
      <g id="Logo" transform="translate(863.56 1576.931)">
        <path id="Path_250" data-name="Path 250" d="M21.986,27.768H11.349a4.2,4.2,0,0,0,1.55,2.959,4.9,4.9,0,0,0,3.276,1.2,5.882,5.882,0,0,0,3.874-1.444,2.317,2.317,0,0,1,1.444-.6,1.628,1.628,0,0,1,1.691,1.691,2.043,2.043,0,0,1-.7,1.515,8.7,8.7,0,0,1-6.269,2.289,9.169,9.169,0,0,1-6.534-2.4,8.414,8.414,0,0,1-2.554-6.445,8.627,8.627,0,0,1,8.946-9.052,8.053,8.053,0,0,1,5.389,1.849,8.294,8.294,0,0,1,2.677,5.442q.07.7.07.881Q24.2,27.768,21.986,27.768ZM11.349,24.739h8.664a4.267,4.267,0,0,0-1.021-2.923,3.729,3.729,0,0,0-2.959-1.162,4.724,4.724,0,0,0-3.205,1.162A4.176,4.176,0,0,0,11.349,24.739Zm29.6,5.459a6.082,6.082,0,0,0,1.286-3.839,5.938,5.938,0,0,0-1.286-3.8,4.308,4.308,0,0,0-3.575-1.62,4.407,4.407,0,0,0-3.593,1.691,5.876,5.876,0,0,0-1.374,3.8A5.739,5.739,0,0,0,33.785,30.2a4.444,4.444,0,0,0,3.593,1.655A4.271,4.271,0,0,0,40.952,30.2ZM44.228,20.02a9.066,9.066,0,0,1,2.307,6.34,9.412,9.412,0,0,1-2.272,6.41,7.616,7.616,0,0,1-6.04,2.606,7.364,7.364,0,0,1-3.276-.74,5.586,5.586,0,0,1-2.325-2.008h-.07v8.664a2.2,2.2,0,0,1-.669,1.849,2.3,2.3,0,0,1-2.888,0,2.2,2.2,0,0,1-.669-1.849V19.914a2.089,2.089,0,0,1,.652-1.743,2.172,2.172,0,0,1,1.356-.511,2.264,2.264,0,0,1,1.391.493,2.082,2.082,0,0,1,.652,1.761v.423h.106a6.161,6.161,0,0,1,2.237-2.008,7.234,7.234,0,0,1,3.61-.845A7.62,7.62,0,0,1,44.228,20.02Zm21.82,0V32.981a2.035,2.035,0,0,1-.652,1.726,2.219,2.219,0,0,1-1.356.493,2.5,2.5,0,0,1-.828-.141,1.767,1.767,0,0,1-.792-.669,2.33,2.33,0,0,1-.387-1.409v-.81h-.07a5.322,5.322,0,0,1-2.025,2.272,5.756,5.756,0,0,1-3.223.933,5.579,5.579,0,0,1-4.667-1.99,7.586,7.586,0,0,1-1.567-4.843V20.02a2.2,2.2,0,0,1,.669-1.849,2.3,2.3,0,0,1,2.888,0,2.2,2.2,0,0,1,.669,1.849v7.326q0,4.508,3.17,4.508A3.44,3.44,0,0,0,60.8,30.5a5.2,5.2,0,0,0,1.021-3.223V20.02a2.2,2.2,0,0,1,.669-1.849,2.3,2.3,0,0,1,2.888,0A2.2,2.2,0,0,1,66.048,20.02ZM79.185,34.777a4.584,4.584,0,0,1-2.078.458q-3.1,0-4.279-1.6a7.254,7.254,0,0,1-1.18-4.385v-7.89H70.274a1.765,1.765,0,0,1-1.479-.546,1.844,1.844,0,0,1-.423-1.145,2.12,2.12,0,0,1,.123-.7,1.443,1.443,0,0,1,.581-.669,2.063,2.063,0,0,1,1.2-.317h1.374V15.053a2.106,2.106,0,0,1,.669-1.779,2.2,2.2,0,0,1,2.818,0,2.106,2.106,0,0,1,.669,1.779v2.923h2.642a1.765,1.765,0,0,1,1.479.546,1.844,1.844,0,0,1,.423,1.145,2.12,2.12,0,0,1-.123.7,1.443,1.443,0,0,1-.581.669,2.063,2.063,0,0,1-1.2.317H75.8v7.854q0,2.536,1.62,2.536a5.792,5.792,0,0,0,.669-.07,4.04,4.04,0,0,1,.493-.035,1.53,1.53,0,0,1,1.18.475,1.582,1.582,0,0,1,.44,1.109A1.671,1.671,0,0,1,79.185,34.777Zm17.787-7.009H86.335a4.2,4.2,0,0,0,1.55,2.959,4.9,4.9,0,0,0,3.276,1.2,5.882,5.882,0,0,0,3.874-1.444,2.317,2.317,0,0,1,1.444-.6,1.628,1.628,0,0,1,1.691,1.691,2.043,2.043,0,0,1-.7,1.515A8.7,8.7,0,0,1,91.2,35.376a9.169,9.169,0,0,1-6.534-2.4,8.414,8.414,0,0,1-2.554-6.445,8.627,8.627,0,0,1,8.946-9.052,8.053,8.053,0,0,1,5.389,1.849,8.294,8.294,0,0,1,2.677,5.442q.07.7.07.881Q99.191,27.768,96.972,27.768ZM86.335,24.739H95a4.267,4.267,0,0,0-1.021-2.923,3.729,3.729,0,0,0-2.959-1.162,4.724,4.724,0,0,0-3.205,1.162A4.176,4.176,0,0,0,86.335,24.739Z" transform="translate(38.247 -5.41)" fill="#fcfbff"/>
        <path id="Path_245" data-name="Path 245" d="M60.986-9.285V-23.752c0-1.013-4.248.392-3.732,0s5.676-5.848,6.27-5.848,5.607,5.456,6.123,5.848-3.781-1.013-3.781,0V-9.095a9.953,9.953,0,0,1-3.118,7.67,11.2,11.2,0,0,1-7.92,2.886,11.2,11.2,0,0,1-7.92-2.886,9.953,9.953,0,0,1-3.118-7.67l-.027-5.9a2.5,2.5,0,0,1,.775-2.107,2.7,2.7,0,0,1,1.665-.589,2.7,2.7,0,0,1,1.665.589,2.5,2.5,0,0,1,.775,2.107l.027,5.705a7.2,7.2,0,0,0,1.472,4.576,5.586,5.586,0,0,0,4.686,1.88,5.586,5.586,0,0,0,4.686-1.88A7.2,7.2,0,0,0,60.986-9.285Z" transform="translate(105.975 29.601)" fill="url(#linear-gradient)"/>
        <path id="Path_249" data-name="Path 249" d="M3.58-5.563A6.082,6.082,0,0,0,4.866-9.4a5.938,5.938,0,0,0-1.286-3.8,4.308,4.308,0,0,0-3.575-1.62,4.407,4.407,0,0,0-3.593,1.691,5.876,5.876,0,0,0-1.374,3.8A5.739,5.739,0,0,0-3.587-5.563,4.444,4.444,0,0,0,.005-3.908,4.271,4.271,0,0,0,3.58-5.563ZM6.856-15.742A9.066,9.066,0,0,1,9.163-9.4a9.412,9.412,0,0,1-2.272,6.41A7.616,7.616,0,0,1,.851-.386a7.364,7.364,0,0,1-3.276-.74A5.586,5.586,0,0,1-4.75-3.133h-.07V5.532a2.2,2.2,0,0,1-.669,1.849,2.334,2.334,0,0,1-1.444.511,2.334,2.334,0,0,1-1.444-.511,2.2,2.2,0,0,1-.669-1.849V-15.848a2.089,2.089,0,0,1,.652-1.743A2.172,2.172,0,0,1-7.039-18.1a2.265,2.265,0,0,1,1.391.493A2.082,2.082,0,0,1-5-15.848v.423h.106a6.161,6.161,0,0,1,2.237-2.008,7.233,7.233,0,0,1,3.61-.845A7.62,7.62,0,0,1,6.856-15.742Z" transform="translate(183.716 30.352)" fill="#fcfbff"/>
        <g id="Star" transform="translate(0 0)">
          <path id="Path_247" data-name="Path 247" d="M659.471,6901.108l9.256,6.667-6.883,21.2-8.687-4.91,6.314-22.959,3.338-11h24.354s10.385,5.241,9.521,12.57-12.976,15.845-12.976,15.845l-3.508-10.731,9.284-6.667-11.513-.019-3.512-10.782-3.543,10.792-11.269-.01" transform="translate(-653.157 -6890.104)" fill="url(#linear-gradient-2)"/>
          <path id="Path_248" data-name="Path 248" d="M702.409,6962.555l18.389,13.229-6.667,7.507-21.005-14.055Z" transform="translate(-681.107 -6940.77)" fill="url(#linear-gradient-3)"/>
        </g>
      </g>
    </g>
  </g>
</svg>
