<svg xmlns="http://www.w3.org/2000/svg" xmlns:xlink="http://www.w3.org/1999/xlink" width="1920" height="1107.229" viewBox="0 0 1920 1107.229">
  <defs>
    <clipPath id="clip-path">
      <path id="Path_265" data-name="Path 265" d="M0,0H1920V1107.229H0Z" transform="translate(0 1079)" fill="#fff" opacity="0.1"/>
    </clipPath>
  </defs>
  <g id="why-us-bg" transform="translate(0 -1079)" clip-path="url(#clip-path)">
    <g id="liquid-cheese" transform="translate(0 1105.595)">
      <rect id="Rectangle_171" data-name="Rectangle 171" width="1919.88" height="1054.038" fill="#29217d"/>
      <g id="Group_270" data-name="Group 270">
        <path id="Path_1038" data-name="Path 1038" d="M583.164,849.845C452.012,821.122,315.1,807.42,180.829,824.284A781.051,781.051,0,0,0,0,868.29V973.958H1012.5C873.425,930.215,735.554,884.233,595.4,852.48,591.323,851.557,587.243,850.767,583.164,849.845Z" transform="translate(0 80.081)" fill="rgba(54,33,165,0.07)"/>
        <path id="Path_1039" data-name="Path 1039" d="M1919.88,0H0V948.371a781.347,781.347,0,0,1,180.829-44.138c134.272-16.733,271.183-3.162,402.335,25.56,4.08.922,8.159,1.845,12.239,2.635,140.151,31.621,278.023,77.735,417.094,121.478H1919.88Z" fill="rgba(71,30,208,0.07)"/>
        <path id="Path_1040" data-name="Path 1040" d="M574.044,765.5c3.84,1.054,7.68,2.24,11.4,3.294,235.425,69.171,466.411,175.893,712.156,232.679,209.027,48.222,419.374,38.472,622.281-13.439V0H0V757.458a683.43,683.43,0,0,1,193.308-40.712C322.06,708.05,450.812,730.185,574.044,765.5Z" fill="rgba(101,42,236,0.07)"/>
        <path id="Path_1041" data-name="Path 1041" d="M0,0V565.755c66.716-24.243,136.191-35.969,205.667-36.5C329.019,528.2,449.492,559.167,564.8,601.065c3.6,1.318,7.08,2.635,10.679,3.953,220.306,81.688,438.813,192.494,674.838,253.1,224.026,57.577,451.532,45.324,669.438-16.6V0Z" fill="rgba(137,70,247,0.07)"/>
        <path id="Path_1042" data-name="Path 1042" d="M218.146,341.772c117.833,7.905,230.266,46.378,337.539,95,3.36,1.449,6.6,3.03,9.959,4.48,205.187,94.336,411.214,208.831,637.52,273.655,238.545,68.249,484.05,53.756,716.715-19.5V0H0V373.13A532.058,532.058,0,0,1,218.146,341.772Z" fill="rgba(171,102,255,0.07)"/>
        <path id="Path_1043" data-name="Path 1043" d="M1919.88,0H0V179.582c74.755-27.537,153.23-36.233,230.626-25.3,112.313,15.942,216.586,62.847,315.94,118.052,3.12,1.713,6.12,3.426,9.239,5.138,190.068,106.853,383.616,225.169,600.322,294.077,252.584,80.37,516.928,64.56,763.872-21.871V0Z" fill="rgba(163,97,245,0.07)"/>
        <path id="Path_1044" data-name="Path 1044" d="M545.846,113.7c174.949,119.5,356.018,241.111,563,314.5,250.3,88.8,517.528,80.107,765.432-6.983,15.359-5.4,30.478-11.067,45.717-17V0H345.7c67.2,28.064,130.432,66.668,191.628,108.039C540.206,109.883,542.966,111.86,545.846,113.7Z" fill="rgba(156,94,234,0.07)"/>
        <path id="Path_1045" data-name="Path 1045" d="M1919.88,0H597.563c141.711,113.046,292.182,216.737,464.131,284.854,230.146,91.174,479.97,98.421,713.955,27.8A1104.364,1104.364,0,0,0,1920,257.712V0Z" fill="rgba(148,93,221,0.07)"/>
        <path id="Path_1046" data-name="Path 1046" d="M1676.9,203.956a967.5,967.5,0,0,0,166.31-57.709c26.038-11.726,51.6-24.77,76.675-38.868V0H772.032c75.475,54.942,155.63,103.032,242.5,141.5C1224.4,234.655,1456.949,258.371,1676.9,203.956Z" fill="rgba(141,93,207,0.07)"/>
        <path id="Path_1047" data-name="Path 1047" d="M1578.261,95.39A827.712,827.712,0,0,0,1838.405,0H970.859C1160.087,93.546,1373.554,133.072,1578.261,95.39Z" fill="rgba(135,95,191,0.07)"/>
      </g>
    </g>
  </g>
</svg>
