<svg xmlns="http://www.w3.org/2000/svg" width="28.703" height="47.407" viewBox="0 0 28.703 47.407">
  <g id="workflow-icon-three" transform="translate(0)">
    <path id="Path_938" data-name="Path 938" d="M150.072,40.143V36.627H126v3.516a17.618,17.618,0,0,0,7.276,14.192,3.219,3.219,0,0,1,0,5.2A17.612,17.612,0,0,0,126,73.735v3.516h24.073V73.735A17.612,17.612,0,0,0,142.79,59.54a3.226,3.226,0,0,1-1.322-2.6h0a3.233,3.233,0,0,1,1.327-2.6,17.618,17.618,0,0,0,7.276-14.192Z" transform="translate(-123.684 -33.236)" fill="#d8ecfe"/>
    <path id="Path_939" data-name="Path 939" d="M142.8,54.335a17.618,17.618,0,0,0,7.276-14.192V36.627h-3.937v3.516a17.618,17.618,0,0,1-7.276,14.192,3.233,3.233,0,0,0-1.327,2.6h0a3.226,3.226,0,0,0,1.322,2.6,17.611,17.611,0,0,1,7.281,14.195v3.516h3.937V73.735a17.612,17.612,0,0,0-7.281-14.195,3.226,3.226,0,0,1-1.322-2.6h0A3.233,3.233,0,0,1,142.8,54.335Z" transform="translate(-123.687 -33.236)" fill="#c4e2ff"/>
    <path id="Path_940" data-name="Path 940" d="M156,358.071V357.6a8.232,8.232,0,0,1,3.346-6.29,9.383,9.383,0,0,1,11.826,0,8.232,8.232,0,0,1,3.346,6.29v.468Z" transform="translate(-150.907 -316.882)" fill="#ffd15b"/>
    <path id="Path_941" data-name="Path 941" d="M102.668,3.392h25.37A1.681,1.681,0,0,0,129.7,1.7,1.681,1.681,0,0,0,128.037,0h-25.37A1.681,1.681,0,0,0,101,1.7,1.681,1.681,0,0,0,102.668,3.392Z" transform="translate(-101.001 -0.001)" fill="#596c76"/>
    <path id="Path_942" data-name="Path 942" d="M102.668,478.765h25.37a1.7,1.7,0,0,0,0-3.391h-25.37a1.7,1.7,0,0,0,0,3.391Z" transform="translate(-101.001 -431.359)" fill="#596c76"/>
    <g id="Group_219" data-name="Group 219" transform="translate(13.636 20.746)">
      <path id="Path_943" data-name="Path 943" d="M248.987,233.89a.715.715,0,0,1-.715-.715v-.954a.715.715,0,1,1,1.431,0v.954A.715.715,0,0,1,248.987,233.89Zm0-3.72a.715.715,0,0,1-.715-.715V228.5a.715.715,0,1,1,1.431,0v.954A.715.715,0,0,1,248.987,230.17Zm0-3.72a.715.715,0,0,1-.715-.715v-.954a.715.715,0,1,1,1.431,0v.954A.715.715,0,0,1,248.987,226.45Z" transform="translate(-248.272 -224.065)" fill="#feb137"/>
    </g>
    <path id="Path_944" data-name="Path 944" d="M157.742,97.956a14.658,14.658,0,0,0,4.072,8.1,7.042,7.042,0,0,0,10.052,0,14.658,14.658,0,0,0,4.072-8.1Z" transform="translate(-152.488 -88.886)" fill="#feb137"/>
    <path id="Path_945" data-name="Path 945" d="M345.3,0h-4.867A1.681,1.681,0,0,1,342.1,1.7a1.681,1.681,0,0,1-1.667,1.7H345.3a1.681,1.681,0,0,0,1.667-1.7A1.681,1.681,0,0,0,345.3,0Z" transform="translate(-318.266)" fill="#465a61"/>
    <path id="Path_946" data-name="Path 946" d="M345.3,475.373h-4.867a1.7,1.7,0,0,1,0,3.391H345.3a1.7,1.7,0,0,0,0-3.391Z" transform="translate(-318.266 -431.358)" fill="#465a61"/>
    <path id="Path_947" data-name="Path 947" d="M337.161,389.308a17.3,17.3,0,0,1,.585,4.453v.69h1.159v-.468A7.471,7.471,0,0,0,337.161,389.308Z" transform="translate(-315.295 -353.262)" fill="#ffc344"/>
    <path id="Path_948" data-name="Path 948" d="M304.811,97.957a17.52,17.52,0,0,1-3.795,8.847,7.058,7.058,0,0,0,.858-.741,14.658,14.658,0,0,0,4.072-8.1h-1.135Z" transform="translate(-282.496 -88.887)" fill="#f6ab31"/>
  </g>
</svg>
