<svg id="workflow-icon-five" xmlns="http://www.w3.org/2000/svg" width="52.876" height="41.402" viewBox="0 0 52.876 41.402">
  <circle id="Ellipse_145" data-name="Ellipse 145" cx="20.701" cy="20.701" r="20.701" transform="translate(0 0)" fill="#fdbf00"/>
  <path id="Path_978" data-name="Path 978" d="M220.367,76.034a20.724,20.724,0,0,1-20.7,20.7v-41.4A20.724,20.724,0,0,1,220.367,76.034Z" transform="translate(-178.965 -55.333)" fill="#ff9100"/>
  <circle id="Ellipse_146" data-name="Ellipse 146" cx="17.488" cy="17.488" r="17.488" transform="translate(3.213 3.213)" fill="#ffe9cb"/>
  <path id="Path_979" data-name="Path 979" d="M217.155,103.811A17.508,17.508,0,0,1,199.667,121.3V86.323A17.508,17.508,0,0,1,217.155,103.811Z" transform="translate(-178.966 -83.11)" fill="#ffd17b"/>
  <path id="Path_980" data-name="Path 980" d="M149.434,162.055a4.785,4.785,0,0,1-5.015,4.777v1.57a1.555,1.555,0,0,1-3.11,0v-1.57a5.6,5.6,0,0,1-4.655-2.021,1.555,1.555,0,1,1,2.39-1.991,2.473,2.473,0,0,0,1.842.9h3.772a1.667,1.667,0,0,0,0-3.333H141.07a4.779,4.779,0,1,1,.238-9.553v-1.571a1.555,1.555,0,0,1,3.11,0v1.571a5.529,5.529,0,0,1,4.752,2.578l.019.029a1.555,1.555,0,0,1-2.621,1.674l-.018-.029a2.464,2.464,0,0,0-2.022-1.143H141.07a1.666,1.666,0,0,0,0,3.332h3.587A4.782,4.782,0,0,1,149.434,162.055Z" transform="translate(-122.163 -138.133)" fill="#fdbf00"/>
  <path id="Path_981" data-name="Path 981" d="M206.237,244.776a4.785,4.785,0,0,1-5.015,4.777v1.57a1.555,1.555,0,0,1-1.555,1.555v-6.235h1.794a1.667,1.667,0,0,0,0-3.333h-1.794V240h1.794A4.782,4.782,0,0,1,206.237,244.776Z" transform="translate(-178.966 -220.854)" fill="#ff9100"/>
  <path id="Path_982" data-name="Path 982" d="M201.332,153.946h-1.665V147.71a1.556,1.556,0,0,1,1.555,1.555v1.571a5.529,5.529,0,0,1,4.752,2.578l.019.029a1.555,1.555,0,0,1-2.621,1.674l-.018-.029A2.464,2.464,0,0,0,201.332,153.946Z" transform="translate(-178.966 -138.133)" fill="#ff9100"/>
  <path id="Path_983" data-name="Path 983" d="M333.88,73.055,324.8,60.127a1.088,1.088,0,0,0-1.78,0l-9.084,12.927a1.088,1.088,0,0,0,.89,1.713h2.7a1.088,1.088,0,0,1,1.086,1.155l-1.38,22.325a1.088,1.088,0,0,0,1.087,1.154H329.5a1.088,1.088,0,0,0,1.087-1.154l-1.38-22.325a1.088,1.088,0,0,1,1.086-1.155h2.7A1.088,1.088,0,0,0,333.88,73.055Z" transform="translate(-281.205 -59.216)" fill="#00ab5e"/>
  <path id="Path_984" data-name="Path 984" d="M421.84,73.055l-9.084-12.927a1.079,1.079,0,0,0-.89-.462V99.4h5.592a1.088,1.088,0,0,0,1.087-1.154l-1.38-22.325a1.088,1.088,0,0,1,1.086-1.155h2.7A1.088,1.088,0,0,0,421.84,73.055Z" transform="translate(-369.165 -59.216)" fill="#008575"/>
</svg>
