<svg id="workflow-icon-one" xmlns="http://www.w3.org/2000/svg" width="32.119" height="46.428" viewBox="0 0 32.119 46.428">
  <path id="Path_904" data-name="Path 904" d="M119.266,19.279a5.507,5.507,0,1,0-4.72,0Zm0,0" transform="translate(-101.307 -8)" fill="#3b97d3"/>
  <path id="Path_905" data-name="Path 905" d="M71.163,13.024a.787.787,0,0,1-.574-.248A9.422,9.422,0,0,1,70.179.3a.787.787,0,1,1,1.212,1,7.848,7.848,0,0,0,.345,10.4.786.786,0,0,1-.573,1.325Zm0,0" transform="translate(-61.858 0.001)" fill="#2980ba"/>
  <path id="Path_906" data-name="Path 906" d="M238.753,11.027a.786.786,0,0,1-.7-1.145,7.835,7.835,0,0,0-.936-8.58.787.787,0,1,1,1.212-1,9.408,9.408,0,0,1,1.124,10.3.786.786,0,0,1-.7.428Zm0,0" transform="translate(-215.454 0.001)" fill="#2980ba"/>
  <path id="Path_907" data-name="Path 907" d="M32.2,61.774V74.226s0,4.24-2.682,6.695a1.507,1.507,0,0,0-.464,1.117v2.415a1.578,1.578,0,0,1-1.573,1.574H14.892a1.578,1.578,0,0,1-1.573-1.574v-.291a4.678,4.678,0,0,0-1.408-3.351,21.776,21.776,0,0,1-4.885-6.585c-1.573-3.933-4.72-9.44-6.293-11.013s0-3.147,1.573-3.147,4.72,3.147,6.293,5.507a11.9,11.9,0,0,0,1.746,2.085A1.567,1.567,0,0,0,12.9,67a9.422,9.422,0,0,0,.417-3V45.906a2.335,2.335,0,0,1,1.573-2.218,2.184,2.184,0,0,1,.786-.142,2.36,2.36,0,0,1,2.36,2.36v9.44a2.334,2.334,0,0,1,1.573-2.218,2.18,2.18,0,0,1,.787-.142,2.36,2.36,0,0,1,2.36,2.36v2.36a2.355,2.355,0,0,1,.692-1.667,2.231,2.231,0,0,1,.881-.551,2.18,2.18,0,0,1,.787-.142,2.36,2.36,0,0,1,2.36,2.36V61.64a2.353,2.353,0,0,1,.692-1.667,2.234,2.234,0,0,1,.881-.551,2.282,2.282,0,0,1,.96-.133A2.447,2.447,0,0,1,32.2,61.774Zm0,0" transform="translate(-0.081 -39.599)" fill="#fdd7ad"/>
  <g id="Group_206" data-name="Group 206" transform="translate(12.113 3.948)">
    <path id="Path_908" data-name="Path 908" d="M137.191,43.547a2.184,2.184,0,0,0-.786.142,2.335,2.335,0,0,0-1.573,2.218V64a9.422,9.422,0,0,1-.417,3,1.6,1.6,0,0,1-.708.865A1.566,1.566,0,0,0,135.988,67a9.422,9.422,0,0,0,.417-3V45.907a2.335,2.335,0,0,1,1.573-2.218,2.188,2.188,0,0,0-.787-.142Zm0,0" transform="translate(-133.707 -43.547)" fill="#cbb292"/>
    <path id="Path_909" data-name="Path 909" d="M199.757,147.826a2.334,2.334,0,0,0-1.573,2.218v7.08a.787.787,0,0,0,1.573,0v-7.08a2.335,2.335,0,0,1,1.573-2.218A2.257,2.257,0,0,0,199.757,147.826Zm0,0" transform="translate(-192.338 -138.244)" fill="#cbb292"/>
    <path id="Path_910" data-name="Path 910" d="M251.823,173.861a2.231,2.231,0,0,0-.881.551,2.355,2.355,0,0,0-.692,1.667v4.72a.787.787,0,0,0,1.573,0v-4.72a2.335,2.335,0,0,1,1.574-2.218,2.258,2.258,0,0,0-1.574,0Zm0,0" transform="translate(-239.685 -161.919)" fill="#cbb292"/>
    <path id="Path_911" data-name="Path 911" d="M304.68,217.108a2.178,2.178,0,0,0-.786.141,2.234,2.234,0,0,0-.881.551,2.354,2.354,0,0,0-.692,1.667v1.573a.787.787,0,1,0,1.573,0v-1.573a2.335,2.335,0,0,1,1.573-2.218A2.179,2.179,0,0,0,304.68,217.108Zm0,0" transform="translate(-287.036 -201.375)" fill="#cbb292"/>
  </g>
  <path id="Path_912" data-name="Path 912" d="M311.783,303.887a.787.787,0,0,0-.787.787v4.72a.787.787,0,1,0,1.573,0v-4.72A.787.787,0,0,0,311.783,303.887Zm0,0" transform="translate(-282.811 -276.339)" fill="#fee7ce"/>
  <path id="Path_913" data-name="Path 913" d="M303.816,390.789a.822.822,0,0,0-.806.757,1.731,1.731,0,0,1-.556,1.035.787.787,0,1,0,1.112,1.112,3.193,3.193,0,0,0,1.017-2.13A.777.777,0,0,0,303.816,390.789Zm0,0" transform="translate(-274.825 -355.363)" fill="#fee7ce"/>
  <path id="Path_914" data-name="Path 914" d="M173.722,468.77h-.786a.787.787,0,1,0,0,1.573h.786a.787.787,0,1,0,0-1.573Zm0,0" transform="translate(-156.55 -426.275)" fill="#fee7ce"/>
  <path id="Path_915" data-name="Path 915" d="M221.833,468.77h-5.507a.787.787,0,1,0,0,1.573h5.507a.787.787,0,0,0,0-1.573Zm0,0" transform="translate(-196.008 -426.275)" fill="#fee7ce"/>
</svg>
