<svg id="workflow-icon-two" xmlns="http://www.w3.org/2000/svg" width="42.793" height="42.793" viewBox="0 0 42.793 42.793">
  <path id="Path_916" data-name="Path 916" d="M456.823,69.276,449.1,61.543V92.531h10.329V75.555A8.855,8.855,0,0,0,456.823,69.276Zm0,0" transform="translate(-416.641 -57.116)" fill="#ffb782"/>
  <path id="Path_917" data-name="Path 917" d="M6.032,30.076.2,14.929a2.951,2.951,0,0,1,1.693-3.814L29.431.506A2.951,2.951,0,0,1,33.246,2.2L39.08,17.347a2.951,2.951,0,0,1-1.693,3.814L9.847,31.77A2.952,2.952,0,0,1,6.032,30.076Zm0,0" transform="translate(0 -0.308)" fill="#de4c3c"/>
  <path id="Path_918" data-name="Path 918" d="M65.217,101.961,32.2,114.761l2.2,5.708,33.023-12.794Zm0,0" transform="translate(-29.868 -94.612)" fill="#7a4930"/>
  <path id="Path_919" data-name="Path 919" d="M0,19.484V3.252A2.951,2.951,0,0,1,2.955.3H32.468a2.952,2.952,0,0,1,2.951,2.951V19.484a2.952,2.952,0,0,1-2.951,2.951H2.955A2.951,2.951,0,0,1,0,19.484Zm0,0" transform="translate(-0.004 -0.301)" fill="#4398d1"/>
  <path id="Path_920" data-name="Path 920" d="M124.79.3h-3.136L99.519,22.435h25.27a2.951,2.951,0,0,0,2.951-2.951V3.252A2.952,2.952,0,0,0,124.79.3Zm0,0" transform="translate(-92.326 -0.301)" fill="#3e8cc7"/>
  <path id="Path_921" data-name="Path 921" d="M40.832,163.609h2.951v1.476H40.832Zm0,0" transform="translate(-37.88 -151.804)" fill="#5eb3d1"/>
  <path id="Path_922" data-name="Path 922" d="M40.832,224.852h2.951v1.476H40.832Zm0,0" transform="translate(-37.88 -208.62)" fill="#5eb3d1"/>
  <path id="Path_923" data-name="Path 923" d="M224.555,224.852h2.951v1.476h-2.951Zm0,0" transform="translate(-208.323 -208.62)" fill="#5eb3d1"/>
  <path id="Path_924" data-name="Path 924" d="M102.074,163.609h2.951v1.476h-2.951Zm0,0" transform="translate(-94.695 -151.804)" fill="#5eb3d1"/>
  <path id="Path_925" data-name="Path 925" d="M163.313,163.609h2.951v1.476h-2.951Zm0,0" transform="translate(-151.508 -151.804)" fill="#5eb3d1"/>
  <path id="Path_926" data-name="Path 926" d="M224.555,163.609h2.951v1.476h-2.951Zm0,0" transform="translate(-208.323 -151.804)" fill="#5eb3d1"/>
  <path id="Path_927" data-name="Path 927" d="M418.484,41.129h1.476v2.213h-1.476Zm0,0" transform="translate(-388.233 -38.178)" fill="#5eb3d1"/>
  <path id="Path_928" data-name="Path 928" d="M377.656,41.129h1.476v2.213h-1.476Zm0,0" transform="translate(-350.357 -38.178)" fill="#5eb3d1"/>
  <path id="Path_929" data-name="Path 929" d="M336.828,41.129H338.3v2.213h-1.476Zm0,0" transform="translate(-312.48 -38.178)" fill="#5eb3d1"/>
  <path id="Path_930" data-name="Path 930" d="M296,41.129h1.475v2.213H296Zm0,0" transform="translate(-274.607 -38.178)" fill="#5eb3d1"/>
  <path id="Path_931" data-name="Path 931" d="M408.277,490.23h13.281v7.378H408.277Zm0,0" transform="translate(-378.764 -454.815)" fill="#88b337"/>
  <path id="Path_932" data-name="Path 932" d="M308.3,172.716a3.2,3.2,0,0,0-4.619,4.423l6.046,6.6a9.951,9.951,0,0,0,.2,10.209l.536.858h9.591V184.473Zm0,0" transform="translate(-280.95 -159.388)" fill="#ffb782"/>
  <path id="Path_933" data-name="Path 933" d="M438.9,520.852h1.476v1.476H438.9Zm0,0" transform="translate(-407.172 -483.224)" fill="#6b962a"/>
  <path id="Path_934" data-name="Path 934" d="M40.832,45.851V42.309a1.18,1.18,0,0,1,1.181-1.181h3.541a1.18,1.18,0,0,1,1.18,1.181v3.541a1.18,1.18,0,0,1-1.18,1.181H42.013A1.18,1.18,0,0,1,40.832,45.851Zm0,0" transform="translate(-37.88 -38.178)" fill="#fdb62f"/>
  <path id="Path_935" data-name="Path 935" d="M40.832,71.75h2.213v1.476H40.832Zm0,0" transform="translate(-37.88 -66.585)" fill="#fd7b2f"/>
  <path id="Path_936" data-name="Path 936" d="M91.867,71.75H94.08v1.476H91.867Zm0,0" transform="translate(-85.226 -66.585)" fill="#fd7b2f"/>
  <path id="Path_937" data-name="Path 937" d="M483.53,290.638a.737.737,0,0,1-.522-.216l-2.951-2.951a.738.738,0,0,1,1.043-1.043l2.951,2.951a.738.738,0,0,1-.522,1.26Zm0,0" transform="translate(-445.163 -265.552)" fill="#f2a46f"/>
</svg>
